<?xml version="1.0" standalone="no"?>
<!DOCTYPE svg PUBLIC "-//W3C//DTD SVG 1.1//EN" "http://www.w3.org/Graphics/SVG/1.1/DTD/svg11.dtd" >
<svg xmlns="http://www.w3.org/2000/svg" xmlns:xlink="http://www.w3.org/1999/xlink" version="1.1">
<metadata>
Created by FontForge 20170812 at Sun Nov 28 06:08:31 2021
 By www-data
berold(c)js studio. 2021. All Rights Reserved
</metadata>
<defs>
<font id="Berold" horiz-adv-x="733" >
  <font-face 
    font-family="Berold"
    font-weight="400"
    font-stretch="normal"
    units-per-em="1000"
    panose-1="2 0 6 0 0 0 0 0 0 0"
    ascent="800"
    descent="-200"
    x-height="574"
    cap-height="760"
    bbox="-384 -460 1694 938"
    underline-thickness="50"
    underline-position="-125"
    unicode-range="U+0020-FB01"
  />
<missing-glyph horiz-adv-x="500" 
 />
    <glyph glyph-name="fi" unicode="fi" horiz-adv-x="524" 
d="M536 -4h-184v2h1q9 0 19.5 2t26 16.5t15.5 40.5l1 449q0 30 -9.5 38.5t-36.5 8.5l-177 -1q-14 0 -22.5 -8.5t-10.5 -16t-2 -13.5v-453q0 -27 16.5 -45t43.5 -18h2v-2h-184v2h3q11 0 22 2.5t24 16t13 37.5v495h-69v18h69v28q0 76 60.5 129t149.5 55h5q57 0 103 -31.5
t46 -84.5q0 -13 -9.5 -22.5t-22.5 -9.5t-22.5 9.5t-9.5 22.5q0 9 3 15q0 40 -30.5 61t-67.5 22q-67 0 -106 -40.5t-39 -123.5v-26h223q76 2 94 14v-528q0 -26 15.5 -40.5t26 -16.5t19.5 -2h1v-2z" />
    <glyph glyph-name=".notdef" horiz-adv-x="500" 
 />
    <glyph glyph-name=".null" horiz-adv-x="0" 
 />
    <glyph glyph-name="nonmarkingreturn" horiz-adv-x="333" 
 />
    <glyph glyph-name="space" unicode=" " horiz-adv-x="221" 
 />
    <glyph glyph-name="space" unicode="&#xa0;" horiz-adv-x="221" 
 />
    <glyph glyph-name="exclam" unicode="!" horiz-adv-x="228" 
d="M124 56h-32l-25 699q0 16 13 27t30 11t30 -11t13 -27zM110 -18q-11 0 -19.5 8t-8.5 20q0 11 8.5 19t19.5 8t19.5 -8t8.5 -19q0 -12 -8.5 -20t-19.5 -8z" />
    <glyph glyph-name="quotedbl" unicode="&#x22;" horiz-adv-x="247" 
d="M79 582h-31l-29 179h89zM188 582h-31l-29 179h89z" />
    <glyph glyph-name="numbersign" unicode="#" horiz-adv-x="432" 
d="M192 133h-42l70 174h-97l-70 -174h-42l70 174h-60v43h77l41 102h-118v43h136l59 147h42l-59 -147h97l59 147h42l-59 -147h63v-43h-81l-41 -102h122v-43h-139zM237 350l41 102h-97l-41 -102h97z" />
    <glyph glyph-name="dollar" unicode="$" horiz-adv-x="546" 
d="M286 -4h-45v32q-160 9 -224 119l40 81l8 -2q-7 -18 -7 -38q0 -58 56.5 -99t126.5 -47v338q-45 21 -72.5 36.5t-59 39t-47 51.5t-15.5 62v2q0 71 55 111t139 46v33h45v-31q63 -2 118.5 -21.5t84.5 -52.5l-24 -88l-8 1l1 14q0 53 -50.5 86.5t-121.5 39.5v-269l12 -6
q43 -22 65.5 -34.5t55.5 -36t49.5 -43.5t29.5 -50t13 -64q0 -8 -2 -28q-10 -72 -72 -109.5t-151 -40.5v-32zM241 462v248q-63 -3 -106 -30.5t-43 -76.5q1 -48 37.5 -77.5t111.5 -63.5zM286 43q70 6 118.5 42t55.5 102v8q0 67 -106 129q-34 19 -68 35v-316z" />
    <glyph glyph-name="percent" unicode="%" horiz-adv-x="596" 
d="M123 0h-68l393 761h68zM155 415q29 0 49 50t20 120t-20 120t-49 50t-49 -50t-20 -120t20 -120t49 -50zM155 399q-55 0 -93 54.5t-38 131.5t38 131.5t93 54.5t93.5 -54.5t38.5 -131.5t-38.5 -131.5t-93.5 -54.5zM438 9q29 0 49 50t20 120t-20 120t-49 50t-49.5 -49.5
t-20.5 -120.5t20.5 -120.5t49.5 -49.5zM438 -7q-55 0 -93.5 54.5t-38.5 131.5t38.5 131.5t93.5 54.5q54 0 92.5 -54.5t38.5 -131.5t-38.5 -131.5t-92.5 -54.5z" />
    <glyph glyph-name="ampersand" unicode="&#x26;" horiz-adv-x="754" 
d="M306 -32h-21q-109 0 -181 48t-76 129v6q0 31 17 62t38 52t56.5 45.5t54.5 35t50 26.5q-165 130 -170 231v5q0 74 68.5 118t164.5 46h3q94 0 161.5 -41.5t67.5 -114.5q0 -47 -20 -86t-58 -70t-75 -54t-89 -53t-82 -52q-98 -73 -104 -137v-11q0 -72 68 -113.5t160 -41.5h12
q103 3 192 76l-6 7l-230 239q33 21 44 26l228 -238q84 90 84 184q0 38 -15 63l8 4l67 -86q-39 -109 -123 -186l5 -6q34 -35 69 -55t49 -23t23 -3h1l2 -4h-207l-1 3q32 0 32 22q0 13 -14 33q-113 -81 -253 -86zM306 402q67 46 113.5 106.5t47.5 104.5q0 56 -49 95.5
t-115 39.5h-2q-57 -2 -103.5 -40t-46.5 -88v-3q1 -89 155 -215z" />
    <glyph glyph-name="quotesingle" unicode="'" horiz-adv-x="147" 
d="M89 582h-31l-29 179h89z" />
    <glyph glyph-name="parenleft" unicode="(" horiz-adv-x="286" 
d="M317 -226q-112 14 -189.5 159.5t-77.5 346.5q0 200 77.5 346t189.5 159v-6q-84 -16 -142.5 -162.5t-58.5 -336.5q0 -189 58.5 -334.5t142.5 -161.5v-10z" />
    <glyph glyph-name="parenright" unicode=")" horiz-adv-x="275" 
d="M-47 -226v10q84 16 142.5 161.5t58.5 334.5q0 190 -58.5 336.5t-142.5 162.5v6q112 -13 189.5 -159t77.5 -346q0 -201 -77.5 -346.5t-189.5 -159.5z" />
    <glyph glyph-name="asterisk" unicode="*" horiz-adv-x="270" 
d="M158 593l-23 63l-23 -63l-38 22l42 51l-66 -11v45l66 -12l-42 52l38 22l23 -63l23 63l39 -22l-43 -52l66 12v-45l-66 11l43 -51z" />
    <glyph glyph-name="plus" unicode="+" horiz-adv-x="501" 
d="M290 133h-43v224h-224v43h224v224h43v-224h224v-43h-224v-224z" />
    <glyph glyph-name="comma" unicode="," horiz-adv-x="220" 
d="M82 -90l-1 5q25 9 39.5 30.5t14.5 45.5l-1 10q-13 -7 -28 -7q-22 1 -38.5 16t-17.5 37v4q0 23 16.5 40t40.5 17q30 -1 46.5 -25t16.5 -56q0 -55 -44 -93q-19 -16 -44 -24z" />
    <glyph glyph-name="hyphenminus" unicode="-" horiz-adv-x="506" 
d="M447 357h-380v43h380v-43z" />
    <glyph glyph-name="hyphenminus" unicode="&#xad;" horiz-adv-x="506" 
d="M447 357h-380v43h380v-43z" />
    <glyph glyph-name="period" unicode="." horiz-adv-x="214" 
d="M107 -5q-23 0 -40 16.5t-17 39.5q0 24 17 40.5t40 16.5t40 -16.5t17 -40.5q0 -23 -17 -39.5t-40 -16.5z" />
    <glyph glyph-name="slash" unicode="/" horiz-adv-x="425" 
d="M52 0h-68l393 761h68z" />
    <glyph glyph-name="zero" unicode="0" horiz-adv-x="600" 
 />
    <glyph glyph-name="one" unicode="1" horiz-adv-x="422" 
 />
    <glyph glyph-name="two" unicode="2" horiz-adv-x="600" 
 />
    <glyph glyph-name="three" unicode="3" horiz-adv-x="600" 
 />
    <glyph glyph-name="four" unicode="4" horiz-adv-x="600" 
 />
    <glyph glyph-name="five" unicode="5" horiz-adv-x="600" 
 />
    <glyph glyph-name="six" unicode="6" horiz-adv-x="601" 
 />
    <glyph glyph-name="seven" unicode="7" horiz-adv-x="600" 
 />
    <glyph glyph-name="eight" unicode="8" horiz-adv-x="601" 
 />
    <glyph glyph-name="nine" unicode="9" horiz-adv-x="601" 
 />
    <glyph glyph-name="colon" unicode=":" horiz-adv-x="230" 
d="M82 -10l-1 5q25 9 39.5 30.5t14.5 45.5l-1 11q-13 -7 -27 -7q-23 0 -39.5 15.5t-17.5 37.5v3q0 23 16 40t39 17h2q30 0 46.5 -24.5t16.5 -55.5q0 -56 -44 -94q-19 -16 -44 -24zM123 368q-23 0 -39.5 17t-16.5 40t16.5 39.5t39.5 16.5q24 0 40.5 -16.5t16.5 -39.5
t-16.5 -40t-40.5 -17z" />
    <glyph glyph-name="semicolon" unicode=";" horiz-adv-x="213" 
d="M107 368q-23 0 -40 17t-17 40t17 39.5t40 16.5t39.5 -16.5t16.5 -39.5t-16.5 -40t-39.5 -17zM107 71q-23 0 -40 16.5t-17 40.5q0 23 17 39.5t40 16.5t39.5 -16.5t16.5 -39.5q0 -24 -16.5 -40.5t-39.5 -16.5z" />
    <glyph glyph-name="less" unicode="&#x3c;" horiz-adv-x="224" 
d="M199 119l-245 229l245 230l7 -5l-157 -225l156 -225z" />
    <glyph glyph-name="equal" unicode="=" horiz-adv-x="350" 
d="M344 372h-380v42h380v-42zM344 281h-380v42h380v-42z" />
    <glyph glyph-name="greater" unicode="&#x3e;" horiz-adv-x="233" 
d="M14 119l-6 4l156 225l-156 225l6 5l245 -230z" />
    <glyph glyph-name="question" unicode="?" horiz-adv-x="480" 
d="M212 57h-38l-1 22q0 58 21 115t51.5 102.5t61 89t51.5 90.5t21 90v6q-2 67 -28.5 112t-61 62.5t-74.5 18.5q-46 0 -80 -24t-36 -62v-9q0 -16 4 -47.5t4 -43.5q0 -46 -43 -47h-3q-30 0 -48 24t-18 60q0 66 57 119t167 54q241 0 241 -202v-6q-1 -49 -27 -103.5
t-62.5 -103.5t-72.5 -98.5t-61 -105.5t-25 -108v-5zM194 -17q-12 0 -21 9t-9 22q0 12 9 21t21 9q13 0 22 -9t9 -21q0 -13 -9 -22t-22 -9z" />
    <glyph glyph-name="at" unicode="@" horiz-adv-x="866" 
d="M367 178q29 0 56 10q60 22 104 76.5t58 117.5q6 27 6 54q0 48 -20 85.5t-59 54.5q-23 10 -52 10q-30 0 -57 -10q-60 -22 -103.5 -76.5t-58.5 -117.5q-6 -27 -6 -53q0 -48 20 -86t60 -55q23 -10 52 -10zM431 -20q-167 0 -284.5 118t-117.5 284t117.5 284t284.5 118
t284.5 -118t117.5 -284q0 -96 -39 -145.5t-93 -49.5q-45 0 -78.5 33t-33.5 85q-43 -75 -104.5 -114t-120.5 -39q-67 0 -119 33.5t-71 93.5q-8 24 -8 56q0 27 5 47q10 52 47 103q44 60 110.5 94t133.5 34q89 0 145 -54l4 34h69l-26 -252q-2 -26 -2 -36q0 -80 45 -80
q88 0 88 157q0 152 -103.5 259t-250.5 107t-250.5 -107t-103.5 -259t103.5 -259t250.5 -107q142 0 245 101l31 -27q-116 -110 -276 -110z" />
    <glyph glyph-name="A" unicode="A" 
d="M53 77l263 678q23 5 34.5 11.5t24.5 25.5h7q182 -474 273 -712q9 -22 21.5 -38.5t23.5 -24.5t23 -12.5t17.5 -5t9.5 -0.5v-3h-207v2q7 0 15.5 1.5t22 13t13.5 31.5q0 16 -8 36l-50 133q-27 49 -115 49h-269l-70 -182q-8 -20 -8 -36q0 -20 13.5 -31.5t22 -13t15.5 -1.5v-2
h-166v2h1q7 0 15.5 2t23.5 8.5t29.5 24.5t24.5 44zM506 291l-170 442l-172 -442h342z" />
    <glyph glyph-name="B" unicode="B" horiz-adv-x="763" 
d="M169 396h252q82 0 127 53t46 125v3q0 67 -37.5 115t-102.5 48h-188q-57 0 -77 -16t-20 -45v-283zM169 299v-222q0 -29 20.5 -45t76.5 -16h239q61 0 97.5 42.5t41.5 104.5q0 3 0.5 8t0.5 8q0 73 -45.5 127.5t-128.5 54.5h-205q-57 0 -77 -16.5t-20 -45.5zM107 73v611
q-1 25 -11 41.5t-24.5 22t-22.5 7.5t-14 2h-1v3h441q93 0 144.5 -52.5t51.5 -126.5v-4q-1 -64 -40.5 -118t-110.5 -76q96 -11 149 -71.5t53 -136.5v-4q-2 -73 -53.5 -124t-142.5 -51h-492v3h1q4 0 9.5 0.5t17.5 5t21 11.5t16 22t8 35z" />
    <glyph glyph-name="C" unicode="C" horiz-adv-x="713" 
d="M90 378q0 -69 21.5 -135.5t60.5 -121.5t100.5 -89t134.5 -34q78 0 154 44.5t88 115.5q2 12 2 18q0 7 -2 19l8 2l37 -96q-37 -53 -125.5 -86.5t-161.5 -33.5q-166 0 -280 115.5t-114 281.5t114 281.5t280 115.5q184 0 265 -81l-18 -100h-8v6q0 69 -73.5 113.5t-165.5 44.5
q-73 0 -134.5 -34t-100.5 -89t-60.5 -121.5t-21.5 -135.5z" />
    <glyph glyph-name="D" unicode="D" horiz-adv-x="829" 
d="M395 16q97 0 171 55t109.5 136.5t35.5 170.5q0 90 -35.5 171t-109.5 136t-171 55h-145q-46 -3 -62.5 -18.5t-16.5 -42.5v-602q0 -29 20 -45t76 -16h128zM395 -4h-360v2q7 0 15 2t23 8.5t25 24t10 43.5v603q0 26 -9.5 43.5t-24 24t-23 8.5t-15.5 2h-1v3h360
q166 0 279.5 -111t113.5 -271q0 -159 -113.5 -270.5t-279.5 -111.5z" />
    <glyph glyph-name="E" unicode="E" horiz-adv-x="623" 
d="M32 -5v3q7 0 15 2t23 8.5t25 24t10 43.5v603q0 26 -9.5 43t-24 23.5t-23 8.5t-15.5 2h-1v4h518l25 -120l-11 -4q-1 4 -3.5 11t-11.5 25t-20.5 32t-31.5 25t-43 11h-201q-48 -2 -65 -17.5t-17 -43.5v-228h211q25 0 42 17.5t22 35.5l4 17h7v-160h-7q0 3 -1.5 7.5t-6.5 16.5
t-11.5 21.5t-19.5 17t-29 7.5h-115q-56 0 -76 -16t-20 -45v-292q0 -29 20 -45.5t76 -16.5l206 1q37 0 66.5 25t40.5 50l11 25h10l-31 -121z" />
    <glyph glyph-name="F" unicode="F" horiz-adv-x="556" 
d="M245 -4h-212v2q7 0 15.5 2t23.5 8t25 24t10 44v603q0 26 -9.5 43t-24 23.5t-23.5 8.5t-16 2h-1v4h519l24 -120l-10 -4q-1 4 -3.5 11t-12 25t-21 32t-31.5 25t-43 11h-201q-48 -2 -65 -17.5t-17 -43.5v-228h211q25 0 42 17.5t21 35.5l5 17h7v-160h-7q0 3 -1.5 7.5
t-6.5 16.5t-11.5 21.5t-19.5 17t-29 7.5h-115q-56 0 -76 -16t-20 -45v-294q0 -26 10 -43.5t25 -24t23 -8.5t15 -2v-2z" />
    <glyph glyph-name="G" unicode="G" horiz-adv-x="800" 
d="M405 -20q-166 0 -279 116t-113 282t113 282t279 116q186 0 266 -81l-18 -103h-8v7q0 40 -24 72t-61.5 50.5t-77.5 28.5t-77 10q-73 0 -134 -34t-100 -89t-60.5 -122.5t-21.5 -136.5q0 -93 35.5 -178.5t110 -144t170.5 -58.5q67 0 137 35t96 92q-1 59 -1 174q-2 23 -12 39
t-24 22t-22 7.5t-14 1.5h-1v3h213v-3h-1q-7 0 -16 -2t-23.5 -8.5t-24 -24t-9.5 -43.5l1 -276l-10 -17l-7 3q-11 37 -48 37q-25 0 -106 -28.5t-128 -28.5z" />
    <glyph glyph-name="H" unicode="H" horiz-adv-x="811" 
d="M773 -4h-209v2q7 0 15 2t23 8.5t25 24t10 43.5v229q0 29 -20.5 45t-76.5 16h-275q-56 0 -76 -16t-20 -45v-229q0 -26 10 -43.5t25 -24t23 -8.5t15 -2v-2h-209v2q7 0 15 2t23 8.5t25 24t10 43.5v603q0 26 -9.5 43.5t-24 24t-23 8.5t-15.5 2h-1v3h209v-3h-1q-7 0 -15.5 -2
t-23 -8.5t-24 -24t-9.5 -43.5v-287l468 -1v288q0 26 -9.5 43.5t-24 24t-23 8.5t-15.5 2h-1v3h209v-3h-1q-7 0 -16 -2t-23.5 -8.5t-24 -24t-9.5 -43.5v-603q0 -26 10 -44t25 -24t23.5 -8t15.5 -2v-2z" />
    <glyph glyph-name="I" unicode="I" horiz-adv-x="301" 
d="M269 -4h-235v2h1q5 0 12 0.5t21 5t25 12t19.5 23.5t8.5 37v603q0 26 -11 43.5t-28.5 24t-28 8.5t-18.5 2h-1v3h235v-3h-2q-9 0 -19.5 -2t-27 -8.5t-27 -23.5t-10.5 -42v-603q0 -22 9 -38.5t21.5 -24t25 -12t21.5 -5.5h9v-2z" />
    <glyph glyph-name="J" unicode="J" horiz-adv-x="280" 
d="M-27 -185v11q57 5 95.5 46.5t38.5 128.5v695q0 26 -21.5 43.5t-49.5 17.5h-2v3h209v-3q-3 0 -8 -0.5t-18 -3.5t-22.5 -8.5t-17.5 -18t-8 -29.5l1 -698q0 -88 -57.5 -133.5t-139.5 -50.5z" />
    <glyph glyph-name="K" unicode="K" horiz-adv-x="685" 
d="M34 -8v2q7 0 15 2t23 8.5t25 24t10 43.5v603q0 26 -9.5 44t-23.5 25.5t-23.5 10t-15.5 2.5h-1v3h214v-3h-2q-8 0 -16.5 -2t-22.5 -8.5t-23 -23.5t-9 -42v-278l312 307q6 9 6 16q0 14 -17.5 22.5t-28.5 8.5h-1l1 3h187l-1 -3h-5q-45 0 -78 -33l-248 -241l271 -402
q23 -35 55.5 -55t47 -22.5t25.5 -2.5l1 -4l-223 1l-1 3q40 0 40 31q0 18 -20 49l-241 357q-71 -71 -82 -80v-280q0 -26 10 -43.5t25 -24t23 -8.5t15 -2v-3q-35 0 -107 -2.5t-107 -2.5z" />
    <glyph glyph-name="L" unicode="L" horiz-adv-x="477" 
d="M439 -4h-406v2q7 0 15 2t23 8.5t25 24t10 43.5v603q0 26 -9.5 43.5t-24 24t-23 8.5t-15.5 2h-1v3h209v-3h-1q-7 0 -16 -2t-23.5 -8.5t-24 -24t-9.5 -43.5v-603q0 -32 14.5 -45.5t55.5 -13.5h103q37 0 66.5 25t40.5 50l11 25h10z" />
    <glyph glyph-name="M" unicode="M" horiz-adv-x="946" 
d="M905 -4h-209v2q7 0 15.5 2t23.5 8t25 24t10 44v597l-317 -677q-145 305 -321 679v-599q0 -26 10 -43.5t25 -24t23 -8.5t15 -2v-2h-172v2q7 0 15 2t23 8.5t25 24t10 43.5v603q0 26 -9.5 43.5t-24 24t-23 8.5t-15.5 2h-1v3h144l295 -632l305 632h128v-3h-1q-7 0 -15.5 -2
t-23 -8.5t-24 -24t-9.5 -43.5v-603q0 -26 10 -43.5t25 -24t23 -8.5t15 -2v-2z" />
    <glyph glyph-name="N" unicode="N" horiz-adv-x="761" 
d="M656 -4h-25q-44 64 -497 705l-1 -625q0 -26 10 -43.5t25 -24t23 -8.5t15 -2v-2h-173v2q7 0 15.5 2t23.5 8t25 24t10 44v603q0 26 -9.5 43.5t-24 24t-23.5 8.5t-16 2h-1v3h157l441 -623v542q0 26 -9.5 43.5t-24 24t-23.5 8.5t-16 2h-1v3h173v-3h-1q-7 0 -16 -2t-23.5 -8.5
t-24 -24t-9.5 -43.5v-683z" />
    <glyph glyph-name="O" unicode="O" horiz-adv-x="825" 
d="M395 -22q-158 0 -270 117t-112 282t112 282t270 117t269.5 -117t111.5 -282t-111.5 -282t-269.5 -117zM420 1q125 0 211.5 98t86.5 248q0 104 -46 197t-127 151t-176 58q-124 0 -211 -99t-87 -247q0 -161 103 -283.5t246 -122.5z" />
    <glyph glyph-name="P" unicode="P" horiz-adv-x="692" 
d="M418 396q82 0 127.5 54t45.5 127q0 67 -37.5 115t-102.5 48h-188q-86 0 -95 -46v-298h250zM241 -4h-208v3h1q4 0 9.5 0.5t17 5t20.5 11.5t16.5 22t8.5 35v611q-1 32 -19.5 50t-30.5 20.5t-22 2.5h-1v3h440q93 0 144.5 -53t51.5 -127q0 -83 -62 -145.5t-172 -63.5h-171
q-56 0 -76 -16t-20 -45v-234q0 -26 10 -43.5t25 -23.5t23 -8t15 -2v-3z" />
    <glyph glyph-name="Q" unicode="Q" horiz-adv-x="859" 
d="M526 27q172 91 172 350q0 142 -87.5 257.5t-213.5 115.5q-64 0 -122 -33.5t-98 -87t-63.5 -121t-23.5 -135.5q0 -251 178 -346q62 42 122 42q55 0 136 -42zM397 -5q29 0 56 7q-64 31 -104 31q-30 0 -53 -16q50 -22 101 -22zM688 -113q-45 0 -94 31q-90 56 -111 68
q-46 -11 -89 -11q-158 0 -270 116.5t-112 281.5q0 164 112 280.5t270 116.5t270 -116.5t112 -280.5q0 -120 -63 -218.5t-165 -145.5q12 -7 35.5 -22.5t36.5 -23.5q54 -34 101 -34q65 0 107 60q1 1 3 1q6 0 6 -5v-2q-62 -96 -149 -96z" />
    <glyph glyph-name="R" unicode="R" horiz-adv-x="768" 
d="M420 396q83 0 128 54t45 128q0 67 -37 115t-103 48h-187q-56 0 -76.5 -16t-20.5 -45v-284h251zM704 -5q-48 0 -70.5 17t-80.5 95q-13 17 -40.5 55.5t-41 55.5t-38.5 47t-42.5 44.5t-41.5 31.5t-48.5 23.5t-51.5 6.5h-1q-37 0 -58 -10t-21 -39v-245q0 -26 10 -43.5t25 -24
t23 -8.5t15 -2v-3h-208v3h1q4 0 9.5 0.5t17.5 5t21 11.5t16 22t8 35v611q-1 20 -8 35t-16 22t-21 11.5t-17.5 5t-9.5 0.5h-1v3h441q93 0 144.5 -53t51.5 -128q0 -83 -62 -145.5t-172 -63.5h-48q55 -21 104.5 -67.5t84.5 -97t67 -98.5t65.5 -79t66.5 -31h1v-2z" />
    <glyph glyph-name="S" unicode="S" horiz-adv-x="549" 
d="M270 -20h-7q-177 4 -245 136l41 92l7 -3q-7 -21 -7 -43q0 -70 63 -117.5t136 -47.5h3q79 0 136 41t64 124v9q0 74 -105 145q-29 19 -94.5 54t-105 58.5t-73.5 68t-34 97.5v3q0 87 64.5 132.5t159.5 46.5q67 0 126.5 -22.5t90.5 -61.5l-24 -99l-7 1l1 15q0 62 -56 101
t-131 43h-16q-67 0 -115 -30.5t-48 -89.5v-1q0 -29 10.5 -52t35 -43t44 -32t59 -32.5t57.5 -31.5q44 -26 65.5 -40t55 -40.5t49.5 -49t29 -56.5t13 -72q0 -10 -2 -32q-10 -85 -78 -128t-162 -43z" />
    <glyph glyph-name="T" unicode="T" horiz-adv-x="710" 
d="M444 -4h-209v3q7 0 15 2t23 8.5t25 24t10 43.5l-3 594q0 35 -16 47t-53 12l-61 1q-62 0 -100.5 -19.5t-59.5 -81.5h-10q15 62 38 148h10q27 -18 62 -18h448q16 0 31.5 4.5t23.5 9.5l8 4h10q10 -37 32 -148h-10q-21 62 -59.5 81.5t-100.5 19.5l-61 -1q-37 0 -53 -12
t-16 -47l3 -594q0 -26 10 -43.5t25 -24t23 -8.5t15 -2v-3z" />
    <glyph glyph-name="U" unicode="U" horiz-adv-x="748" 
d="M373 -20q-114 0 -197.5 76.5t-83.5 214.5v408q0 26 -10 43.5t-25 24t-23 8.5t-15 2v3h213v-3q-7 0 -15 -2t-23 -8.5t-25 -24t-10 -43.5v-408q0 -129 62 -197.5t152 -70.5h4q96 0 169.5 73t73.5 195v408q0 26 -10 43.5t-25 24t-23 8.5t-15 2v3h180v-3q-7 0 -15 -2
t-23 -8.5t-25 -24t-10 -43.5v-408q0 -136 -83.5 -213t-197.5 -78z" />
    <glyph glyph-name="V" unicode="V" horiz-adv-x="745" 
d="M403 -36h-7q-31 31 -72 32l-261 680q-14 36 -32 56.5t-25.5 23t-12.5 2.5v2h191v-2q-7 0 -16 -1.5t-22.5 -13t-13.5 -31.5q0 -17 8 -36l251 -653l254 653q8 20 8 36q0 20 -13.5 31.5t-22 13t-15.5 1.5v2h187v-2h-2q-13 0 -28 -3t-40.5 -22.5t-38.5 -53.5z" />
    <glyph glyph-name="W" unicode="W" horiz-adv-x="1033" 
d="M704 -37h-8q-24 32 -65 33l-89 271l-117 -304h-8q-24 31 -65 32l-261 680q-9 23 -23 39.5t-26.5 24.5t-27 12.5t-20 5t-9.5 0.5v2h227v-2q-7 0 -15.5 -1.5t-22 -13t-13.5 -31.5q0 -16 8 -36q134 -352 250 -653l111 284l-122 370q-14 36 -31.5 56.5t-25 23t-12.5 2.5v2
h190v-2q-7 0 -15.5 -1.5t-22 -13t-13.5 -31.5q0 -16 8 -36l85 -263l102 262q8 20 8 36q0 20 -13.5 31.5t-22 13t-15.5 1.5v2h165v-2h-2q-10 0 -22.5 -3t-34 -22.5t-34.5 -53.5l-118 -304l112 -348q52 122 136.5 352t111.5 298q8 20 8 38q0 19 -12 30t-20 12.5t-15 1.5v2h158
v-2h-2q-9 0 -20 -3t-31 -22.5t-33 -53.5z" />
    <glyph glyph-name="X" unicode="X" horiz-adv-x="678" 
d="M680 -4h-207v3q41 0 41 33q0 20 -17 47q-46 71 -158 254l-181 -269q-10 -20 -10 -33q0 -32 40 -32h1v-3h-176v3q4 0 8.5 0.5t18.5 4.5t27 11.5t29.5 23t30.5 37.5q35 54 101.5 152t91.5 135l-195 314q-21 35 -45.5 55t-34.5 22.5t-17 2.5v3h195v-3h-1q-39 0 -39 -32
q0 -13 9 -32l167 -272l184 271q10 20 10 34q0 31 -39 31h-1v3h160v-3h-2q-48 0 -97 -77q-32 -48 -98 -144.5t-98 -145.5l194 -311q22 -35 49 -55t39 -22.5t20 -2.5v-3z" />
    <glyph glyph-name="Y" unicode="Y" horiz-adv-x="558" 
d="M412 -4h-209v2q7 0 15 2t23 8.5t25 24t10 43.5v314l-203 293q-20 30 -45 48.5t-40 22.5l-15 3v3h188v-3h-1q-38 0 -38 -30q0 -14 10 -34l193 -279l164 274q8 16 8 30q0 16 -12.5 26t-24.5 12l-13 1v3h155v-3h-2q-43 0 -89 -77l-172 -289v-315q0 -26 10 -43.5t25 -24
t23 -8.5t15 -2v-2z" />
    <glyph glyph-name="Z" unicode="Z" horiz-adv-x="684" 
d="M613 -4h-587l15 23l499 722h-216q-234 0 -277 -155l-14 4l58 170h540l-14 -19l-500 -722h268q229 0 272 155l14 -4z" />
    <glyph glyph-name="bracketleft" unicode="[" horiz-adv-x="234" 
d="M224 -216h-190v1046h190v-56h-127v-934h127v-56z" />
    <glyph glyph-name="backslash" unicode="\" horiz-adv-x="471" 
d="M461 0h-68l-393 761h68z" />
    <glyph glyph-name="bracketright" unicode="]" horiz-adv-x="220" 
d="M189 -216h-189v56h126v934h-126v56h189v-1046z" />
    <glyph glyph-name="asciicircum" unicode="^" horiz-adv-x="313" 
d="M277 508l-124 126l-123 -126l-3 6l126 246l127 -246z" />
    <glyph glyph-name="underscore" unicode="_" horiz-adv-x="439" 
d="M0 -56v50h429v-50h-429z" />
    <glyph glyph-name="grave" unicode="`" horiz-adv-x="240" 
d="M226 635l-226 84v7q0 31 28 44l201 -128l1 -2q0 -5 -4 -5z" />
    <glyph glyph-name="a" unicode="a" horiz-adv-x="621" 
d="M85 204q0 -95 60.5 -148t144.5 -55h5q64 0 123.5 36.5t59.5 93.5v113q0 78 -50.5 120.5t-132.5 44.5h-2q-86 0 -147 -54t-61 -151zM117 436l-6 -1l-14 75q26 27 83.5 43t122.5 16h6q59 -1 108.5 -14t84 -44.5t35.5 -76.5v-374q0 -28 16.5 -45.5t43.5 -17.5h2v-3h-22
q-78 0 -99 -14v66q-78 -66 -190 -66q-106 1 -184.5 64.5t-78.5 159.5q0 97 79 161t184 64h7q107 -2 183 -67v41q-1 74 -50.5 110t-122.5 36h-13q-36 -2 -73.5 -13t-69.5 -37.5t-32 -62.5z" />
    <glyph glyph-name="b" unicode="b" horiz-adv-x="664" 
d="M85 691q0 21 -8 35t-20.5 19.5t-20 7t-12.5 1.5h-1v2q97 0 122 16v-268q81 66 188 66q125 0 212.5 -86.5t87.5 -209.5t-87.5 -208.5t-212.5 -85.5q-49 0 -104 19.5t-66 19.5q-34 -1 -77 -41l-1 1v712zM333 549q-97 0 -142.5 -52.5t-45.5 -142.5v-189q0 -81 51 -122.5
t138 -41.5q107 0 170.5 82.5t63.5 190.5q0 109 -64 192t-171 83z" />
    <glyph glyph-name="c" unicode="c" horiz-adv-x="551" 
d="M83 274q0 -109 63 -192t170 -83q59 0 116 29.5t66 81.5q1 5 1 14t-1 13l6 2l27 -71q-28 -40 -93.5 -65t-119.5 -25q-124 0 -211.5 86.5t-87.5 209.5t87.5 210t211.5 87q136 0 197 -61l-14 -74h-6v5q0 51 -53.5 80t-123.5 29q-72 0 -127 -41.5t-81.5 -103.5t-26.5 -131z
" />
    <glyph glyph-name="d" unicode="d" horiz-adv-x="664" 
d="M511 696q0 27 -15.5 42.5t-26 17.5t-19.5 2h-1v3h22q77 0 99 16v-713q0 -27 15.5 -43t26.5 -18t20 -2h1v-2h-2q-49 0 -80 -6q-25 -3 -40 -15v69q-83 -67 -189 -67q-124 0 -211.5 87t-87.5 210t87.5 209.5t211.5 86.5q108 0 189 -67v190zM511 357q0 87 -44.5 141.5
t-144.5 54.5q-106 0 -170 -84t-64 -192q0 -69 26.5 -131t81 -103.5t126.5 -41.5q84 0 136.5 45.5t52.5 120.5v190z" />
    <glyph glyph-name="e" unicode="e" horiz-adv-x="594" 
d="M300 -20h-3q-115 2 -194 92.5t-79 207.5q0 120 78.5 205.5t197.5 85.5q77 0 144 -41.5t103 -117.5q26 -57 28 -134h-492v-13q0 -122 65.5 -190t152.5 -72h6q62 0 115 37.5t53 93.5q0 6 -2 20l6 2l27 -72q-34 -49 -90 -76.5t-116 -27.5zM515 316q-9 96 -66.5 165
t-148.5 69q-92 0 -149 -69t-66 -165h430z" />
    <glyph glyph-name="f" unicode="f" horiz-adv-x="316" 
d="M224 -4h-184v3h3q11 0 22 2.5t24 16t13 36.5v495h-69v19h69v28q0 74 56 128t125 56h4q58 0 98 -41l-13 -75h-6v6q0 41 -26 66t-62 25q-47 0 -81.5 -41.5t-34.5 -122.5v-25h112v-19h-78q-14 0 -22 -8.5t-10 -16.5t-2 -14v-452q0 -27 16.5 -45t43.5 -18h2v-3z" />
    <glyph glyph-name="g" unicode="g" horiz-adv-x="646" 
d="M324 -315q90 0 160 56t70 144t-70 144t-160 56q-100 0 -165.5 -60.5t-65.5 -139.5q0 -88 70.5 -144t160.5 -56zM324 -335q-67 0 -133 23.5t-114 75.5t-48 121q0 70 51 123t124 78q-13 2 -24.5 16.5t-11.5 32.5q0 23 20 40q-59 26 -97.5 75.5t-38.5 110.5q0 92 77 152
t173 60q67 0 125 -29q29 24 73 43t89 19h10l-11 -69l-6 -2q-23 22 -57 22q-36 0 -78 -24q107 -65 107 -172q0 -92 -78 -151t-174 -59q-44 0 -85 12q-7 -7 -7 -17q0 -17 21.5 -30t51.5 -13h2q26 2 39 2q49 0 99.5 -14.5t94.5 -41t72 -69.5t28 -95q0 -69 -48 -121
t-113.5 -75.5t-132.5 -23.5zM287 166q85 0 145 62q61 63 61 148q0 75 -52 127q-53 53 -124 53q-85 0 -145 -62q-61 -63 -61 -148q0 -75 52 -127q53 -53 124 -53z" />
    <glyph glyph-name="h" unicode="h" horiz-adv-x="684" 
d="M484 -5v2q3 0 7.5 0.5t14 4t16.5 9t13 18t6 29.5v294q-4 95 -63.5 147t-141.5 53h-2q-80 0 -134.5 -49.5t-54.5 -147.5v-295q0 -27 16.5 -44t43.5 -17h2v-3h-184v3h1q9 0 20 2t26 16.5t15 39.5v639q0 27 -15.5 42.5t-26 17.5t-19.5 2h-1v3h26q75 0 96 14v-285
q36 40 89.5 61.5t112.5 21.5q102 -1 177 -59t78 -161v-293q0 -26 14 -41.5t24 -17.5t18 -2h1v-3z" />
    <glyph glyph-name="i" unicode="i" horiz-adv-x="245" 
d="M213 -4h-184v3h1q9 0 20 2t26.5 16.5t15.5 39.5v452q0 27 -15.5 43t-26.5 18t-20 2h-1v2q100 0 122 15v-532q0 -25 15 -39.5t26 -16.5t20 -2h1v-3zM124 631q-13 0 -22.5 10t-9.5 23t9.5 22.5t22.5 9.5q14 0 23.5 -9.5t9.5 -22.5q0 -14 -9.5 -23.5t-23.5 -9.5z" />
    <glyph glyph-name="j" unicode="j" horiz-adv-x="258" 
d="M-26 -189v9q56 5 92 46.5t36 128.5v513q0 27 -15.5 42.5t-26 17.5t-19.5 2h-1v2q97 0 122 17v-594q0 -89 -53.5 -134t-134.5 -50zM131 631q-13 0 -22.5 9.5t-9.5 23.5t9.5 23t22.5 9q14 0 23.5 -9.5t9.5 -22.5q0 -14 -10 -23.5t-23 -9.5z" />
    <glyph glyph-name="k" unicode="k" horiz-adv-x="565" 
d="M580 -4h-189q1 3 13.5 6t12.5 14q0 15 -23 41l-198 218l-50 -55v-163q0 -25 15 -39.5t26 -16.5t20 -2h1v-3h-185v3h1q9 0 20 2t26 16.5t15 39.5v639q0 27 -15.5 42.5t-26 17.5t-19.5 2h-1v3h16q85 0 107 14v-515l210 233q30 33 30 54t-36 25v3h174v-3q-7 0 -18.5 -1.5
t-42 -16.5t-54.5 -42l-179 -199l228 -254q24 -26 55 -41t44.5 -17t22.5 -2v-3z" />
    <glyph glyph-name="l" unicode="l" horiz-adv-x="239" 
d="M207 -4h-184v3h2q10 0 21 2.5t25 17t14 40.5v634q0 27 -15.5 42.5t-26 17.5t-19.5 2h-1v3q97 0 122 16v-713q0 -27 15.5 -42.5t26 -17.5t19.5 -2h1v-3z" />
    <glyph glyph-name="m" unicode="m" horiz-adv-x="1148" 
d="M1123 -4h-176v3h2q6 0 13 1.5t18 6.5t18 18.5t7 32.5v296q-4 95 -64.5 147t-143.5 52h-5q-78 -2 -130.5 -50t-52.5 -143l-1 -300q0 -20 7.5 -34t19 -19t18.5 -6.5t12 -1.5h1v-3h-174v3h2q6 0 13 1.5t18 6.5t18 18.5t7 32.5v296q-4 95 -65.5 147t-144.5 52h-2
q-79 -1 -132.5 -49t-53.5 -144v-300q0 -27 16 -44t44 -17h2v-3h-184v3h2q11 0 22 2.5t24.5 16t13.5 37.5v452q0 21 -8 35t-20.5 19.5t-20 7t-12.5 1.5h-1v2h22q78 2 100 16v-95q71 78 195 80h7q71 0 132 -29.5t94 -83.5q18 22 39 43q73 70 187 70h4q102 0 177.5 -57
t77.5 -160v-296q0 -20 7.5 -34t19 -19t18.5 -6.5t12 -1.5h1v-3z" />
    <glyph glyph-name="n" unicode="n" horiz-adv-x="688" 
d="M665 -4h-174v3h2q6 0 13 1.5t18 6.5t18 18.5t7 32.5v296q-4 95 -65 147t-144 52h-2q-79 0 -133 -49t-54 -145v-299q0 -27 16 -44t44 -17h2v-3h-183v2q7 0 17.5 1.5t27.5 17t17 42.5v452q0 42 -34 56l-28 6v3h24q78 0 97 12v-96q72 81 200 81q65 0 121.5 -24t95 -75
t39.5 -119v-295q0 -20 7.5 -34t19 -19t18.5 -6.5t12 -1.5h1v-3z" />
    <glyph glyph-name="o" unicode="o" horiz-adv-x="687" 
d="M337 1q109 0 179 83t70 193q0 111 -70 193.5t-179 82.5t-178.5 -82.5t-69.5 -193.5q0 -110 69.5 -193t178.5 -83zM337 -19q-128 0 -222.5 85t-94.5 211t94.5 211.5t222.5 85.5t222.5 -85.5t94.5 -211.5t-94.5 -211t-222.5 -85z" />
    <glyph glyph-name="p" unicode="p" horiz-adv-x="672" 
d="M97 -205v714q0 27 -15.5 43t-26.5 18t-20 2h-1v3h16q84 0 106 14v-77q81 64 186 64q83 0 156 -43.5t111 -120.5q32 -62 32 -132t-32 -132q-38 -78 -111.5 -123t-155.5 -45q-99 0 -186 67v-172q0 -21 8 -35t20.5 -19.5t20 -7t12.5 -1.5h1v-2q-100 0 -121 -15zM342 1
q106 0 170 85t64 194q0 108 -64 192t-170 84q-70 0 -128 -36.5t-58 -100.5v-261q0 -75 53 -116t133 -41z" />
    <glyph glyph-name="q" unicode="q" horiz-adv-x="668" 
d="M507 -205v254q-85 -69 -187 -69q-83 0 -156.5 44.5t-112.5 122.5q-31 64 -31 132q0 70 31 132q39 77 111.5 119.5t156.5 42.5q48 0 103 -19t66 -19h1q33 0 79 38v-698q0 -28 16 -43.5t27 -17.5t19 -2v-2q-101 0 -123 -15zM320 0q97 0 142 54.5t45 145.5v189
q0 81 -51 122.5t-137 41.5q-107 0 -171 -82.5t-64 -191.5q0 -108 65 -193.5t171 -85.5z" />
    <glyph glyph-name="r" unicode="r" horiz-adv-x="433" 
d="M213 -4h-183v3h3q11 0 22 2.5t24 16t13 36.5v452q0 39 -31 56q-14 6 -29 6h-2v3q92 0 121 18v-97q29 32 76 55.5t89 24.5h6q61 0 102 -41l-14 -74h-6v3q0 36 -29 67.5t-64 31.5h-1q-72 -1 -115.5 -63t-43.5 -139v-297q0 -27 16.5 -44t43.5 -17h2v-3z" />
    <glyph glyph-name="s" unicode="s" horiz-adv-x="511" 
d="M249 -19h-8q-161 2 -227 103l38 68l13 -5q-7 -17 -7 -34q0 -50 55 -81t122 -31h4q75 0 127 28.5t59 88.5v6q0 56 -98 109q-25 13 -70 32t-77.5 33.5t-66.5 35t-52 46.5t-19 58v1q0 66 60 100t148 35q62 0 117.5 -16.5t84.5 -45.5l-23 -74l-9 1l1 12q0 46 -50.5 74.5
t-120.5 31.5h-12q-64 0 -109 -22.5t-45 -66.5v-1q0 -21 10 -38.5t32.5 -32t40.5 -23.5t54.5 -24.5t53.5 -23.5q39 -18 61 -29t51.5 -30t45.5 -36.5t27.5 -42.5t11.5 -53l-2 -24q-9 -63 -72 -96t-149 -33z" />
    <glyph glyph-name="t" unicode="t" horiz-adv-x="292" 
d="M287 -36h-10q-69 0 -120.5 48.5t-51.5 116.5v425h-97v21h97v154q0 18 5 25t12.5 6.5t20 2.5t22.5 13v-201h98v-21h-98v-452q0 -52 35.5 -91.5t86.5 -45.5v-1z" />
    <glyph glyph-name="u" unicode="u" horiz-adv-x="690" 
d="M315 -20q-94 0 -162.5 51t-70.5 146v333q0 27 -15.5 42.5t-26 17.5t-19.5 2h-1v3h19q84 0 104 14v-411q4 -88 60 -132.5t134 -44.5h8q83 2 139 54.5t56 155.5v297q0 27 -15.5 42.5t-26 17.5t-19.5 2h-1v3h11q86 0 111 16v-527q0 -21 8 -35t20.5 -19.5t20 -7t12.5 -1.5h1
v-2q-97 0 -122 -16v95q-81 -89 -204 -95z" />
    <glyph glyph-name="v" unicode="v" horiz-adv-x="600" 
d="M315 -4h-47l-208 514q-10 26 -30 41.5t-31 17.5t-19 2h-1v3h177v-3h-1q-6 0 -12.5 -1t-16 -9.5t-9.5 -23.5q0 -11 6 -27l186 -460q163 392 194 471q2 12 2 16q0 34 -38 34h-1v3h143v-3h-3q-55 0 -79 -58z" />
    <glyph glyph-name="w" unicode="w" horiz-adv-x="871" 
d="M588 -4h-51l-109 268l-108 -268h-53l-208 514q-10 26 -30 41.5t-30.5 17.5t-18.5 2h-1v3h175v-3h-1q-6 0 -12.5 -1t-16 -9.5t-9.5 -23.5q0 -11 6 -27l190 -468l104 257l-86 211q-10 27 -31 42.5t-32 17.5t-18 2v2h172v-2q-5 0 -11.5 -1t-16.5 -9.5t-10 -23.5q0 -12 6 -28
l56 -139l61 152q4 9 4 19q0 16 -12.5 22.5t-23.5 6.5h-2v3h139v-3q-2 0 -6.5 -0.5t-16 -4t-21.5 -9.5t-21 -19t-18 -31l-69 -171l119 -294l197 479q2 6 2 17q0 33 -37 33h-1v3h145v-3h-8q-52 0 -74 -56zM619 572h-9v3h9v-3z" />
    <glyph glyph-name="x" unicode="x" horiz-adv-x="557" 
d="M545 -4h-171v3h1q26 0 26 22q0 15 -15 38q-23 35 -58 95.5t-55 91.5l-137 -198q-7 -15 -7 -25q0 -24 30 -24h1v-3h-145v3q59 0 97 58l142 207l-153 241q-17 28 -40.5 44.5t-38.5 18.5l-14 3v3h180v-2q-32 0 -32 -25q0 -10 7 -24l129 -205l140 204q7 15 7 25q0 25 -31 25
v2h145v-2h-4q-4 0 -9.5 -1t-13 -3t-16.5 -6t-18 -10t-18.5 -16t-17.5 -23l-150 -218l151 -236q17 -26 38.5 -41t31.5 -17t17 -2h1v-3z" />
    <glyph glyph-name="y" unicode="y" horiz-adv-x="609" 
d="M156 -207q-33 0 -68 16l-13 75l6 2q10 -30 33 -48.5t50 -18.5q58 0 87 73l26 63q0 13 -91 238t-128 313q-11 28 -31 44.5t-35 18.5l-15 2v3h179v-3h-1q-6 0 -12.5 -1t-16 -9.5t-9.5 -23.5q0 -11 6 -27l190 -468l197 479q2 12 2 16q0 34 -38 34h-1v3h145v-3h-4
q-54 0 -78 -58l-257 -628q-18 -44 -50.5 -68t-72.5 -24z" />
    <glyph glyph-name="z" unicode="z" horiz-adv-x="505" 
d="M448 -4h-414l325 517q4 5 4 12q0 14 -20 21.5t-50 7.5h-55q-37 0 -61 -3.5t-51 -14.5t-45.5 -35.5t-30.5 -63.5l-11 3l46 134h380l-322 -517q-3 -5 -3 -10q0 -13 15 -22t39 -9q15 0 47 -1t49 -1q73 0 122 20.5t69 80.5l11 -3z" />
    <glyph glyph-name="braceleft" unicode="{" horiz-adv-x="274" 
d="M264 -181q-51 9 -87.5 27t-57 44t-32.5 54t-16.5 67t-6 72.5t-3.5 81t-7 82.5q-3 26 -16.5 43t-25.5 21l-12 4q2 0 5 1t11.5 6t15.5 12t13.5 20t8.5 29q5 35 7 82.5t3.5 81t6 72.5t16.5 67t32.5 54t57 44t87.5 27v-16q-148 -47 -148 -200q0 -39 11.5 -110.5t11.5 -96.5
q0 -65 -54 -73q54 -3 54 -66q0 -25 -12.5 -98t-12.5 -115q0 -154 150 -201v-16z" />
    <glyph glyph-name="bar" unicode="|" horiz-adv-x="172" 
d="M107 -88h-45v940h45v-940z" />
    <glyph glyph-name="braceright" unicode="}" horiz-adv-x="274" 
d="M0 -181v16q150 47 150 201q0 42 -12.5 115t-12.5 98q0 63 54 66q-54 8 -54 73q0 25 11.5 96.5t11.5 110.5q0 153 -148 200v16q59 -11 99 -34.5t59 -51.5t29 -72t11.5 -80.5t4 -93.5t7.5 -96q3 -26 16.5 -43t25.5 -21l12 -4q-2 0 -5 -1t-11.5 -6t-15.5 -12t-13.5 -20
t-8.5 -29q-5 -39 -7.5 -96t-4 -93.5t-11.5 -80.5t-29 -72t-59 -51.5t-99 -34.5z" />
    <glyph glyph-name="asciitilde" unicode="~" horiz-adv-x="547" 
d="M382 289h-9q-60 0 -133.5 44t-114.5 44h-4q-53 0 -121 -46q76 87 146 87h3q50 -1 128.5 -43t122.5 -42h2q62 0 135 59q-71 -98 -155 -103z" />
    <glyph glyph-name="exclamdown" unicode="&#xa1;" horiz-adv-x="191" 
d="M92 -18q-17 0 -29.5 10.5t-12.5 25.5l25 701h32l28 -701q0 -15 -13 -25.5t-30 -10.5zM92 737q-11 0 -19.5 8.5t-8.5 19.5t8.5 19.5t19.5 8.5q12 0 20 -8.5t8 -19.5t-8 -19.5t-20 -8.5z" />
    <glyph glyph-name="cent" unicode="&#xa2;" horiz-adv-x="522" 
d="M158 57l191 508q-27 5 -50 5q-106 0 -170.5 -87.5t-64.5 -196.5q0 -65 24.5 -126.5t69.5 -102.5zM162 -60h-48l34 90q-68 40 -108 108t-40 148q0 123 87.5 209.5t211.5 86.5q27 0 56 -3l24 65h48l-27 -72q61 -15 96 -50l-14 -75h-6v5q0 33 -23 59t-61 41l-196 -523
q46 -27 103 -27q58 0 114.5 33.5t65.5 86.5l2 14l-2 13l6 1l27 -71q-27 -40 -93 -65t-120 -25t-111 21z" />
    <glyph glyph-name="sterling" unicode="&#xa3;" horiz-adv-x="492" 
d="M460 -4h-460q20 30 54.5 79t52 75t32 61t14.5 65l-1 11h-142v50h128q-15 35 -57 78q-59 59 -69 133l-2 27q0 86 64.5 147t168.5 62q62 0 123 -21t94 -64l-24 -100l-7 1l1 14q0 61 -56 105t-118 44q-87 0 -135.5 -54.5t-48.5 -131.5v-13q5 -75 52 -132q42 -53 59 -95h103
v-50h-91q0 -11 -1 -17q-3 -39 -25.5 -81.5t-76.5 -124.5q74 0 203 -1q20 0 29 1q69 1 97 12.5t47 47.5l14 -4z" />
    <glyph glyph-name="currency" unicode="&#xa4;" horiz-adv-x="302" 
d="M32 240q-9 0 -16 7t-7 16q0 7 5 12l42 39q-30 33 -30 79q0 42 23 71l-44 41q-5 4 -5 12q0 10 7 16q7 7 16 7q6 0 11 -5l41 -44q33 23 71 23t71 -23l41 44q5 5 12 5q8 0 15 -7q7 -6 7 -16q0 -8 -5 -12l-42 -43q21 -30 21 -69q0 -41 -23 -70l44 -41q5 -4 5 -12
q0 -10 -7 -16q-7 -7 -15 -7q-7 0 -12 5l-41 44q-33 -23 -71 -23q-33 0 -61 17l-41 -45q-5 -5 -12 -5zM146 303q38 0 64.5 26.5t26.5 63.5q0 38 -26.5 64.5t-64.5 26.5t-64.5 -26.5t-26.5 -64.5q0 -37 26.5 -63.5t64.5 -26.5z" />
    <glyph glyph-name="yen" unicode="&#xa5;" horiz-adv-x="640" 
d="M440 -4h-209v3q7 0 15 2t23 8.5t25 24t10 43.5v85h-110v37h110v80h-110v37h110v74l-203 294q-20 30 -45.5 48.5t-40.5 21.5l-15 4v3h189v-3q-5 0 -12 -1t-17 -9t-10 -21t10 -33l193 -280l164 274q8 19 8 30q0 17 -12.5 27t-24.5 11l-13 2l-1 3h155l1 -3h-4q-3 0 -7.5 -1
t-11 -3.5t-14 -8t-16 -13.5t-18.5 -21t-20 -30l-173 -289v-76h110v-37h-110v-80h110v-37h-110v-85q0 -26 10 -44t25 -24t23.5 -8t15.5 -2v-3z" />
    <glyph glyph-name="brokenbar" unicode="&#xa6;" horiz-adv-x="47" 
d="M37 470h-37v304h37v-304zM37 -16h-37v303h37v-303z" />
    <glyph glyph-name="section" unicode="&#xa7;" horiz-adv-x="598" 
d="M300 -13h-9q-202 2 -291 108l49 69l8 -2q-8 -18 -8 -32q0 -52 74.5 -87t161.5 -36h5q93 0 160.5 31t76.5 91l1 7q0 35 -50.5 64.5t-122.5 52.5t-144 48t-122.5 63t-51.5 86v2q0 60 73 97q-73 43 -73 100v2q0 44 38.5 75t97 44.5t130.5 14.5q80 0 151 -16.5t107 -46.5
l-28 -73l-9 1l1 11q0 46 -65 73t-155 29h-23q-81 0 -136.5 -20.5t-55.5 -63.5v-1q0 -31 37 -57t92.5 -43t120 -39.5t119.5 -45t92 -60t37 -85.5q0 -14 -3 -27q-9 -45 -55 -75q57 -44 57 -101q0 -15 -2 -23q-12 -64 -93.5 -99.5t-191.5 -35.5zM495 270q18 22 23 59l1 8
q0 43 -62.5 75t-170 66t-156.5 60q-40 -24 -40 -59q0 -34 45 -63t102.5 -47t135 -45.5t122.5 -53.5z" />
    <glyph glyph-name="dieresis" unicode="&#xa8;" horiz-adv-x="214" 
d="M32 761q13 0 22 -9.5t9 -22.5t-9 -22t-22 -9t-22.5 9t-9.5 22t9 22.5t23 9.5zM173 761q13 0 22 -9.5t9 -22.5t-9 -22t-22 -9t-22.5 9t-9.5 22t9.5 22.5t22.5 9.5z" />
    <glyph glyph-name="copyright" unicode="&#xa9;" horiz-adv-x="686" 
d="M337 192q-74 0 -132 51.5t-58 133.5q0 78 56.5 131t129.5 56h4q69 0 113 -45l-8 -45h-6v3q0 28 -27.5 46.5t-66.5 18.5h-5q-54 -2 -94 -42t-41 -121v-3q0 -66 34.5 -113.5t98.5 -48.5h2q40 0 69.5 20t29.5 49l-1 10l8 3l17 -43q-42 -61 -123 -61zM333 108q112 0 191 79
t79 191t-79 191t-191 79t-191 -79t-79 -191t79 -191t191 -79zM333 57q-133 0 -226.5 94t-93.5 227t93.5 226.5t226.5 93.5t227 -93.5t94 -226.5t-94 -227t-227 -94z" />
    <glyph glyph-name="ordfeminine" unicode="&#xaa;" horiz-adv-x="390" 
d="M175 406q43 0 76 22t33 55v71q0 48 -31 75t-75 27h-7q-47 -2 -81 -34.5t-34 -88.5v-6q2 -60 35.5 -90t80.5 -31h3zM284 389v41q-47 -41 -119 -41q-66 0 -115.5 40t-49.5 100q0 61 49.5 101t116.5 40h4q69 -2 114 -42v26q0 46 -30 68.5t-75 22.5q-45 -1 -80.5 -23.5
t-35.5 -57.5l-9 1l-8 56q39 40 132 40q64 0 113 -22t50 -63v-235q0 -18 10.5 -29t28.5 -11v-2h-14q-65 0 -82 -10z" />
    <glyph glyph-name="guillemotleft" unicode="&#xab;" horiz-adv-x="309" 
d="M187 228l-187 175l187 175l5 -4l-119 -171l119 -172zM294 228l-187 175l187 175l5 -4l-120 -171l119 -172z" />
    <glyph glyph-name="logicalnot" unicode="&#xac;" horiz-adv-x="437" 
d="M427 258h-42v113h-385v42h427v-155z" />
    <glyph glyph-name="registered" unicode="&#xae;" horiz-adv-x="652" 
d="M321 108q112 0 191 79t79 191t-79 191t-191 79t-191 -79t-79 -191t79 -191t191 -79zM364 386q36 0 56 22t20 52v2q0 29 -17 50t-47 21h-128l2 -147h114zM176 204v3h1q5 0 10.5 1.5t13.5 9.5t8 21v275q0 13 -8 21t-13.5 9.5t-10.5 1.5h-1v2q33 0 111.5 1t111.5 1
q42 0 65 -24t23 -57q0 -37 -27.5 -65t-77.5 -29h-33q30 -12 57.5 -41t43.5 -56t35 -48.5t37 -21.5h1v-2h-33q-24 0 -37 8.5t-38 41.5q-5 6 -14.5 19.5t-14.5 20t-14 18t-14.5 17t-13.5 14t-14.5 13t-14 9t-15 6.5t-15.5 2q-35 0 -35 -22v-111q0 -14 7.5 -22.5t13.5 -10
t11 -1.5h1v-2q-15 0 -53.5 -1t-53.5 -1zM321 57q-133 0 -227 94t-94 227t94 226.5t227 93.5t227 -93.5t94 -226.5t-94 -227t-227 -94z" />
    <glyph glyph-name="macron" unicode="&#xaf;" horiz-adv-x="337" 
d="M327 721h-327v39h327v-39z" />
    <glyph glyph-name="degree" unicode="&#xb0;" horiz-adv-x="154" 
d="M72 630q-29 0 -50.5 21t-21.5 51t21.5 51t50.5 21q30 0 51 -21t21 -51t-21 -51t-51 -21zM72 655q20 0 34 13.5t14 33.5t-14 33.5t-34 13.5t-33.5 -13.5t-13.5 -33.5t13.5 -33.5t33.5 -13.5z" />
    <glyph glyph-name="plusminus" unicode="&#xb1;" horiz-adv-x="502" 
d="M267 153h-42v225h-225v42h225v224h42v-224h225v-42h-225v-225zM409 69h-326v40h326v-40z" />
    <glyph glyph-name="twosuperior" unicode="&#xb2;" horiz-adv-x="262" 
d="M241 394h-239q15 23 50 64t60.5 72t46.5 77.5t21 90.5v2q0 35 -18.5 54.5t-49.5 19.5q-35 0 -61.5 -19.5t-26.5 -52.5v-7l-12 2l-12 50q33 44 109 44q47 -1 80.5 -23.5t37.5 -65.5v-10q0 -102 -170 -264h101q45 0 61 5.5t26 24.5l7 -2z" />
    <glyph glyph-name="threesuperior" unicode="&#xb3;" horiz-adv-x="261" 
d="M132 385h-7q-74 0 -109 50q-14 20 -16 45v3q0 23 15 25q7 0 13 -7t6 -18q2 -36 28.5 -56.5t60.5 -20.5h2q35 1 59.5 22.5t24.5 61.5q0 65 -56 81q-11 3 -24 3q-12 0 -24 -3q-6 1 -6 15q0 12 6 14h10q38 0 61 23.5t23 63.5q0 36 -21 61.5t-61 25.5q-31 -1 -55 -19.5
t-24 -48.5l1 -11l-14 -2l-15 50q29 44 104 48h5q45 0 82 -25.5t39 -69.5v-6q0 -36 -27 -63t-64 -37q48 -6 74 -32.5t28 -60.5v-5q0 -41 -32 -72t-87 -35z" />
    <glyph glyph-name="acute" unicode="&#xb4;" horiz-adv-x="240" 
d="M4 634q-4 0 -4 5q0 2 1 3l201 128q28 -13 28 -45v-7z" />
    <glyph glyph-name="mu" unicode="&#xb5;" horiz-adv-x="644" 
d="M115 -144h-53v662q0 28 -16 43.5t-27 17.5t-19 2v2q93 0 115 15v-409q4 -89 60.5 -136.5t134.5 -47.5h7q83 2 142.5 58.5t59.5 160.5v294q0 28 -16 43.5t-27 17.5t-19 2v2q93 0 115 15v-526q0 -27 15.5 -42.5t26 -17.5t19.5 -2h1v-3h-15q-78 0 -100 -14v96
q-40 -45 -103 -70t-129 -25q-110 0 -172 62v-200z" />
    <glyph glyph-name="paragraph" unicode="&#xb6;" horiz-adv-x="323" 
d="M313 -17h-45v745h-74v-669h-69v445q-52 2 -88.5 39.5t-36.5 89.5q0 53 37.5 90.5t90.5 37.5h185v-778z" />
    <glyph glyph-name="periodcentered" unicode="&#xb7;" horiz-adv-x="243" 
d="M124 289q-38 0 -64 26t-26 63t26.5 63t63.5 26t63 -26t26 -63t-26 -63t-63 -26z" />
    <glyph glyph-name="periodcentered" unicode="&#x2219;" horiz-adv-x="243" 
d="M124 289q-38 0 -64 26t-26 63t26.5 63t63.5 26t63 -26t26 -63t-26 -63t-63 -26z" />
    <glyph glyph-name="cedilla" unicode="&#xb8;" horiz-adv-x="171" 
d="M77 -178q-56 0 -77 33l25 32l15 -4v-3q0 -20 14.5 -33t33.5 -13h3q19 1 32 15.5t13 30.5v2q-2 36 -57 37q-35 0 -54 -7l36 82l21 -1l-17 -49q13 3 25 3q33 0 52 -18t19 -42v-2q-1 -30 -25.5 -46.5t-58.5 -16.5z" />
    <glyph glyph-name="onesuperior" unicode="&#xb9;" horiz-adv-x="128" 
d="M118 394h-118v2q35 0 37 35l1 298q0 3 -0.5 5t-1.5 3.5t-2 2.5t-3 1.5t-3.5 1t-5 0.5t-5.5 0.5t-6.5 0.5h-7.5v5q20 0 41 12.5t29 30.5l8 -7v-350q0 -17 9.5 -26.5t16 -11t11.5 -1.5v-2z" />
    <glyph glyph-name="ordmasculine" unicode="&#xba;" horiz-adv-x="298" 
d="M144 396q40 0 68 56t28 136t-28 136.5t-68 56.5t-68 -56.5t-28 -136.5t28 -136t68 -56zM144 385q-59 0 -101.5 59.5t-42.5 143.5t42.5 143.5t101.5 59.5q60 0 102 -59t42 -144q0 -84 -42 -143.5t-102 -59.5z" />
    <glyph glyph-name="guillemotright" unicode="&#xbb;" horiz-adv-x="308" 
d="M111 228l-4 3l119 172l-119 171l4 4l187 -175zM5 228l-5 3l119 172l-119 171l5 4l187 -175z" />
    <glyph glyph-name="onequarter" unicode="&#xbc;" horiz-adv-x="447" 
d="M437 -4h-122v1q35 0 37 35v69h-180l229 298v-265h32v-33h-32v-65q0 -17 9 -26.5t15.5 -11t11.5 -1.5v-1zM352 134v171l-129 -171h129zM118 394h-117v2q5 0 11 1t15 10t10 24l1 298q0 3 -0.5 5t-1.5 3.5t-2 2.5t-3 1.5t-3.5 1t-5 0.5t-5.5 0.5t-6.5 0.5h-7.5v5
q20 0 41 12.5t29 30.5l8 -7v-350q0 -17 9.5 -26.5t16 -11t11.5 -1.5v-2zM43 -1h-43l393 761h43z" />
    <glyph glyph-name="onehalf" unicode="&#xbd;" horiz-adv-x="541" 
d="M117 394h-117v2q35 0 37 35v298q0 3 -0.5 5t-1.5 3.5t-1.5 2.5t-2.5 1.5t-3.5 1t-5 0.5t-5.5 0.5t-6.5 0.5h-7.5l-1 5q21 0 42 12.5t29 30.5l8 -7v-350q0 -17 9 -26.5t15.5 -11t11.5 -1.5v-2zM43 -1h-43l393 761h43zM281 -5q15 23 50 64.5t60.5 72.5t46.5 77t21 91v2
q0 35 -18.5 54.5t-49.5 19.5q-36 -1 -62 -20t-26 -52v-7l-12 1l-12 51q32 43 108 43q47 0 81 -22.5t38 -66.5v-10q0 -102 -170 -264h101q44 0 60 5.5t27 25.5l7 -2l-11 -62z" />
    <glyph glyph-name="threequarters" unicode="&#xbe;" horiz-adv-x="516" 
d="M506 -4h-123v1q35 0 37 35v69h-180l229 298v-265h32v-33h-32v-65q0 -17 9.5 -26.5t16 -11t11.5 -1.5v-1zM420 134l1 171l-129 -171h128zM111 -1h-43l393 761h43zM132 385h-7q-74 0 -109 50q-15 23 -16 45v3q0 23 16 25q17 0 19 -25q2 -36 28 -56.5t60 -20.5h2
q35 1 59.5 22.5t24.5 61.5q0 65 -56 81q-11 3 -23 3q-13 0 -25 -3q-6 1 -6 15q0 12 6 14h10q38 0 61 23.5t24 63.5q0 36 -21.5 61.5t-60.5 25.5q-32 -1 -56 -19.5t-24 -48.5l1 -11l-14 -2l-15 50q30 44 105 48h5q45 0 81.5 -25.5t39.5 -69.5v-5q0 -36 -27 -63.5t-64 -37.5
q48 -6 74 -32.5t28 -60.5v-4q0 -40 -32.5 -72t-87.5 -36z" />
    <glyph glyph-name="questiondown" unicode="&#xbf;" horiz-adv-x="474" 
d="M240 -18q-96 0 -168 52t-72 156q0 50 25.5 104.5t62 103.5l73 98t62 105t25.5 108v5h37l1 -22q0 -58 -21 -115t-51.5 -102.5t-61 -89t-51.5 -90.5t-21 -90v-6q3 -98 52 -145t112 -47h3q45 0 78.5 24t35.5 61v9q0 17 -4.5 48.5t-4.5 44.5q0 44 43 45h3q30 0 48 -24t18 -60
q0 -65 -57 -118.5t-167 -54.5zM265 728q-13 0 -21.5 8.5t-8.5 21.5q0 12 8.5 21t21.5 9q12 0 21 -9t9 -21q0 -13 -9 -21.5t-21 -8.5z" />
    <glyph glyph-name="Agrave" unicode="&#xc0;" 
d="M53 77l263 678q23 5 34.5 11.5t24.5 25.5h7q182 -474 273 -712q9 -22 21.5 -38.5t23.5 -24.5t23 -12.5t17.5 -5t9.5 -0.5v-3h-207v2q7 0 15.5 1.5t22 13t13.5 31.5q0 16 -8 36l-50 133q-27 49 -115 49h-269l-70 -182q-8 -20 -8 -36q0 -20 13.5 -31.5t22 -13t15.5 -1.5v-2
h-166v2h1q7 0 15.5 2t23.5 8.5t29.5 24.5t24.5 44zM506 291l-170 442l-172 -442h342zM446 784l-226 84l-1 7q0 31 29 44l201 -128l1 -2q0 -5 -4 -5z" />
    <glyph glyph-name="Aacute" unicode="&#xc1;" 
d="M53 77l263 678q23 5 34.5 11.5t24.5 25.5h7q182 -474 273 -712q9 -22 21.5 -38.5t23.5 -24.5t23 -12.5t17.5 -5t9.5 -0.5v-3h-207v2q7 0 15.5 1.5t22 13t13.5 31.5q0 16 -8 36l-50 133q-27 49 -115 49h-269l-70 -182q-8 -20 -8 -36q0 -20 13.5 -31.5t22 -13t15.5 -1.5v-2
h-166v2h1q7 0 15.5 2t23.5 8.5t29.5 24.5t24.5 44zM507 291l-170 442l-173 -442h343zM225 784q-5 0 -5 5l1 2l201 128q29 -13 29 -44l-1 -7z" />
    <glyph glyph-name="Acircumflex" unicode="&#xc2;" 
d="M53 77l263 678q23 5 34.5 11.5t24.5 25.5h7q182 -474 273 -712q9 -22 21.5 -38.5t23.5 -24.5t23 -12.5t17.5 -5t9.5 -0.5v-3h-207v2q7 0 15.5 1.5t22 13t13.5 31.5q0 16 -8 36l-50 133q-27 49 -115 49h-269l-70 -182q-8 -20 -8 -36q0 -20 13.5 -31.5t22 -13t15.5 -1.5v-2
h-166v2h1q7 0 15.5 2t23.5 8.5t29.5 24.5t24.5 44zM506 291l-170 442l-172 -442h342zM485 783h-1l-121 74l-119 -73h-1q-4 0 -4 5l1 2l123 129l125 -131l1 -2q0 -4 -4 -4z" />
    <glyph glyph-name="Atilde" unicode="&#xc3;" 
d="M53 77l263 678q23 5 34.5 11.5t24.5 25.5h7q182 -474 273 -712q9 -22 21.5 -38.5t23.5 -24.5t23 -12.5t17.5 -5t9.5 -0.5v-3h-207v2q7 0 15.5 1.5t22 13t13.5 31.5q0 16 -8 36l-50 133q-27 49 -115 49h-269l-70 -182q-8 -20 -8 -36q0 -20 13.5 -31.5t22 -13t15.5 -1.5v-2
h-166v2h1q7 0 15.5 2t23.5 8.5t29.5 24.5t24.5 44zM506 291l-170 442l-172 -442h342zM438 835h-5q-33 0 -73.5 24t-62.5 24h-3q-29 0 -65 -25q43 48 81 48q28 -1 71 -24t68 -23q33 0 73 32q-38 -53 -84 -56z" />
    <glyph glyph-name="Adieresis" unicode="&#xc4;" 
d="M53 77l263 678q23 5 34.5 11.5t24.5 25.5h7q182 -474 273 -712q9 -22 21.5 -38.5t23.5 -24.5t23 -12.5t17.5 -5t9.5 -0.5v-3h-207v2q7 0 15.5 1.5t22 13t13.5 31.5q0 16 -8 36l-50 133q-27 49 -115 49h-269l-70 -182q-8 -20 -8 -36q0 -20 13.5 -31.5t22 -13t15.5 -1.5v-2
h-166v2h1q7 0 15.5 2t23.5 8.5t29.5 24.5t24.5 44zM506 291l-170 442l-172 -442h342zM277 847q-13 0 -22.5 9.5t-9.5 22.5t9.5 22t22.5 9t22 -9t9 -22t-9 -22.5t-22 -9.5zM418 847q-13 0 -22 9.5t-9 22.5t9 22t22 9t22.5 -9t9.5 -22t-9.5 -22.5t-22.5 -9.5z" />
    <glyph glyph-name="Aring" unicode="&#xc5;" 
d="M506 291l-170 442l-172 -442h342zM346 804q20 0 33.5 14t13.5 33q0 20 -14 34t-33 14t-33 -14t-14 -34q0 -19 13.5 -33t33.5 -14zM383 789q182 -472 272 -709q13 -30 27 -46q15 -16 30 -24q13 -7 25 -9q3 0 6 -0.5t5 -0.5l2 -1v-3h-207v2q4 0 9 1q12 2 18 5q11 5 17 14
q7 8 7 26q0 12 -8 36l-50 133q-11 22 -35 35q-26 14 -80 14h-269l-70 -182q-8 -24 -8 -36q0 -16 8 -26q7 -10 17 -14q5 -3 17 -5q5 -1 9 -1v-2h-166v2h1q7 0 22 4q16 4 36 21t35 54l263 678q23 5 34 11q5 3 18 16q-11 -3 -22 -3q-30 0 -51 21t-21 51t21 51t51 21t51 -21
t21 -51t-21 -51q-7 -7 -14 -11z" />
    <glyph glyph-name="AE" unicode="&#xc6;" horiz-adv-x="966" 
d="M456 290v445q-21 -38 -248 -445h248zM383 -6v4h1q7 0 15.5 2t23 8.5t24 23.5t9.5 43v186h-264l-101 -181q-15 -27 -15 -47q0 -35 43 -35v-3h-181v3h2q11 0 24 3t38.5 22.5t43.5 53.5l333 598q14 27 14 45q0 16 -11.5 25t-19 10.5t-13.5 1.5l1 2l551 1l25 -121l-11 -3
q-1 4 -3.5 11t-11.5 25t-20.5 32t-31.5 25t-43 11h-201q-48 -3 -65 -18.5t-17 -42.5v-228h210q26 0 43 17.5t21 34.5l5 17h7v-160h-7q0 3 -1.5 7.5t-6.5 16.5t-11.5 21.5t-20 17t-29.5 7.5h-114q-56 0 -76 -16t-20 -45v-292q0 -29 20 -45t76 -16h206q37 0 66 25t40 50l11 25
h11l-31 -121z" />
    <glyph glyph-name="Ccedilla" unicode="&#xc7;" horiz-adv-x="707" 
d="M412 -178q-56 0 -77 33l24 32l15 -5v-3q0 -20 15 -33t34 -13h3q18 2 31 16t13 30v2q-1 16 -15 26.5t-41 11.5q-33 0 -55 -8l30 70q-159 7 -267 121.5t-108 275.5q0 165 114 280.5t280 115.5q185 0 265 -81l-18 -100l-8 1v6q0 69 -73.5 113.5t-165.5 44.5
q-73 0 -134.5 -34t-100.5 -89t-60.5 -121.5t-21.5 -135.5q0 -93 36 -178.5t110 -144t171 -58.5q78 0 154 45t88 116l2 18l-2 18l8 2l37 -95q-36 -53 -122.5 -86t-160.5 -34l-13 -38q13 3 25 3q33 0 52 -18t19 -42v-2q-1 -30 -25.5 -46t-57.5 -16z" />
    <glyph glyph-name="Egrave" unicode="&#xc8;" horiz-adv-x="623" 
d="M32 -5v3q7 0 15 2t23 8.5t25 24t10 43.5v603q0 26 -9.5 43t-24 23.5t-23 8.5t-15.5 2h-1v4h518l25 -120l-11 -4q-1 4 -3.5 11t-11.5 25t-20.5 32t-31.5 25t-43 11h-201q-48 -2 -65 -17.5t-17 -43.5v-228h211q25 0 42 17.5t22 35.5l4 17h7v-160h-7q0 3 -1.5 7.5t-6.5 16.5
t-11.5 21.5t-19.5 17t-29 7.5h-115q-56 0 -76 -16t-20 -45v-292q0 -29 20 -45.5t76 -16.5l206 1q37 0 66.5 25t40.5 50l11 25h10l-31 -121zM424 784l-226 84v7q0 31 28 44l201 -128l1 -2q0 -5 -4 -5z" />
    <glyph glyph-name="Eacute" unicode="&#xc9;" horiz-adv-x="623" 
d="M32 -5v3q7 0 15 2t23 8.5t25 24t10 43.5v603q0 26 -9.5 43t-24 23.5t-23 8.5t-15.5 2h-1v4h518l25 -120l-11 -4q-1 4 -3.5 11t-11.5 25t-20.5 32t-31.5 25t-43 11h-201q-48 -2 -65 -17.5t-17 -43.5v-228h211q25 0 42 17.5t22 35.5l4 17h7v-160h-7q0 3 -1.5 7.5t-6.5 16.5
t-11.5 21.5t-19.5 17t-29 7.5h-115q-56 0 -76 -16t-20 -45v-292q0 -29 20 -45.5t76 -16.5l206 1q37 0 66.5 25t40.5 50l11 25h10l-31 -121zM237 784q-4 0 -4 5l1 2l201 128q28 -13 28 -44v-7z" />
    <glyph glyph-name="Ecircumflex" unicode="&#xca;" horiz-adv-x="623" 
d="M32 -5v3q7 0 15 2t23 8.5t25 24t10 43.5v603q0 26 -9.5 43t-24 23.5t-23 8.5t-15.5 2h-1v4h518l25 -120l-11 -4q-1 4 -3.5 11t-11.5 25t-20.5 32t-31.5 25t-43 11h-201q-48 -2 -65 -17.5t-17 -43.5v-228h211q25 0 42 17.5t22 35.5l4 17h7v-160h-7q0 3 -1.5 7.5t-6.5 16.5
t-11.5 21.5t-19.5 17t-29 7.5h-115q-56 0 -76 -16t-20 -45v-292q0 -29 20 -45.5t76 -16.5l206 1q37 0 66.5 25t40.5 50l11 25h10l-31 -121zM455 783h-1l-121 74l-119 -73h-1q-4 0 -4 5l1 2l123 129l125 -131l1 -2q0 -4 -4 -4z" />
    <glyph glyph-name="Edieresis" unicode="&#xcb;" horiz-adv-x="623" 
d="M32 -5v3q7 0 15 2t23 8.5t25 24t10 43.5v603q0 26 -9.5 43t-24 23.5t-23 8.5t-15.5 2h-1v4h518l25 -120l-11 -4q-1 4 -3.5 11t-11.5 25t-20.5 32t-31.5 25t-43 11h-201q-48 -2 -65 -17.5t-17 -43.5v-228h211q25 0 42 17.5t22 35.5l4 17h7v-160h-7q0 3 -1.5 7.5t-6.5 16.5
t-11.5 21.5t-19.5 17t-29 7.5h-115q-56 0 -76 -16t-20 -45v-292q0 -29 20 -45.5t76 -16.5l206 1q37 0 66.5 25t40.5 50l11 25h10l-31 -121zM256 847q-13 0 -22.5 9.5t-9.5 22.5t9.5 22t22.5 9t22 -9t9 -22t-9 -22.5t-22 -9.5zM397 847q-13 0 -22 9.5t-9 22.5t9 22t22 9
t22.5 -9t9.5 -22t-9.5 -22.5t-22.5 -9.5z" />
    <glyph glyph-name="Igrave" unicode="&#xcc;" horiz-adv-x="301" 
d="M269 -4h-235v2h1q5 0 12 0.5t21 5t25 12t19.5 23.5t8.5 37v603q0 26 -11 43.5t-28.5 24t-28 8.5t-18.5 2h-1v3h235v-3h-2q-9 0 -19.5 -2t-27 -8.5t-27 -23.5t-10.5 -42v-603q0 -22 9 -38.5t21.5 -24t25 -12t21.5 -5.5h9v-2zM272 784l-226 84v7q0 31 28 44l201 -128l1 -2
q0 -5 -4 -5z" />
    <glyph glyph-name="Iacute" unicode="&#xcd;" horiz-adv-x="301" 
d="M269 -4h-235v2h1q5 0 12 0.5t21 5t25 12t19.5 23.5t8.5 37v603q0 26 -11 43.5t-28.5 24t-28 8.5t-18.5 2h-1v3h235v-3h-2q-9 0 -19.5 -2t-27 -8.5t-27 -23.5t-10.5 -42v-603q0 -22 9 -38.5t21.5 -24t25 -12t21.5 -5.5h9v-2zM51 784q-4 0 -4 5l1 2l201 128q28 -13 28 -44
v-7z" />
    <glyph glyph-name="Icircumflex" unicode="&#xce;" horiz-adv-x="301" 
d="M269 -4h-235v2h1q5 0 12 0.5t21 5t25 12t19.5 23.5t8.5 37v603q0 26 -11 43.5t-28.5 24t-28 8.5t-18.5 2h-1v3h235v-3h-2q-9 0 -19.5 -2t-27 -8.5t-27 -23.5t-10.5 -42v-603q0 -22 9 -38.5t21.5 -24t25 -12t21.5 -5.5h9v-2zM291 783h-1l-121 74l-119 -73h-1q-4 0 -4 5
l1 2l123 129l125 -131l1 -2q0 -4 -4 -4z" />
    <glyph glyph-name="Idieresis" unicode="&#xcf;" horiz-adv-x="301" 
d="M269 -4h-235v2h1q5 0 12 0.5t21 5t25 12t19.5 23.5t8.5 37v603q0 26 -11 43.5t-28.5 24t-28 8.5t-18.5 2h-1v3h235v-3h-2q-9 0 -19.5 -2t-27 -8.5t-27 -23.5t-10.5 -42v-603q0 -22 9 -38.5t21.5 -24t25 -12t21.5 -5.5h9v-2zM97 847q-13 0 -22.5 9.5t-9.5 22.5t9.5 22
t22.5 9t22 -9t9 -22t-9 -22.5t-22 -9.5zM238 847q-13 0 -22 9.5t-9 22.5t9 22t22 9t22.5 -9t9.5 -22t-9.5 -22.5t-22.5 -9.5z" />
    <glyph glyph-name="Eth" unicode="&#xd0;" horiz-adv-x="832" 
d="M405 16q73 0 134 32t100 84t60.5 116t21.5 130q0 140 -86.5 250.5t-229.5 111.5l-225 -1v-342h146v-39h-146v-342h225zM405 -5h-361v3h1q7 0 16 2t23.5 8.5t24 24t9.5 43.5v282h-71v39h71v282q0 26 -10 44t-25 24t-23.5 8t-15.5 2v3h361q166 0 279 -111.5t113 -270.5
q0 -160 -113 -271.5t-279 -111.5z" />
    <glyph glyph-name="Ntilde" unicode="&#xd1;" horiz-adv-x="761" 
d="M656 -4h-25q-44 64 -497 705l-1 -625q0 -26 10 -43.5t25 -24t23 -8.5t15 -2v-2h-173v2q7 0 15.5 2t23.5 8t25 24t10 44v603q0 26 -9.5 43.5t-24 24t-23.5 8.5t-16 2h-1v3h157l441 -623v542q0 26 -9.5 43.5t-24 24t-23.5 8.5t-16 2h-1v3h173v-3h-1q-7 0 -16 -2t-23.5 -8.5
t-24 -24t-9.5 -43.5v-683zM444 835h-5q-33 0 -73.5 24t-62.5 24h-3q-29 0 -65 -25q43 48 81 48q28 -1 71 -24t68 -23q33 0 73 32q-38 -53 -84 -56z" />
    <glyph glyph-name="Ograve" unicode="&#xd2;" horiz-adv-x="825" 
d="M395 -18q-158 0 -270 116.5t-112 280.5t112 280.5t270 116.5t269.5 -116.5t111.5 -280.5t-111.5 -280.5t-269.5 -116.5zM420 5q125 0 211.5 98t86.5 246q0 104 -46 196.5t-127 150t-176 57.5q-124 0 -211 -98.5t-87 -245.5q0 -160 103 -282t246 -122zM537 784l-226 84v7
q0 31 28 44l201 -128l1 -2q0 -5 -4 -5z" />
    <glyph glyph-name="Oacute" unicode="&#xd3;" horiz-adv-x="825" 
d="M395 -18q-158 0 -270 116.5t-112 280.5t112 280.5t270 116.5t269.5 -116.5t111.5 -280.5t-111.5 -280.5t-269.5 -116.5zM420 5q125 0 211.5 98t86.5 246q0 104 -46 196.5t-127 150t-176 57.5q-124 0 -211 -98.5t-87 -245.5q0 -160 103 -282t246 -122zM294 784q-4 0 -4 5
l1 2l201 128q28 -13 28 -44v-7z" />
    <glyph glyph-name="Ocircumflex" unicode="&#xd4;" horiz-adv-x="825" 
d="M395 -18q-158 0 -270 116.5t-112 280.5t112 280.5t270 116.5t269.5 -116.5t111.5 -280.5t-111.5 -280.5t-269.5 -116.5zM420 5q125 0 211.5 98t86.5 246q0 104 -46 196.5t-127 150t-176 57.5q-124 0 -211 -98.5t-87 -245.5q0 -160 103 -282t246 -122zM538 783h-1l-121 74
l-119 -73h-1q-4 0 -4 5l1 2l123 129l125 -131l1 -2q0 -4 -4 -4z" />
    <glyph glyph-name="Otilde" unicode="&#xd5;" horiz-adv-x="825" 
d="M395 -18q-158 0 -270 116.5t-112 280.5t112 280.5t270 116.5t269.5 -116.5t111.5 -280.5t-111.5 -280.5t-269.5 -116.5zM420 5q125 0 211.5 98t86.5 246q0 104 -46 196.5t-127 150t-176 57.5q-124 0 -211 -98.5t-87 -245.5q0 -160 103 -282t246 -122zM487 835h-5
q-33 0 -73.5 24t-62.5 24h-3q-29 0 -65 -25q43 48 81 48q28 -1 71 -24t68 -23q33 0 73 32q-38 -53 -84 -56z" />
    <glyph glyph-name="Odieresis" unicode="&#xd6;" horiz-adv-x="825" 
d="M395 -18q-158 0 -270 116.5t-112 280.5t112 280.5t270 116.5t269.5 -116.5t111.5 -280.5t-111.5 -280.5t-269.5 -116.5zM420 5q125 0 211.5 98t86.5 246q0 104 -46 196.5t-127 150t-176 57.5q-124 0 -211 -98.5t-87 -245.5q0 -160 103 -282t246 -122zM347 847
q-13 0 -22.5 9.5t-9.5 22.5t9.5 22t22.5 9t22 -9t9 -22t-9 -22.5t-22 -9.5zM488 847q-13 0 -22 9.5t-9 22.5t9 22t22 9t22.5 -9t9.5 -22t-9.5 -22.5t-22.5 -9.5z" />
    <glyph glyph-name="multiply" unicode="&#xd7;" horiz-adv-x="387" 
d="M347 189l-159 159l-158 -159l-30 30l158 159l-158 158l30 30l158 -159l159 159l30 -30l-159 -158l159 -159z" />
    <glyph glyph-name="Oslash" unicode="&#xd8;" horiz-adv-x="858" 
d="M423 -19q-136 0 -243 92l-69 -75h-68l101 110q-102 115 -102 270q0 165 111.5 281.5t269.5 116.5q140 0 246 -95l71 78h68l-103 -113q99 -113 99 -268q0 -164 -111.5 -280.5t-269.5 -116.5zM448 4q28 0 56 6q108 22 175 117.5t67 220.5q0 49 -10 95q-19 88 -70 160
l-451 -491q103 -108 233 -108zM183 150l451 493q-104 110 -236 110q-28 0 -56 -6q-108 -22 -175 -117.5t-67 -221.5q0 -49 10 -95q21 -91 73 -163z" />
    <glyph glyph-name="Ugrave" unicode="&#xd9;" horiz-adv-x="748" 
d="M373 -20q-114 0 -197.5 76.5t-83.5 214.5v408q0 26 -10 43.5t-25 24t-23 8.5t-15 2v3h213v-3q-7 0 -15 -2t-23 -8.5t-25 -24t-10 -43.5v-408q0 -129 62 -197.5t152 -70.5h4q96 0 169.5 73t73.5 195v408q0 26 -10 43.5t-25 24t-23 8.5t-15 2v3h180v-3q-7 0 -15 -2
t-23 -8.5t-25 -24t-10 -43.5v-408q0 -136 -83.5 -213t-197.5 -78zM484 784l-226 84v7q0 31 28 44l201 -128l1 -2q0 -5 -4 -5z" />
    <glyph glyph-name="Uacute" unicode="&#xda;" horiz-adv-x="748" 
d="M373 -20q-114 0 -197.5 76.5t-83.5 214.5v408q0 26 -10 43.5t-25 24t-23 8.5t-15 2v3h213v-3q-7 0 -15 -2t-23 -8.5t-25 -24t-10 -43.5v-408q0 -129 62 -197.5t152 -70.5h4q96 0 169.5 73t73.5 195v408q0 26 -10 43.5t-25 24t-23 8.5t-15 2v3h180v-3q-7 0 -15 -2
t-23 -8.5t-25 -24t-10 -43.5v-408q0 -136 -83.5 -213t-197.5 -78zM310 784q-4 0 -4 5l1 2l201 128q28 -13 28 -44v-7z" />
    <glyph glyph-name="Ucircumflex" unicode="&#xdb;" horiz-adv-x="748" 
d="M373 -20q-114 0 -197.5 76.5t-83.5 214.5v408q0 26 -10 43.5t-25 24t-23 8.5t-15 2v3h213v-3q-7 0 -15 -2t-23 -8.5t-25 -24t-10 -43.5v-408q0 -129 62 -197.5t152 -70.5h4q96 0 169.5 73t73.5 195v408q0 26 -10 43.5t-25 24t-23 8.5t-15 2v3h180v-3q-7 0 -15 -2
t-23 -8.5t-25 -24t-10 -43.5v-408q0 -136 -83.5 -213t-197.5 -78zM516 783h-1l-121 74l-119 -73h-1q-4 0 -4 5l1 2l123 129l125 -131l1 -2q0 -4 -4 -4z" />
    <glyph glyph-name="Udieresis" unicode="&#xdc;" horiz-adv-x="748" 
d="M373 -20q-114 0 -197.5 76.5t-83.5 214.5v408q0 26 -10 43.5t-25 24t-23 8.5t-15 2v3h213v-3q-7 0 -15 -2t-23 -8.5t-25 -24t-10 -43.5v-408q0 -129 62 -197.5t152 -70.5h4q96 0 169.5 73t73.5 195v408q0 26 -10 43.5t-25 24t-23 8.5t-15 2v3h180v-3q-7 0 -15 -2
t-23 -8.5t-25 -24t-10 -43.5v-408q0 -136 -83.5 -213t-197.5 -78zM443 835h-5q-33 0 -73.5 24t-62.5 24h-3q-29 0 -65 -25q43 48 81 48q28 -1 71 -24t68 -23q33 0 73 32q-38 -53 -84 -56z" />
    <glyph glyph-name="Yacute" unicode="&#xdd;" horiz-adv-x="558" 
d="M412 -4h-209v2q7 0 15 2t23 8.5t25 24t10 43.5v314l-203 293q-20 30 -45 48.5t-40 22.5l-15 3v3h188v-3h-1q-38 0 -38 -30q0 -14 10 -34l193 -279l164 274q8 16 8 30q0 16 -12.5 26t-24.5 12l-13 1v3h155v-3h-2q-43 0 -89 -77l-172 -289v-315q0 -26 10 -43.5t25 -24
t23 -8.5t15 -2v-2zM234 784q-4 0 -4 5l1 2l201 128q28 -13 28 -44v-7z" />
    <glyph glyph-name="Thorn" unicode="&#xde;" horiz-adv-x="689" 
d="M414 296q83 0 128 54t45 128q0 67 -37.5 115.5t-102.5 48.5h-189q-86 0 -95 -47v-299h251zM236 -6h-209v3h1q4 0 9.5 0.5t17.5 5t21 11.5t16 22t8 35v690h63v-99h305q93 0 145 -53.5t52 -127.5q0 -83 -62 -146t-172 -64h-172q-56 0 -76 -16t-20 -45v-136q0 -26 10 -43.5
t25 -23.5t23 -8t15 -2v-3z" />
    <glyph glyph-name="germandbls" unicode="&#xdf;" horiz-adv-x="678" 
d="M397 -19q-58 0 -108.5 17t-75.5 47l9 12q53 -51 145 -51q75 0 131 40t62 115l1 23q0 170 -210 172q-29 1 -29 19v1q0 19 14 19q74 0 126 57.5t52 129.5v5q-3 68 -56 114t-120 46h-2q-74 -1 -126 -65.5t-52 -193.5v-412q0 -26 11 -43.5t28.5 -24t27.5 -8.5t18 -2h1v-3
l-235 -1v2h1q7 0 17 2t27.5 8t29 24t11.5 44v448q0 128 70.5 193.5t170.5 66.5h2q97 0 171.5 -58t74.5 -149q0 -64 -39 -117.5t-109 -75.5q95 -11 148.5 -71t53.5 -136v-6q-2 -64 -39 -108t-89 -62t-113 -18z" />
    <glyph glyph-name="agrave" unicode="&#xe0;" horiz-adv-x="621" 
d="M85 204q0 -95 60.5 -148t144.5 -55h5q64 0 123.5 36.5t59.5 93.5v113q0 78 -50.5 120.5t-132.5 44.5h-2q-86 0 -147 -54t-61 -151zM117 436l-6 -1l-14 75q26 27 83.5 43t122.5 16h6q59 -1 108.5 -14t84 -44.5t35.5 -76.5v-374q0 -28 16.5 -45.5t43.5 -17.5h2v-3h-22
q-78 0 -99 -14v66q-78 -66 -190 -66q-106 1 -184.5 64.5t-78.5 159.5q0 97 79 161t184 64h7q107 -2 183 -67v41q-1 74 -50.5 110t-122.5 36h-13q-36 -2 -73.5 -13t-69.5 -37.5t-32 -62.5zM423 623l-226 84v7q0 31 28 44l201 -128l1 -2q0 -5 -4 -5z" />
    <glyph glyph-name="aacute" unicode="&#xe1;" horiz-adv-x="621" 
d="M85 204q0 -95 60.5 -148t144.5 -55h5q64 0 123.5 36.5t59.5 93.5v113q0 78 -50.5 120.5t-132.5 44.5h-2q-86 0 -147 -54t-61 -151zM117 436l-6 -1l-14 75q26 27 83.5 43t122.5 16h6q59 -1 108.5 -14t84 -44.5t35.5 -76.5v-374q0 -28 16.5 -45.5t43.5 -17.5h2v-3h-22
q-78 0 -99 -14v66q-78 -66 -190 -66q-106 1 -184.5 64.5t-78.5 159.5q0 97 79 161t184 64h7q107 -2 183 -67v41q-1 74 -50.5 110t-122.5 36h-13q-36 -2 -73.5 -13t-69.5 -37.5t-32 -62.5zM244 623q-4 0 -4 5l1 2l201 128q28 -13 28 -44v-7z" />
    <glyph glyph-name="acircumflex" unicode="&#xe2;" horiz-adv-x="621" 
d="M85 204q0 -95 60.5 -148t144.5 -55h5q64 0 123.5 36.5t59.5 93.5v113q0 78 -50.5 120.5t-132.5 44.5h-2q-86 0 -147 -54t-61 -151zM117 436l-6 -1l-14 75q26 27 83.5 43t122.5 16h6q59 -1 108.5 -14t84 -44.5t35.5 -76.5v-374q0 -28 16.5 -45.5t43.5 -17.5h2v-3h-22
q-78 0 -99 -14v66q-78 -66 -190 -66q-106 1 -184.5 64.5t-78.5 159.5q0 97 79 161t184 64h7q107 -2 183 -67v41q-1 74 -50.5 110t-122.5 36h-13q-36 -2 -73.5 -13t-69.5 -37.5t-32 -62.5zM445 622h-1l-121 74l-119 -73h-1q-4 0 -4 5l1 2l123 129l125 -131l1 -2q0 -4 -4 -4z
" />
    <glyph glyph-name="atilde" unicode="&#xe3;" horiz-adv-x="621" 
d="M85 204q0 -95 60.5 -148t144.5 -55h5q64 0 123.5 36.5t59.5 93.5v113q0 78 -50.5 120.5t-132.5 44.5h-2q-86 0 -147 -54t-61 -151zM117 436l-6 -1l-14 75q26 27 83.5 43t122.5 16h6q59 -1 108.5 -14t84 -44.5t35.5 -76.5v-374q0 -28 16.5 -45.5t43.5 -17.5h2v-3h-22
q-78 0 -99 -14v66q-78 -66 -190 -66q-106 1 -184.5 64.5t-78.5 159.5q0 97 79 161t184 64h7q107 -2 183 -67v41q-1 74 -50.5 110t-122.5 36h-13q-36 -2 -73.5 -13t-69.5 -37.5t-32 -62.5zM397 674h-5q-33 0 -73.5 24t-62.5 24h-3q-29 0 -65 -25q43 48 81 48q28 -1 71 -24
t68 -23q33 0 73 32q-38 -53 -84 -56z" />
    <glyph glyph-name="adieresis" unicode="&#xe4;" horiz-adv-x="621" 
d="M85 204q0 -95 60.5 -148t144.5 -55h5q64 0 123.5 36.5t59.5 93.5v113q0 78 -50.5 120.5t-132.5 44.5h-2q-86 0 -147 -54t-61 -151zM117 436l-6 -1l-14 75q26 27 83.5 43t122.5 16h6q59 -1 108.5 -14t84 -44.5t35.5 -76.5v-374q0 -28 16.5 -45.5t43.5 -17.5h2v-3h-22
q-78 0 -99 -14v66q-78 -66 -190 -66q-106 1 -184.5 64.5t-78.5 159.5q0 97 79 161t184 64h7q107 -2 183 -67v41q-1 74 -50.5 110t-122.5 36h-13q-36 -2 -73.5 -13t-69.5 -37.5t-32 -62.5zM251 686q-13 0 -22.5 9.5t-9.5 22.5t9.5 22t22.5 9t22 -9t9 -22t-9 -22.5t-22 -9.5z
M392 686q-13 0 -22 9.5t-9 22.5t9 22t22 9t22.5 -9t9.5 -22t-9.5 -22.5t-22.5 -9.5z" />
    <glyph glyph-name="aring" unicode="&#xe5;" horiz-adv-x="621" 
d="M85 204q0 -95 60.5 -148t144.5 -55h5q64 0 123.5 36.5t59.5 93.5v113q0 78 -50.5 120.5t-132.5 44.5h-2q-86 0 -147 -54t-61 -151zM117 436l-6 -1l-14 75q26 27 83.5 43t122.5 16h6q59 -1 108.5 -14t84 -44.5t35.5 -76.5v-374q0 -28 16.5 -45.5t43.5 -17.5h2v-3h-22
q-78 0 -99 -14v66q-78 -66 -190 -66q-106 1 -184.5 64.5t-78.5 159.5q0 97 79 161t184 64h7q107 -2 183 -67v41q-1 74 -50.5 110t-122.5 36h-13q-36 -2 -73.5 -13t-69.5 -37.5t-32 -62.5zM332 618q-30 0 -51 21t-21 51t21 51t51 21t51 -21t21 -51t-21 -51t-51 -21zM332 643
q20 0 33.5 13.5t13.5 33.5t-14 34t-33 14t-33 -14t-14 -34t13.5 -33.5t33.5 -13.5z" />
    <glyph glyph-name="ae" unicode="&#xe6;" horiz-adv-x="1031" 
d="M281 16q65 0 125.5 35.5t60.5 92.5v113q0 79 -51 125t-132 48h-2q-85 0 -148 -57.5t-63 -155.5q0 -95 61.5 -147t146.5 -54h2zM277 -7q-106 1 -184.5 64.5t-78.5 159.5q0 97 79 161t184 64h7q107 -2 183 -66v40q-1 73 -49.5 107.5t-122.5 34.5h-14q-36 -1 -73.5 -11.5
t-69.5 -36t-32 -61.5l-6 -1l-14 75q26 27 83.5 43t122.5 16h6q86 -1 148 -30.5t72 -87.5q39 58 98.5 90t125.5 32q76 0 143.5 -43.5t103.5 -120.5q27 -58 28 -118h-492v-10q0 -106 58 -190.5t159 -84.5q61 0 112.5 31t60.5 87l2 14l-2 13l6 2l27 -71q-33 -48 -88.5 -73.5
t-116.5 -25.5h-4q-64 1 -120 31t-94 81q-75 -64 -79 -64q-74 -51 -169 -51zM957 326q-9 97 -66.5 167.5t-148.5 70.5t-148.5 -70.5t-66.5 -167.5h430z" />
    <glyph glyph-name="ccedilla" unicode="&#xe7;" horiz-adv-x="543" 
d="M319 -178q-56 0 -77 33l24 32l16 -5v-4q0 -19 15 -32t33 -13h3q19 2 31.5 16t12.5 30v2q-1 16 -15 26.5t-41 11.5q-31 0 -55 -8l34 78q-120 4 -204.5 90t-84.5 206q0 123 87.5 209.5t211.5 86.5q137 0 196 -60l-13 -75h-6v4q0 51 -53 78.5t-124 27.5q-107 0 -171 -81.5
t-64 -189.5q0 -109 64 -192t171 -83q60 0 115.5 29.5t64.5 81.5l1 11l-2 16l7 1l26 -71q-25 -37 -85 -61.5t-114 -27.5l-16 -46q13 3 25 3q33 0 52 -18t19 -42v-2q-1 -30 -25.5 -46t-58.5 -16z" />
    <glyph glyph-name="egrave" unicode="&#xe8;" horiz-adv-x="594" 
d="M300 -20h-3q-115 2 -194 92.5t-79 207.5q0 120 78.5 205.5t197.5 85.5q77 0 144 -41.5t103 -117.5q26 -57 28 -134h-492v-13q0 -122 65.5 -190t152.5 -72h6q62 0 115 37.5t53 93.5q0 6 -2 20l6 2l27 -72q-34 -49 -90 -76.5t-116 -27.5zM515 316q-9 96 -66.5 165
t-148.5 69q-92 0 -149 -69t-66 -165h430zM424 623l-226 84v7q0 31 28 44l201 -128l1 -2q0 -5 -4 -5z" />
    <glyph glyph-name="eacute" unicode="&#xe9;" horiz-adv-x="594" 
d="M300 -20h-3q-115 2 -194 92.5t-79 207.5q0 120 78.5 205.5t197.5 85.5q77 0 144 -41.5t103 -117.5q26 -57 28 -134h-492v-13q0 -122 65.5 -190t152.5 -72h6q62 0 115 37.5t53 93.5q0 6 -2 20l6 2l27 -72q-34 -49 -90 -76.5t-116 -27.5zM515 316q-9 96 -66.5 165
t-148.5 69q-92 0 -149 -69t-66 -165h430zM266 623q-4 0 -4 5l1 2l201 128q28 -13 28 -44v-7z" />
    <glyph glyph-name="ecircumflex" unicode="&#xea;" horiz-adv-x="594" 
d="M300 -20h-3q-115 2 -194 92.5t-79 207.5q0 120 78.5 205.5t197.5 85.5q77 0 144 -41.5t103 -117.5q26 -57 28 -134h-492v-13q0 -122 65.5 -190t152.5 -72h6q62 0 115 37.5t53 93.5q0 6 -2 20l6 2l27 -72q-34 -49 -90 -76.5t-116 -27.5zM515 316q-9 96 -66.5 165
t-148.5 69q-92 0 -149 -69t-66 -165h430zM441 622h-1l-121 74l-119 -73h-1q-4 0 -4 5l1 2l123 129l125 -131l1 -2q0 -4 -4 -4z" />
    <glyph glyph-name="edieresis" unicode="&#xeb;" horiz-adv-x="594" 
d="M300 -20h-3q-115 2 -194 92.5t-79 207.5q0 120 78.5 205.5t197.5 85.5q77 0 144 -41.5t103 -117.5q26 -57 28 -134h-492v-13q0 -122 65.5 -190t152.5 -72h6q62 0 115 37.5t53 93.5q0 6 -2 20l6 2l27 -72q-34 -49 -90 -76.5t-116 -27.5zM515 316q-9 96 -66.5 165
t-148.5 69q-92 0 -149 -69t-66 -165h430zM245 686q-13 0 -22.5 9.5t-9.5 22.5t9.5 22t22.5 9t22 -9t9 -22t-9 -22.5t-22 -9.5zM386 686q-13 0 -22 9.5t-9 22.5t9 22t22 9t22.5 -9t9.5 -22t-9.5 -22.5t-22.5 -9.5z" />
    <glyph glyph-name="igrave" unicode="&#xec;" horiz-adv-x="245" 
d="M213 -4h-184v3h1q9 0 20 2t26.5 16.5t15.5 39.5v452q0 27 -15.5 43t-26.5 18t-20 2h-1v2q100 0 122 15v-532q0 -25 15 -39.5t26 -16.5t20 -2h1v-3zM227 623l-226 84v7q0 31 28 44l201 -128l1 -2q0 -5 -4 -5z" />
    <glyph glyph-name="iacute" unicode="&#xed;" horiz-adv-x="245" 
d="M213 -4h-184v3h1q9 0 20 2t26.5 16.5t15.5 39.5v452q0 27 -15.5 43t-26.5 18t-20 2h-1v2q100 0 122 15v-532q0 -25 15 -39.5t26 -16.5t20 -2h1v-3zM0 623q-4 0 -4 5l1 2l201 128q28 -13 28 -44v-7z" />
    <glyph glyph-name="icircumflex" unicode="&#xee;" horiz-adv-x="245" 
d="M213 -4h-184v3h1q9 0 20 2t26.5 16.5t15.5 39.5v452q0 27 -15.5 43t-26.5 18t-20 2h-1v2q100 0 122 15v-532q0 -25 15 -39.5t26 -16.5t20 -2h1v-3zM248 622h-1l-121 74l-119 -73h-1q-4 0 -4 5l1 2l123 129l125 -131l1 -2q0 -4 -4 -4z" />
    <glyph glyph-name="idieresis" unicode="&#xef;" horiz-adv-x="245" 
d="M213 -4h-184v3h1q9 0 20 2t26.5 16.5t15.5 39.5v452q0 27 -15.5 43t-26.5 18t-20 2h-1v2q100 0 122 15v-532q0 -25 15 -39.5t26 -16.5t20 -2h1v-3zM52 686q-13 0 -22.5 9.5t-9.5 22.5t9.5 22t22.5 9t22 -9t9 -22t-9 -22.5t-22 -9.5zM193 686q-13 0 -22 9.5t-9 22.5t9 22
t22 9t22.5 -9t9.5 -22t-9.5 -22.5t-22.5 -9.5z" />
    <glyph glyph-name="eth" unicode="&#xf0;" horiz-adv-x="656" 
d="M499 -11v69q-83 -67 -189 -67q-123 0 -211 87t-88 210q0 122 88 209t211 87q108 0 189 -67v97h-62v39h62v54q0 27 -15.5 42.5t-26 17.5t-19.5 2h-1v3h22q77 0 100 16v-135h55v-39h-55v-540q0 -27 15.5 -42.5t26 -17.5t19.5 -2h1v-3h-2q-45 0 -80 -5q-28 -5 -40 -15z
M310 12q84 0 136.5 45.5t52.5 120.5v190q0 86 -44.5 140.5t-144.5 54.5q-72 0 -126.5 -41.5t-81 -103t-26.5 -130.5t26.5 -131t81 -103.5t126.5 -41.5z" />
    <glyph glyph-name="ntilde" unicode="&#xf1;" horiz-adv-x="688" 
d="M665 -4h-174v3h2q6 0 13 1.5t18 6.5t18 18.5t7 32.5v296q-4 95 -65 147t-144 52h-2q-79 0 -133 -49t-54 -145v-299q0 -27 16 -44t44 -17h2v-3h-183v2q7 0 17.5 1.5t27.5 17t17 42.5v452q0 42 -34 56l-28 6v3h24q78 0 97 12v-96q72 81 200 81q65 0 121.5 -24t95 -75
t39.5 -119v-295q0 -20 7.5 -34t19 -19t18.5 -6.5t12 -1.5h1v-3zM443 674h-5q-33 0 -73.5 24t-62.5 24h-3q-29 0 -65 -25q43 48 81 48q28 -1 71 -24t68 -23q33 0 73 32q-38 -53 -84 -56z" />
    <glyph glyph-name="ograve" unicode="&#xf2;" horiz-adv-x="687" 
d="M337 1q109 0 179 83t70 193q0 111 -70 193.5t-179 82.5t-178.5 -82.5t-69.5 -193.5q0 -110 69.5 -193t178.5 -83zM337 -19q-128 0 -222.5 85t-94.5 211t94.5 211.5t222.5 85.5t222.5 -85.5t94.5 -211.5t-94.5 -211t-222.5 -85zM437 623l-226 84v7q0 31 28 44l201 -128
l1 -2q0 -5 -4 -5z" />
    <glyph glyph-name="oacute" unicode="&#xf3;" horiz-adv-x="687" 
d="M337 1q109 0 179 83t70 193q0 111 -70 193.5t-179 82.5t-178.5 -82.5t-69.5 -193.5q0 -110 69.5 -193t178.5 -83zM337 -19q-128 0 -222.5 85t-94.5 211t94.5 211.5t222.5 85.5t222.5 -85.5t94.5 -211.5t-94.5 -211t-222.5 -85zM259 623q-4 0 -4 5l1 2l201 128
q28 -13 28 -44v-7z" />
    <glyph glyph-name="ocircumflex" unicode="&#xf4;" horiz-adv-x="687" 
d="M337 1q109 0 179 83t70 193q0 111 -70 193.5t-179 82.5t-178.5 -82.5t-69.5 -193.5q0 -110 69.5 -193t178.5 -83zM337 -19q-128 0 -222.5 85t-94.5 211t94.5 211.5t222.5 85.5t222.5 -85.5t94.5 -211.5t-94.5 -211t-222.5 -85zM466 622h-1l-121 74l-119 -73h-1q-4 0 -4 5
l1 2l123 129l125 -131l1 -2q0 -4 -4 -4z" />
    <glyph glyph-name="otilde" unicode="&#xf5;" horiz-adv-x="687" 
d="M337 1q109 0 179 83t70 193q0 111 -70 193.5t-179 82.5t-178.5 -82.5t-69.5 -193.5q0 -110 69.5 -193t178.5 -83zM337 -19q-128 0 -222.5 85t-94.5 211t94.5 211.5t222.5 85.5t222.5 -85.5t94.5 -211.5t-94.5 -211t-222.5 -85zM422 674h-5q-33 0 -73.5 24t-62.5 24h-3
q-29 0 -65 -25q43 48 81 48q28 -1 71 -24t68 -23q33 0 73 32q-38 -53 -84 -56z" />
    <glyph glyph-name="odieresis" unicode="&#xf6;" horiz-adv-x="687" 
d="M337 1q109 0 179 83t70 193q0 111 -70 193.5t-179 82.5t-178.5 -82.5t-69.5 -193.5q0 -110 69.5 -193t178.5 -83zM337 -19q-128 0 -222.5 85t-94.5 211t94.5 211.5t222.5 85.5t222.5 -85.5t94.5 -211.5t-94.5 -211t-222.5 -85zM300 686q-13 0 -22.5 9.5t-9.5 22.5t9.5 22
t22.5 9t22 -9t9 -22t-9 -22.5t-22 -9.5zM441 686q-13 0 -22 9.5t-9 22.5t9 22t22 9t22.5 -9t9.5 -22t-9.5 -22.5t-22.5 -9.5z" />
    <glyph glyph-name="divide" unicode="&#xf7;" horiz-adv-x="433" 
d="M423 357h-423v42h423v-42zM212 469q-17 0 -29 11.5t-12 28.5t12 29t29 12t28.5 -12t11.5 -29t-12 -28.5t-28 -11.5zM212 224q-17 0 -29 11.5t-12 28.5t12 29t29 12t28.5 -12t11.5 -29q0 -16 -12 -28t-28 -12z" />
    <glyph glyph-name="oslash" unicode="&#xf8;" horiz-adv-x="675" 
d="M328 5q40 0 78 15q79 30 124.5 105.5t45.5 162.5q0 73 -32.5 139.5t-90.5 105.5l-195 -517q36 -11 70 -11zM217 35l195 519q-40 17 -84 17q-107 0 -178 -85t-71 -198q0 -77 36.5 -147t101.5 -106zM229 -61h-48l28 74q-89 33 -143.5 108t-54.5 167q0 125 94 210.5
t223 85.5q48 0 91 -12l27 72h48l-32 -87q83 -36 133 -109t50 -160q0 -125 -94.5 -210.5t-222.5 -85.5q-36 0 -76 8z" />
    <glyph glyph-name="ugrave" unicode="&#xf9;" horiz-adv-x="690" 
d="M315 -20q-94 0 -162.5 51t-70.5 146v333q0 27 -15.5 42.5t-26 17.5t-19.5 2h-1v3h19q84 0 104 14v-411q4 -88 60 -132.5t134 -44.5h8q83 2 139 54.5t56 155.5v297q0 27 -15.5 42.5t-26 17.5t-19.5 2h-1v3h11q86 0 111 16v-527q0 -21 8 -35t20.5 -19.5t20 -7t12.5 -1.5h1
v-2q-97 0 -122 -16v95q-81 -89 -204 -95zM466 623l-226 84v7q0 31 28 44l201 -128l1 -2q0 -5 -4 -5z" />
    <glyph glyph-name="uacute" unicode="&#xfa;" horiz-adv-x="690" 
d="M315 -20q-94 0 -162.5 51t-70.5 146v333q0 27 -15.5 42.5t-26 17.5t-19.5 2h-1v3h19q84 0 104 14v-411q4 -88 60 -132.5t134 -44.5h8q83 2 139 54.5t56 155.5v297q0 27 -15.5 42.5t-26 17.5t-19.5 2h-1v3h11q86 0 111 16v-527q0 -21 8 -35t20.5 -19.5t20 -7t12.5 -1.5h1
v-2q-97 0 -122 -16v95q-81 -89 -204 -95zM260 623q-4 0 -4 5l1 2l201 128q28 -13 28 -44v-7z" />
    <glyph glyph-name="ucircumflex" unicode="&#xfb;" horiz-adv-x="690" 
d="M315 -20q-94 0 -162.5 51t-70.5 146v333q0 27 -15.5 42.5t-26 17.5t-19.5 2h-1v3h19q84 0 104 14v-411q4 -88 60 -132.5t134 -44.5h8q83 2 139 54.5t56 155.5v297q0 27 -15.5 42.5t-26 17.5t-19.5 2h-1v3h11q86 0 111 16v-527q0 -21 8 -35t20.5 -19.5t20 -7t12.5 -1.5h1
v-2q-97 0 -122 -16v95q-81 -89 -204 -95zM475 622h-1l-121 74l-119 -73h-1q-4 0 -4 5l1 2l123 129l125 -131l1 -2q0 -4 -4 -4z" />
    <glyph glyph-name="udieresis" unicode="&#xfc;" horiz-adv-x="690" 
d="M315 -20q-94 0 -162.5 51t-70.5 146v333q0 27 -15.5 42.5t-26 17.5t-19.5 2h-1v3h19q84 0 104 14v-411q4 -88 60 -132.5t134 -44.5h8q83 2 139 54.5t56 155.5v297q0 27 -15.5 42.5t-26 17.5t-19.5 2h-1v3h11q86 0 111 16v-527q0 -21 8 -35t20.5 -19.5t20 -7t12.5 -1.5h1
v-2q-97 0 -122 -16v95q-81 -89 -204 -95zM276 686q-13 0 -22.5 9.5t-9.5 22.5t9.5 22t22.5 9t22 -9t9 -22t-9 -22.5t-22 -9.5zM417 686q-13 0 -22 9.5t-9 22.5t9 22t22 9t22.5 -9t9.5 -22t-9.5 -22.5t-22.5 -9.5z" />
    <glyph glyph-name="yacute" unicode="&#xfd;" horiz-adv-x="609" 
d="M156 -207q-33 0 -68 16l-13 75l6 2q10 -30 33 -48.5t50 -18.5q58 0 87 73l26 63q0 13 -91 238t-128 313q-11 28 -31 44.5t-35 18.5l-15 2v3h179v-3h-1q-6 0 -12.5 -1t-16 -9.5t-9.5 -23.5q0 -11 6 -27l190 -468l197 479q2 12 2 16q0 34 -38 34h-1v3h145v-3h-4
q-54 0 -78 -58l-257 -628q-18 -44 -50.5 -68t-72.5 -24zM267 623q-4 0 -4 5l1 2l201 128q28 -13 28 -44v-7z" />
    <glyph glyph-name="thorn" unicode="&#xfe;" horiz-adv-x="672" 
d="M97 -205v887q0 27 -15.5 43t-26.5 18t-20 2h-1v3h16q84 0 106 14v-250q81 64 186 64q83 0 156 -43.5t111 -120.5q32 -62 32 -132t-32 -132q-38 -78 -111.5 -123t-155.5 -45q-99 0 -186 67v-172q0 -21 8 -35t20.5 -19.5t20 -7t12.5 -1.5h1v-2q-100 0 -121 -15zM342 1
q106 0 170 85t64 194q0 108 -64 192t-170 84q-70 0 -128 -36.5t-58 -100.5v-261q0 -75 53 -116t133 -41z" />
    <glyph glyph-name="ydieresis" unicode="&#xff;" horiz-adv-x="609" 
d="M156 -207q-33 0 -68 16l-13 75l6 2q10 -30 33 -48.5t50 -18.5q58 0 87 73l26 63q0 13 -91 238t-128 313q-11 28 -31 44.5t-35 18.5l-15 2v3h179v-3h-1q-6 0 -12.5 -1t-16 -9.5t-9.5 -23.5q0 -11 6 -27l190 -468l197 479q2 12 2 16q0 34 -38 34h-1v3h145v-3h-4
q-54 0 -78 -58l-257 -628q-18 -44 -50.5 -68t-72.5 -24zM254 686q-13 0 -22.5 9.5t-9.5 22.5t9.5 22t22.5 9t22 -9t9 -22t-9 -22.5t-22 -9.5zM395 686q-13 0 -22 9.5t-9 22.5t9 22t22 9t22.5 -9t9.5 -22t-9.5 -22.5t-22.5 -9.5z" />
    <glyph glyph-name="idotless" unicode="&#x131;" horiz-adv-x="146" 
d="M115 179h-118v2q35 0 37 35v184l1 114l-1 3v26q24 11 36 34l8 -7v-350q0 -17 8.5 -26.5t15 -11t12.5 -1.5h1v-2z" />
    <glyph glyph-name="Lslash" unicode="&#x141;" horiz-adv-x="481" 
d="M179 429v-353q0 -30 14 -44q13 -15 56 -15h103q32 0 54 15t36 35q13 18 21 35q3 7 6 13q0 1 0.5 1t0.5 1h10l-30 -121h-406v2q1 0 3 0.5t5.5 1t6.5 0.5q12 2 25 9t23 23q10 14 10 44v307l-57 -42v42l57 43v253q0 28 -10 44q-11 17 -23 24q-14 7 -24 9q-8 1 -15 1h-1v3
h209v-3h-1q-7 0 -14 -1q-11 -1 -25 -9q-13 -7 -24 -24q-10 -16 -10 -44v-207l58 43v-43z" />
    <glyph glyph-name="lslash" unicode="&#x142;" horiz-adv-x="286" 
d="M177 424v-347q0 -29 13 -45q12 -16 29 -24q14 -6 30 -8q4 0 7.5 -0.5t5.5 -1.5h2v-2l-236 -1v3h1l18 2q12 1 29 9t28 23q11 17 11 44v302l-50 -37v42l50 37v261q0 35 -18 52q-18 15 -39 20q-19 4 -28 4h-2v3h236v-3h-4q-11 0 -28 -4q-23 -5 -38 -20q-17 -17 -17 -51v-215
l65 48v-43z" />
    <glyph glyph-name="OE" unicode="&#x152;" horiz-adv-x="1233" 
d="M420 5q82 0 150 45q67 43 108 122q40 76 40 177q0 105 -46 197t-126 150q-80 57 -177 57q-83 0 -150 -45t-108 -122q-40 -77 -40 -177q0 -105 47 -197t126 -149q79 -58 176 -58zM719 170q-51 -85 -132 -134q-87 -54 -192 -54q-107 0 -192 54q-87 52 -138 143
q-52 89 -52 200t52 200q51 90 138 144q86 53 192 53q104 0 192 -53q81 -51 132 -135v91q0 28 -10 44q-12 17 -23 23q-14 8 -24 9q-8 1 -15 1h-1v4h518l25 -120l-11 -4v1l-1 1l-4 14q-7 18 -19 36q-14 20 -34 36t-52 16h-201q-49 -3 -66 -20q-16 -16 -16 -41v-228h211
q18 0 29 7q13 8 20 18t12 21t6 17v4l1 2v1h7v-160h-7v1q0 1 -1 2v4q-1 8 -6 18t-12 21q-6 8 -20 17q-11 7 -29 7h-115q-39 0 -61 -8q-21 -9 -28 -22t-7 -31v-292q0 -18 7 -31q8 -15 28 -22q21 -9 61 -9l206 1q31 0 54 15q22 15 36 35q13 18 21 35l4 8t2 5l1 1v1h10l-31 -121
l-538 -1v3q1 0 3 0.5t5.5 1t6.5 0.5q12 2 25 9t23 23q10 14 10 44v94z" />
    <glyph glyph-name="oe" unicode="&#x153;" horiz-adv-x="1182" 
d="M337 1q76 0 131 40q56 39 87 103q31 62 31 133q0 72 -31 134t-87 103q-56 39 -131 39t-130 -39q-56 -41 -87 -103t-31 -134q0 -71 31 -133q31 -64 87 -103q55 -40 130 -40zM1084 316q-6 59 -32 113q-27 53 -73 87t-110 34q-65 0 -111 -34t-72 -87q-28 -54 -32 -113h430z
M623 147q-2 -4 -6.5 -11.5t-6.5 -10.5q-45 -67 -117 -105q-72 -39 -156 -39q-83 0 -155 39q-74 38 -117 105q-45 67 -45 152t45 153q43 67 117 106q73 38 155 38q83 0 156 -38q73 -39 117 -106q7 -10 11 -20q2 3 4 8t4 7q34 64 97 106q61 40 143 40q75 0 142 -40t105 -119
q12 -24 20 -65q6 -31 8 -69h-490v-1q0 -11 -2 -31q5 -78 33 -126q31 -57 82 -86q51 -30 103 -31h6q37 0 77 17t65 46q26 29 26 68q0 6 -2 20l6 2l27 -72q-37 -51 -91 -77q-56 -27 -115 -27h-3q-121 7 -197 97q-26 30 -46 70z" />
    <glyph glyph-name="Scaron" unicode="&#x160;" horiz-adv-x="549" 
d="M270 -20h-7q-177 4 -245 136l41 92l7 -3q-7 -21 -7 -43q0 -70 63 -117.5t136 -47.5h3q79 0 136 41t64 124v9q0 74 -105 145q-29 19 -94.5 54t-105 58.5t-73.5 68t-34 97.5v3q0 87 64.5 132.5t159.5 46.5q67 0 126.5 -22.5t90.5 -61.5l-24 -99l-7 1l1 15q0 62 -56 101
t-131 43h-16q-67 0 -115 -30.5t-48 -89.5v-1q0 -29 10.5 -52t35 -43t44 -32t59 -32.5t57.5 -31.5q44 -26 65.5 -40t55 -40.5t49.5 -49t29 -56.5t13 -72q0 -10 -2 -32q-10 -85 -78 -128t-162 -43zM270 787l-124 129l-1 2q0 4 4 4h2l119 -73l121 75h1q4 0 4 -5l-1 -2z" />
    <glyph glyph-name="scaron" unicode="&#x161;" horiz-adv-x="511" 
d="M249 -19h-8q-161 2 -227 103l38 68l13 -5q-7 -17 -7 -34q0 -50 55 -81t122 -31h4q75 0 127 28.5t59 88.5v6q0 56 -98 109q-25 13 -70 32t-77.5 33.5t-66.5 35t-52 46.5t-19 58v1q0 66 60 100t148 35q62 0 117.5 -16.5t84.5 -45.5l-23 -74l-9 1l1 12q0 46 -50.5 74.5
t-120.5 31.5h-12q-64 0 -109 -22.5t-45 -66.5v-1q0 -21 10 -38.5t32.5 -32t40.5 -23.5t54.5 -24.5t53.5 -23.5q39 -18 61 -29t51.5 -30t45.5 -36.5t27.5 -42.5t11.5 -53l-2 -24q-9 -63 -72 -96t-149 -33zM270 597l-124 129l-1 2q0 4 4 4h2l119 -73l121 75h1q4 0 4 -5l-1 -2z
" />
    <glyph glyph-name="Ydieresis" unicode="&#x178;" horiz-adv-x="558" 
d="M412 -4h-209v2q7 0 15 2t23 8.5t25 24t10 43.5v314l-203 293q-20 30 -45 48.5t-40 22.5l-15 3v3h188v-3h-1q-38 0 -38 -30q0 -14 10 -34l193 -279l164 274q8 16 8 30q0 16 -12.5 26t-24.5 12l-13 1v3h155v-3h-2q-43 0 -89 -77l-172 -289v-315q0 -26 10 -43.5t25 -24
t23 -8.5t15 -2v-2zM236 847q-13 0 -22.5 9.5t-9.5 22.5t9.5 22t22.5 9t22 -9t9 -22t-9 -22.5t-22 -9.5zM377 847q-13 0 -22 9.5t-9 22.5t9 22t22 9t22.5 -9t9.5 -22t-9.5 -22.5t-22.5 -9.5z" />
    <glyph glyph-name="Zcaron" unicode="&#x17d;" horiz-adv-x="684" 
d="M614 -1h-586l13 20l499 722h-216q-234 0 -277 -155l-14 4l58 170h540l-14 -19l-500 -722h268q229 0 272 155l14 -4zM374 780l-124 129l-1 2q0 4 4 4h2l119 -73l121 75h1q4 0 4 -5l-1 -2z" />
    <glyph glyph-name="zcaron" unicode="&#x17e;" horiz-adv-x="505" 
d="M448 -4h-414l325 517q4 5 4 12q0 14 -20 21.5t-50 7.5h-55q-37 0 -61 -3.5t-51 -14.5t-45.5 -35.5t-30.5 -63.5l-11 3l46 134h380l-322 -517q-3 -5 -3 -10q0 -13 15 -22t39 -9q15 0 47 -1t49 -1q73 0 122 20.5t69 80.5l11 -3zM270 597l-124 129l-1 2q0 4 4 4h2l119 -73
l121 75h1q4 0 4 -5l-1 -2z" />
    <glyph glyph-name="gravecomb" unicode="&#x300;" horiz-adv-x="240" 
d="M226 635l-226 84v7q0 31 28 44l201 -128l1 -2q0 -5 -4 -5z" />
    <glyph glyph-name="acutecomb" unicode="&#x301;" horiz-adv-x="240" 
d="M4 635q-4 0 -4 5l1 2l201 128q28 -13 28 -44v-7z" />
    <glyph glyph-name="circumflexcomb" unicode="&#x302;" horiz-adv-x="260" 
d="M246 634h-1l-121 74l-119 -73h-1q-4 0 -4 5l1 2l123 129l125 -131l1 -2q0 -4 -4 -4z" />
    <glyph glyph-name="tildecomb" unicode="&#x303;" horiz-adv-x="303" 
d="M209 686h-5q-33 0 -73.5 24t-62.5 24h-3q-29 0 -65 -25q43 48 81 48q28 -1 71 -24t68 -23q33 0 73 32q-38 -53 -84 -56z" />
    <glyph glyph-name="macroncomb" unicode="&#x304;" horiz-adv-x="236" 
d="M226 710h-226v39h226v-39z" />
    <glyph glyph-name="dotaccentcomb" unicode="&#x307;" horiz-adv-x="73" 
d="M32 698q-14 0 -23 9t-9 23q0 13 9.5 22t22.5 9t22 -9t9 -22t-9 -22.5t-22 -9.5z" />
    <glyph glyph-name="dieresiscomb" unicode="&#x308;" horiz-adv-x="215" 
d="M32 698q-13 0 -22.5 9.5t-9.5 22.5t9.5 22t22.5 9t22 -9t9 -22t-9 -22.5t-22 -9.5zM173 698q-13 0 -22 9.5t-9 22.5t9 22t22 9t22.5 -9t9.5 -22t-9.5 -22.5t-22.5 -9.5z" />
    <glyph glyph-name="ringcomb" unicode="&#x30a;" horiz-adv-x="154" 
d="M72 630q-30 0 -51 21t-21 51t21 51t51 21t51 -21t21 -51t-21 -51t-51 -21zM72 655q20 0 33.5 13.5t13.5 33.5t-14 34t-33 14t-33 -14t-14 -34t13.5 -33.5t33.5 -13.5z" />
    <glyph glyph-name="caroncomb" unicode="&#x30c;" horiz-adv-x="261" 
d="M125 634l-124 129l-1 2q0 4 4 4h2l119 -73l121 75h1q4 0 4 -5l-1 -2z" />
    <glyph glyph-name="cedillacomb" unicode="&#x327;" horiz-adv-x="171" 
d="M77 -178q-56 0 -77 33l25 32l15 -4v-3q0 -20 14.5 -33t33.5 -13h3q19 1 32 15.5t13 30.5v2q-2 36 -57 37q-35 0 -54 -7l36 82l21 -1l-17 -49q13 3 25 3q33 0 52 -18t19 -42v-2q-1 -30 -25.5 -46.5t-58.5 -16.5z" />
    <glyph glyph-name="Io-cyrl" unicode="&#x401;" horiz-adv-x="623" 
d="M32 -5v3q7 0 15 2t23 8.5t25 24t10 43.5v603q0 26 -9.5 43t-24 23.5t-23 8.5t-15.5 2h-1v4h518l25 -120l-11 -4q-1 4 -3.5 11t-11.5 25t-20.5 32t-31.5 25t-43 11h-201q-48 -2 -65 -17.5t-17 -43.5v-228h211q25 0 42 17.5t22 35.5l4 17h7v-160h-7q0 3 -1.5 7.5t-6.5 16.5
t-11.5 21.5t-19.5 17t-29 7.5h-115q-56 0 -76 -16t-20 -45v-292q0 -29 20 -45.5t76 -16.5l206 1q37 0 66.5 25t40.5 50l11 25h10l-31 -121zM256 847q-13 0 -22.5 9.5t-9.5 22.5t9.5 22t22.5 9t22 -9t9 -22t-9 -22.5t-22 -9.5zM397 847q-13 0 -22 9.5t-9 22.5t9 22t22 9
t22.5 -9t9.5 -22t-9.5 -22.5t-22.5 -9.5z" />
    <glyph glyph-name="A-cyrl" unicode="&#x410;" 
 />
    <glyph glyph-name="Be-cyrl" unicode="&#x411;" horiz-adv-x="686" 
 />
    <glyph glyph-name="Ve-cyrl" unicode="&#x412;" horiz-adv-x="762" 
 />
    <glyph glyph-name="Ghe-cyrl" unicode="&#x413;" horiz-adv-x="502" 
 />
    <glyph glyph-name="De-cyrl" unicode="&#x414;" horiz-adv-x="727" 
 />
    <glyph glyph-name="Ie-cyrl" unicode="&#x415;" horiz-adv-x="622" 
 />
    <glyph glyph-name="Zhe-cyrl" unicode="&#x416;" horiz-adv-x="777" 
 />
    <glyph glyph-name="Ze-cyrl" unicode="&#x417;" horiz-adv-x="600" 
 />
    <glyph glyph-name="I-cyrl" unicode="&#x418;" horiz-adv-x="781" 
d="M74 682q0 26 -9.5 43.5t-24 24t-23.5 8.5t-16 2h-1v3h209v-3h-1q-7 0 -15.5 -2t-23 -8.5t-24 -24t-9.5 -43.5l2 -625l497 703h135v-3h-1q-9 0 -20.5 -2t-29.5 -17t-22 -41v-620q0 -26 10 -44t25 -24t23.5 -8t15.5 -2v-3h-209v3q7 0 15 2t23 8.5t25 24t10 43.5v623
l-499 -704h-62v686z" />
    <glyph glyph-name="Ishort-cyrl" unicode="&#x419;" horiz-adv-x="835" 
 />
    <glyph glyph-name="Ka-cyrl" unicode="&#x41a;" horiz-adv-x="796" 
 />
    <glyph glyph-name="El-cyrl" unicode="&#x41b;" horiz-adv-x="763" 
 />
    <glyph glyph-name="Em-cyrl" unicode="&#x41c;" horiz-adv-x="947" 
 />
    <glyph glyph-name="En-cyrl" unicode="&#x41d;" horiz-adv-x="810" 
 />
    <glyph glyph-name="O-cyrl" unicode="&#x41e;" horiz-adv-x="824" 
 />
    <glyph glyph-name="Pe-cyrl" unicode="&#x41f;" 
 />
    <glyph glyph-name="Er-cyrl" unicode="&#x420;" horiz-adv-x="692" 
 />
    <glyph glyph-name="Es-cyrl" unicode="&#x421;" horiz-adv-x="712" 
 />
    <glyph glyph-name="Te-cyrl" unicode="&#x422;" horiz-adv-x="608" 
 />
    <glyph glyph-name="U-cyrl" unicode="&#x423;" horiz-adv-x="650" 
 />
    <glyph glyph-name="Ef-cyrl" unicode="&#x424;" horiz-adv-x="1020" 
 />
    <glyph glyph-name="Ha-cyrl" unicode="&#x425;" horiz-adv-x="678" 
 />
    <glyph glyph-name="Tse-cyrl" unicode="&#x426;" 
 />
    <glyph glyph-name="Che-cyrl" unicode="&#x427;" horiz-adv-x="588" 
 />
    <glyph glyph-name="Sha-cyrl" unicode="&#x428;" horiz-adv-x="1029" 
d="M1019 -5h-1019v3q7 0 15 2t23 8.5t25 24t10 43.5v603q0 26 -10 43.5t-25 24t-23 8.5t-15 2v3h209v-3q-7 0 -15.5 -2t-23.5 -8t-25 -24t-10 -44v-603q0 -32 14.5 -45.5t55.5 -13.5h204q54 0 64 27q5 15 5 32v603q0 26 -10 43.5t-25 24t-23 8.5t-15 2v3h209v-3
q-7 0 -15.5 -2t-23.5 -8t-25 -24t-10 -44v-603q0 -17 5 -32q12 -27 65 -27h203q41 0 55.5 13.5t14.5 45.5v603q0 26 -10 43.5t-25 24t-23 8.5t-15 2v3h209v-3q-7 0 -15.5 -2t-23.5 -8t-25 -24t-10 -44v-603q0 -26 10 -44t25 -24t23.5 -8t15.5 -2v-3z" />
    <glyph glyph-name="Shcha-cyrl" unicode="&#x429;" horiz-adv-x="1083" 
 />
    <glyph glyph-name="Signhard-cyrl" unicode="&#x42a;" horiz-adv-x="910" 
 />
    <glyph glyph-name="Yeru-cyrl" unicode="&#x42b;" horiz-adv-x="917" 
 />
    <glyph glyph-name="Signsoft-cyrl" unicode="&#x42c;" horiz-adv-x="692" 
 />
    <glyph glyph-name="E-cyrl" unicode="&#x42d;" horiz-adv-x="713" 
 />
    <glyph glyph-name="Yu-cyrl" unicode="&#x42e;" horiz-adv-x="1190" 
 />
    <glyph glyph-name="Ya-cyrl" unicode="&#x42f;" horiz-adv-x="744" 
 />
    <glyph glyph-name="a-cyrl" unicode="&#x430;" horiz-adv-x="622" 
d="M85 210q0 -95 60.5 -148t145.5 -55h5q64 0 123.5 36.5t59.5 93.5v113q0 78 -51 120.5t-133 44.5h-2q-86 0 -147 -54t-61 -151zM118 442l-7 -1l-13 75q26 27 83.5 43t122.5 16h6q59 -1 108.5 -14t84 -44.5t35.5 -76.5v-374q0 -28 16 -45.5t44 -17.5h2v-3h-22
q-78 0 -99 -14v66q-79 -66 -190 -66q-106 1 -185 64.5t-79 159.5q0 97 79 161t185 64h7q107 -2 183 -67v41q-1 74 -50.5 110t-122.5 36h-13q-36 -2 -73.5 -13t-69.5 -37.5t-32 -62.5z" />
    <glyph glyph-name="be-cyrl" unicode="&#x431;" horiz-adv-x="702" 
d="M352 10q109 0 178.5 82.5t69.5 193.5q0 110 -69.5 193t-178.5 83t-179 -83t-70 -193q0 -111 70 -193.5t179 -82.5zM352 -11q-112 0 -200.5 67t-110.5 172q-21 78 -21 156q0 68 17.5 125t53.5 102t95.5 70.5t137.5 25.5h17q158 0 227 63q6 -17 8 -36v-1q0 -76 -166 -76
q-19 0 -49.5 1t-40.5 1h-8q-104 -4 -180 -60.5t-91 -170.5q-3 -28 -3 -60q0 -24 1 -36q18 109 108 179.5t205 70.5q128 0 222.5 -85t94.5 -211t-94.5 -211.5t-222.5 -85.5z" />
    <glyph glyph-name="ve-cyrl" unicode="&#x432;" horiz-adv-x="580" 
d="M327 298q62 0 96 40.5t35 94.5v3q0 50 -27.5 84t-76.5 34h-143q-43 0 -58 -12t-15 -35l-1 -209h190zM390 16q47 0 74.5 30t31.5 76v12q0 56 -34 97t-97 41h-155q-43 0 -58 -12t-15 -35v-163q0 -22 15 -34t58 -12h180zM407 -4h-385v4h2q6 0 12.5 1.5t17 6t17 16.5t7.5 30
v462q-1 22 -12.5 34.5t-21 15t-19.5 2.5h-3v6h346q70 0 109.5 -40.5t39.5 -96.5v-2q-1 -48 -31 -88.5t-84 -57.5q72 -9 112.5 -54.5t40.5 -102.5v-4q-2 -55 -40.5 -93.5t-107.5 -38.5z" />
    <glyph glyph-name="ghe-cyrl" unicode="&#x433;" horiz-adv-x="375" 
d="M193 -4h-171v2h3q10 0 20 2.5t21.5 16t11.5 37.5v449q0 27 -14 42.5t-28 17.5l-13 2v9h319l23 -98h-8q-1 3 -3 8t-10 18t-17.5 23t-25 18t-33.5 8h-78q-31 0 -42 -10t-11 -34v-450q0 -26 14 -40.5t23.5 -16.5t17.5 -2h1v-2z" />
    <glyph glyph-name="de-cyrl" unicode="&#x434;" horiz-adv-x="653" 
d="M643 -99h-10q-1 4 -4 10.5t-13 23t-21.5 29t-31.5 23t-42 10.5h-389q-35 0 -63 -24t-39 -48l-10 -24h-10l33 129h74q5 12 28 65t29 69t21.5 62.5t20 78.5t10 84t5.5 109q0 20 -7 35t-15.5 22t-20 11.5t-17 5t-9.5 0.5h-1v2h445v-2h-1q-4 0 -9.5 -0.5t-17 -5t-20 -11.5
t-15.5 -22t-7 -35v-391q0 -42 15 -59.5t67 -17.5zM406 30q44 0 57 18t13 54v396q0 28 -27 43.5t-65 15.5t-65.5 -15.5t-27.5 -43.5q0 -57 -5.5 -109t-11 -86t-20 -80t-21.5 -64.5t-26.5 -66.5t-25.5 -62h225z" />
    <glyph glyph-name="ie-cyrl" unicode="&#x435;" horiz-adv-x="595" 
d="M300 -13h-3q-115 1 -194 92t-79 208q0 120 78.5 205t197.5 85q78 0 144.5 -41t102.5 -117q25 -55 29 -134h-492v-16q0 -121 65 -188t153 -71h6q61 0 114 37.5t53 93.5q0 6 -2 20l6 1l27 -71q-33 -49 -89.5 -76.5t-116.5 -27.5zM515 322q-9 96 -66 165.5t-149 69.5
t-149 -69.5t-66 -165.5h430z" />
    <glyph glyph-name="zhe-cyrl" unicode="&#x436;" horiz-adv-x="613" 
d="M596 -4h-145v2h3q28 0 28 22q0 9 -7 23l-129 246h-10v-233q0 -25 14 -39.5t24 -16.5t18 -2h1v-2h-178v2h1q9 0 19.5 2t25.5 16.5t15 40.5v234h-9l-130 -246q-6 -12 -6 -24q0 -23 29 -23h1v-2h-151v2h1q36 0 72 59l130 242v5q-21 33 -63.5 104t-63.5 103q-39 61 -75 61v2
h144v-2q-30 -1 -30 -26q0 -11 8 -26l128 -209h15v203q0 25 -15 39.5t-26 16.5t-19 2h-1v3l183 -1v-2h-1q-9 0 -19.5 -2t-26 -16.5t-15.5 -40.5v-204h15l128 209q8 15 8 26q0 12 -7.5 19t-15.5 8l-7 1v2h146v-2q-35 0 -75 -63q-21 -32 -64 -103.5t-64 -104.5v-4l130 -242
q35 -57 64 -57h2v-2z" />
    <glyph glyph-name="ze-cyrl" unicode="&#x437;" horiz-adv-x="417" 
d="M215 -10h-13q-106 0 -157 74q-22 31 -23 66v5q0 17 9 25.5t20 8.5q14 -1 24 -11.5t11 -24.5q3 -53 35.5 -82t83.5 -29h9q51 3 84 34.5t33 82.5v8q-7 105 -88 127q-17 5 -34 5q-18 0 -36 -5q-8 3 -8 14q0 14 10 17l16 -1q58 0 90 35t32 96v15q-3 51 -36 81t-84 30h-2
q-57 -1 -99 -32t-42 -88h-17l3 126h7q4 -17 18 -17q9 0 53 18t76 18h5q66 0 121 -38t59 -102v-9q0 -54 -33 -93.5t-86 -52.5q56 -8 94 -44.5t42 -94.5v-7q0 -65 -54.5 -108t-122.5 -47z" />
    <glyph glyph-name="i-cyrl" unicode="&#x438;" horiz-adv-x="634" 
d="M611 -4h-169v2h1q8 0 17.5 2t23.5 16.5t14 40.5v329q0 32 -12 35h-2q-6 0 -12 -6l-329 -320v-38q0 -26 14 -40.5t23.5 -16.5t17.5 -2h1v-2h-169v2h1q8 0 17.5 2t23.5 16.5t14 40.5v456q0 26 -14 40.5t-23.5 16.5t-17.5 2h-1v2h169v-2h-1q-8 0 -17.5 -2t-23.5 -16.5
t-14 -40.5v-365l355 345v20q0 26 -14 40.5t-23.5 16.5t-17.5 2h-1v2h169v-2q-2 0 -6 -0.5t-13.5 -4t-17 -9.5t-13.5 -18.5t-6 -29.5v-456q0 -24 11.5 -37.5t21.5 -16t20 -2.5h3v-2z" />
    <glyph glyph-name="ishort-cyrl" unicode="&#x439;" horiz-adv-x="633" 
d="M610 -4h-168v2h1q8 0 17.5 2t23 16.5t13.5 40.5v329q0 32 -11 35h-2q-6 0 -12 -6l-329 -320v-38q0 -26 13.5 -40.5t23 -16.5t17.5 -2h1v-2h-168v2h1q8 0 17.5 2t23 16.5t13.5 40.5v456q0 26 -13.5 40.5t-23 16.5t-17.5 2h-1v2h168v-2h-1q-8 0 -17.5 -2t-23 -16.5
t-13.5 -40.5v-365l354 345v20q0 26 -13.5 40.5t-23 16.5t-17.5 2h-1v2h168v-2q-2 0 -6 -0.5t-13.5 -4t-16.5 -9.5t-13 -18.5t-6 -29.5v-456q0 -24 11.5 -37.5t21.5 -16t19 -2.5h3v-2zM340 623q-46 0 -78 30.5t-32 74.5l1 8h42v-8q0 -27 19.5 -45.5t47.5 -18.5t47.5 18.5
t19.5 45.5l-1 8h43v-8q0 -43 -32 -74t-77 -31z" />
    <glyph glyph-name="ka-cyrl" unicode="&#x43a;" horiz-adv-x="607" 
d="M542 -5q-37 0 -54 13t-61 72q-9 12 -30.5 41.5t-31.5 42.5t-29 36t-32.5 33.5t-32 23.5t-37 18t-38.5 5q-59 0 -59 -37v-186q0 -16 5.5 -28t12.5 -18t16.5 -9t13.5 -3.5t7 -0.5v-2h-169v2q7 0 16.5 2t23.5 15.5t15 38.5l-1 458q0 17 -5.5 29t-12.5 17.5t-16.5 9t-13.5 4
t-7 0.5v2h170v-2q-3 0 -7 -0.5t-13.5 -4t-16.5 -9t-12.5 -17.5t-5.5 -29v-203q40 0 65.5 24.5t36 56.5t31.5 73.5t48 65.5q53 47 125 47h4q75 -2 125 -53l-13 -75l-29 6v9q0 91 -83 91h-3q-70 0 -107 -73q-9 -16 -22 -49.5t-23 -56t-32 -45.5t-53 -32h18q4 0 20.5 -3
t44.5 -12t49 -21q41 -25 80 -72.5t63.5 -88.5t55 -72t58.5 -31h1v-2z" />
    <glyph glyph-name="el-cyrl" unicode="&#x43b;" horiz-adv-x="696" 
d="M22 -72h-12v3h11q88 2 151 75.5t63 203.5v281q0 25 -9 42t-23 23.5t-22.5 8.5t-16.5 2h-2v7h511v-2q-2 0 -6 -1t-13.5 -5.5t-16.5 -11.5t-13 -20.5t-6 -30.5v-449q0 -24 11.5 -37.5t21.5 -16t19 -2.5h3v-2h-170v2h1q8 0 17.5 2t23.5 16.5t14 40.5v450q0 24 -11 34t-42 10
h-135q-38 0 -54 -12.5t-16 -47.5v-282q0 -70 -23.5 -125t-63.5 -88.5t-89 -50.5t-103 -17z" />
    <glyph glyph-name="em-cyrl" unicode="&#x43c;" horiz-adv-x="738" 
d="M361 -7q-18 40 -243 514v-450q0 -26 14 -40.5t23.5 -16.5t17.5 -2h1v-2h-144v2h1q8 0 17.5 2t23 16.5t13.5 40.5v453q0 27 -14 42.5t-27 17.5l-14 2v2h136l213 -446l222 446h114v-2q-2 0 -6 -0.5t-13.5 -4t-16.5 -9.5t-13 -18.5t-6 -29.5v-454q0 -25 13.5 -39.5t23 -16.5
t17.5 -2h1v-2h-170v2h1q5 0 11.5 1.5t17.5 6.5t18.5 18t7.5 32v449z" />
    <glyph glyph-name="en-cyrl" unicode="&#x43d;" horiz-adv-x="622" 
d="M599 -7h-170v2h1q8 0 17.5 2t23.5 16.5t14 40.5v173q0 22 -15.5 34t-58.5 12h-196q-43 0 -58 -12t-15 -34v-173q0 -24 11.5 -37.5t21.5 -16t19 -2.5h3v-2h-167v2h1q8 0 17.5 2t23 16.5t13.5 40.5v456q0 16 -5.5 28t-12.5 18t-16.5 9t-13.5 3.5t-7 0.5v2h167v-2
q-2 0 -6 -0.5t-13.5 -4t-16.5 -9.5t-13 -18.5t-6 -29.5v-202l343 -1v206q0 16 -5.5 28t-12.5 18t-16.5 9t-14 3.5t-7.5 0.5v2h170v-2h-1q-8 0 -17.5 -2t-23.5 -16.5t-14 -40.5v-459q0 -26 14 -40.5t23.5 -16.5t17.5 -2h1v-2z" />
    <glyph glyph-name="o-cyrl" unicode="&#x43e;" horiz-adv-x="675" 
d="M337 9q108 0 178 83t70 193q0 111 -70 193.5t-178 82.5q-109 0 -179 -82.5t-70 -193.5q0 -110 70 -193t179 -83zM337 -11q-128 0 -222.5 85t-94.5 211t94.5 211.5t222.5 85.5t222 -85.5t94 -211.5t-94 -211t-222 -85z" />
    <glyph glyph-name="pe-cyrl" unicode="&#x43f;" horiz-adv-x="549" 
d="M526 -4h-170v2h1q8 0 17.5 2t23.5 16.5t14 40.5v450q0 24 -11 34t-42 10h-162q-30 0 -41 -10t-11 -34v-450q0 -26 13.5 -40.5t23 -16.5t17.5 -2h1v-2h-170v2h3q10 0 20 2.5t21.5 16t11.5 37.5v449q0 27 -14 44.5t-28 20.5l-14 4v2h496v-2q-2 0 -6 -1t-13.5 -5.5
t-16.5 -11.5t-13 -20.5t-6 -30.5v-449q0 -24 11.5 -37.5t21.5 -16t19 -2.5h3v-2z" />
    <glyph glyph-name="er-cyrl" unicode="&#x440;" horiz-adv-x="617" 
d="M62 -208v717q0 27 -15.5 42.5t-26 17.5t-19.5 2h-1v3q100 0 122 15v-80q83 64 185 64q83 0 156.5 -43.5t111.5 -120.5q32 -62 32 -133q0 -70 -32 -132q-39 -77 -112 -122t-156 -45q-100 0 -185 67v-173q0 -27 15.5 -42.5t26 -17.5t19.5 -2h1v-3h-16q-84 0 -106 -14z
M307 -3q107 0 171 85t64 194t-64 193t-171 84q-70 0 -127.5 -36.5t-57.5 -101.5v-261q0 -75 52.5 -116t132.5 -41z" />
    <glyph glyph-name="es-cyrl" unicode="&#x441;" horiz-adv-x="522" 
d="M299 -13q-124 0 -211.5 87t-87.5 210t87.5 209.5t211.5 86.5q138 0 197 -60l-14 -75h-6v5q0 52 -53.5 81t-123.5 29q-106 0 -170 -84t-64 -192q0 -109 63 -192.5t169 -83.5q60 0 116.5 29.5t65.5 82.5l2 13l-2 14l6 1l27 -71q-27 -40 -92.5 -65t-120.5 -25z" />
    <glyph glyph-name="te-cyrl" unicode="&#x442;" horiz-adv-x="515" 
d="M331 -4h-171v2q3 0 7 0.5t13.5 3.5t16.5 9t12.5 18t5.5 28l2 448q0 26 -12 35.5t-40 9.5l-46 1q-47 0 -76 -15t-45 -62h-8q5 19 12.5 56.5t12.5 56.5h7q21 -14 48 -14h352q12 0 23.5 3.5t17.5 7.5l6 3h8q2 -8 12.5 -49.5t15.5 -63.5h-8q-16 47 -45 62t-76 15l-46 -1
q-28 0 -40 -9.5t-12 -35.5l-2 -448q0 -16 5.5 -28t12.5 -18t16.5 -9t13.5 -3.5t7 -0.5v-2z" />
    <glyph glyph-name="u-cyrl" unicode="&#x443;" horiz-adv-x="651" 
d="M178 -208q-34 0 -67 16l-13 75l6 2q10 -30 33 -48.5t50 -18.5q58 0 87 73l26 64q0 21 -219 551q-11 28 -31 44.5t-35 19.5l-15 2v2h179v-2q-5 0 -12 -1t-17 -10t-10 -24q0 -11 6 -27l190 -469l197 480q2 12 2 16q0 15 -10 24t-17 10t-12 1v2h145v-2h-3q-4 0 -9.5 -1
t-12.5 -3t-15 -6.5t-15.5 -10.5t-14.5 -16t-12 -23l-257 -627q-40 -93 -124 -93z" />
    <glyph glyph-name="ef-cyrl" unicode="&#x444;" horiz-adv-x="947" 
d="M445 -140v226q-74 -60 -170 -60q-124 0 -193.5 77.5t-71.5 184.5v5q0 108 70 187.5t195 79.5q96 0 170 -60v170q0 24 -13.5 38t-23.5 16t-18 2h-1v3q95 0 116 14v-238q75 58 167 58q123 0 193 -77t72 -183v-7q0 -109 -70 -189t-195 -80q-91 0 -167 60v-156
q0 -25 14.5 -38.5t24 -15.5t17.5 -2v-2q-96 0 -116 -13zM672 45q97 0 152 72.5t57 173.5v5q0 101 -55 174.5t-154 73.5q-63 0 -115 -32.5t-52 -90.5v-235q0 -68 47.5 -104.5t119.5 -36.5zM275 45q76 0 123 40.5t47 108.5v171q0 78 -40 127t-130 49q-66 0 -115 -36.5
t-71.5 -92t-22.5 -119.5t22.5 -119.5t71.5 -92t115 -36.5z" />
    <glyph glyph-name="ha-cyrl" unicode="&#x445;" horiz-adv-x="555" 
d="M537 -4h-171v3h1q26 0 26 22q0 15 -15 38q-23 35 -58 95.5t-55 91.5l-137 -198q-7 -15 -7 -25q0 -24 30 -24h1v-3h-145v3q59 0 97 58l142 207l-153 241q-17 28 -40.5 44.5t-38.5 19.5l-14 3v2h180v-2q-32 0 -32 -25q0 -10 7 -24l129 -205l140 204q7 15 7 25q0 25 -31 25
v2h145v-2h-2q-58 0 -95 -59l-150 -218l151 -236q17 -26 38.5 -41t31.5 -17t17 -2h1v-3z" />
    <glyph glyph-name="tse-cyrl" unicode="&#x446;" horiz-adv-x="506" 
d="M467 -181h-12q-15 93 -25 117q-19 40 -62 60h-368v2q2 0 6 1t13.5 5.5t16.5 11.5t13 20.5t6 30.5v446q0 16 -5.5 28t-12.5 18t-16.5 9t-13.5 3.5t-7 0.5v2h170v-2q-6 0 -15.5 -2t-25 -17.5t-15.5 -42.5v-447q0 -24 11 -34t42 -10h162q30 0 41 10t11 34v447
q0 27 -13.5 42.5t-27.5 17.5l-13 2v2h169v-2q-3 0 -7.5 -0.5t-14 -3.5t-16.5 -9t-12.5 -18t-5.5 -28v-446q0 -24 16.5 -46.5t39.5 -22.5z" />
    <glyph glyph-name="che-cyrl" unicode="&#x447;" horiz-adv-x="480" 
d="M470 -4h-155v2h2q21 0 33.5 13t12.5 34v160q-58 -64 -157 -64q-79 1 -137 46t-59 124v275q16 -11 94 -11v-2h-1q-5 0 -11.5 -2t-15 -13.5t-8.5 -32.5v-213q3 -73 43 -108t104 -35h3q63 0 104 33t41 107v277q17 -11 107 -11v-2h-1q-7 0 -15.5 -2t-20 -13.5t-11.5 -32.5
v-482q0 -19 11.5 -30.5t20 -13t15.5 -1.5h1v-2z" />
    <glyph glyph-name="sha-cyrl" unicode="&#x448;" horiz-adv-x="875" 
d="M852 -4h-822v2q2 0 6 1t13.5 5.5t16.5 11.5t13 20.5t6 30.5v446q0 16 -5.5 28t-12.5 18t-16.5 9t-13.5 3.5t-7 0.5v2h170v-2q-2 0 -6 -0.5t-13.5 -4t-16.5 -9.5t-13 -18.5t-6 -29.5v-447q0 -24 11 -34t41 -10h162q35 0 45 14q8 14 8 34v443q0 24 -15 43t-39 19h-2v2h170
v-2q-2 0 -6 -0.5t-13.5 -4t-16.5 -9.5t-13 -18.5t-6 -29.5v-443q0 -18 7 -34q10 -14 45 -14h162q31 0 42 10t11 34v447q0 27 -14 42.5t-28 17.5l-13 2v2h169v-2q-3 0 -7 -0.5t-13.5 -3.5t-16.5 -9t-12.5 -18t-5.5 -28v-446q0 -17 5.5 -30.5t13.5 -20.5t16.5 -11.5t13.5 -5.5
l6 -1v-2z" />
    <glyph glyph-name="shcha-cyrl" unicode="&#x449;" horiz-adv-x="875" 
d="M823 -181h-12q-2 10 -6 37.5t-5.5 35.5t-6.5 27t-10 26t-13.5 19t-20 19t-27.5 13h-692v2q2 0 6 1t13.5 5.5t16.5 11.5t13 20.5t6 30.5v446q0 16 -5.5 28t-12.5 18t-16.5 9t-13.5 3.5t-7 0.5v2h170v-2q-6 0 -15.5 -2t-25 -17.5t-15.5 -42.5v-447q0 -24 11 -34t42 -10h162
q35 0 45 14q7 16 7 34v443q0 24 -12 39t-21.5 18.5t-18.5 4.5h-3v2h170v-2q-2 0 -6 -0.5t-13.5 -4t-16.5 -9.5t-13 -18.5t-6 -29.5v-443q0 -21 7 -34q10 -14 45 -14h162q31 0 41.5 10t10.5 34v447q0 27 -13.5 42.5t-27.5 17.5l-13 2v2h169v-2q-3 0 -7 -0.5t-13.5 -3.5
t-16.5 -9t-12.5 -18t-5.5 -28v-446q0 -17 5.5 -30.5t13.5 -20.5t16.5 -11.5t13.5 -5.5l6 -1z" />
    <glyph glyph-name="signhard-cyrl" unicode="&#x44a;" horiz-adv-x="671" 
d="M496 11q49 0 77.5 36.5t28.5 87.5q0 55 -34 96t-97 41h-189v-226q5 -35 72 -35h142zM512 -4h-346v2q12 0 25 5v1h1q29 14 29 53v450q0 24 -10.5 34t-41.5 10h-78q-18 0 -33.5 -7.5t-25 -18.5t-17 -22.5t-10.5 -18.5l-3 -8h-8l23 98h320v-2h-1q-8 0 -17.5 -2t-23 -16.5
t-13.5 -40.5v-176q0 -23 15 -35t58 -12h129q83 -1 130 -48t47 -110q0 -56 -39.5 -96t-109.5 -40z" />
    <glyph glyph-name="yeru-cyrl" unicode="&#x44b;" horiz-adv-x="690" 
d="M330 11q49 0 77.5 36.5t28.5 87.5q0 55 -34 96t-97 41h-190v-226q7 -35 72 -35h143zM346 -4h-346v2q7 0 16.5 2t23.5 15.5t15 38.5v462q-1 25 -15 38.5t-23.5 15.5t-16.5 2v2h170v-2h-1q-8 0 -17.5 -2t-23 -16.5t-13.5 -40.5v-176q0 -22 15.5 -34.5t57.5 -12.5h130
q83 -1 129.5 -48t46.5 -109q0 -57 -39 -97t-109 -40zM680 -4h-194v2h1q6 0 13.5 2t20.5 8.5t21 24t8 43.5v416q0 22 -6.5 38t-15 23.5t-19 12t-15.5 5t-8 0.5v3h194v-3q-4 0 -9.5 -0.5t-17 -5t-20 -12t-15 -23.5t-6.5 -37v-416q0 -22 7 -38t16 -23.5t20 -12t16.5 -5
t8.5 -0.5v-2z" />
    <glyph glyph-name="signsoft-cyrl" unicode="&#x44c;" horiz-adv-x="505" 
d="M330 11q49 0 77.5 36.5t28.5 87.5q0 55 -34 96t-97 41h-189v-226q7 -35 72 -35h142zM347 -4h-347v2q7 0 16.5 2t24 15.5t14.5 38.5v462q0 25 -14.5 38.5t-24 15.5t-16.5 2v2h171v-2h-1q-8 0 -17.5 -2t-23 -16.5t-13.5 -40.5v-176q0 -23 15 -35t58 -12h129q83 -1 130 -48
t47 -110q0 -56 -39 -96t-109 -40z" />
    <glyph glyph-name="e-cyrl" unicode="&#x44d;" horiz-adv-x="550" 
d="M241 -13q-55 0 -120.5 24.5t-92.5 64.5l27 72l6 -2q-1 -4 -1 -13t1 -14q9 -53 65.5 -82.5t116.5 -29.5q99 0 160.5 73t70.5 175h-336v37h337q-3 107 -66.5 187t-167.5 80q-70 0 -123.5 -29t-53.5 -81v-5h-7l-13 75q59 60 197 60q123 0 211 -86.5t88 -209.5t-88 -209.5
t-211 -86.5z" />
    <glyph glyph-name="yu-cyrl" unicode="&#x44e;" horiz-adv-x="908" 
d="M581 9q109 0 179 83t70 193q0 111 -70 193.5t-179 82.5t-179 -82.5t-70 -193.5q0 -110 70 -193t179 -83zM581 -11q-125 0 -218.5 81.5t-98.5 202.5h-52q-73 0 -73 -46v-173q0 -24 11.5 -37.5t21.5 -16t20 -2.5h3v-2l-168 -1v2q3 0 7.5 0.5t14 3.5t16.5 9t12.5 18t5.5 28
v457q0 16 -5.5 28t-12.5 18t-16.5 9t-14 3.5t-7.5 0.5v2h168v-2q-2 0 -6 -0.5t-13.5 -4t-17 -9.5t-13.5 -18.5t-6 -29.5v-202l126 -1q9 118 101.5 196t214.5 78q128 0 222.5 -85t94.5 -211t-94.5 -211t-222.5 -85z" />
    <glyph glyph-name="ya-cyrl" unicode="&#x44f;" horiz-adv-x="579" 
d="M462 297v215q0 22 -15.5 34t-58.5 12h-142q-49 0 -77.5 -36.5t-28.5 -87.5q0 -55 34 -96t97 -41h191zM56 -7l-56 1v1h1q31 0 64 36.5t60.5 83t73.5 95.5t96 68h-37q-83 1 -130 48.5t-47 110.5q0 56 39.5 96.5t109.5 40.5h339v-3q-5 0 -11 -1.5t-17.5 -6t-19 -17
t-7.5 -31.5v-469q0 -21 13 -33t23 -14t18 -2h1v-2h-163v2h1q8 0 18 2t23.5 16.5t13.5 39.5v186q0 37 -60 37h-1q-23 0 -46.5 -9.5t-39 -19t-39 -35.5t-33 -38t-37 -49.5t-35.5 -48.5q-44 -59 -61 -72t-54 -13z" />
    <glyph glyph-name="io-cyrl" unicode="&#x451;" horiz-adv-x="594" 
d="M300 -20h-3q-115 2 -194 92.5t-79 207.5q0 120 78.5 205.5t197.5 85.5q77 0 144 -41.5t103 -117.5q26 -57 28 -134h-492v-13q0 -122 65.5 -190t152.5 -72h6q62 0 115 37.5t53 93.5q0 6 -2 20l6 2l27 -72q-34 -49 -90 -76.5t-116 -27.5zM515 316q-9 96 -66.5 165
t-148.5 69q-92 0 -149 -69t-66 -165h430zM245 686q-13 0 -22.5 9.5t-9.5 22.5t9.5 22t22.5 9t22 -9t9 -22t-9 -22.5t-22 -9.5zM386 686q-13 0 -22 9.5t-9 22.5t9 22t22 9t22.5 -9t9.5 -22t-9.5 -22.5t-22.5 -9.5z" />
    <glyph glyph-name="endash" unicode="&#x2013;" horiz-adv-x="599" 
d="M589 357h-589v42h589v-42z" />
    <glyph glyph-name="emdash" unicode="&#x2014;" horiz-adv-x="862" 
d="M852 357h-852v42h852v-42z" />
    <glyph glyph-name="quoteleft" unicode="&#x2018;" horiz-adv-x="200" 
d="M105 562h-2q-30 0 -46.5 24.5t-16.5 55.5q0 56 44 94q19 16 44 24l1 -6q-25 -8 -39.5 -29.5t-14.5 -45.5l1 -11q13 7 28 7q22 0 38.5 -15.5t17.5 -37.5v-3q0 -23 -16 -40t-39 -17z" />
    <glyph glyph-name="quoteright" unicode="&#x2019;" horiz-adv-x="200" 
d="M72 562l-1 5q25 8 39 29t14 45l-1 12q-11 -7 -27 -7q-22 0 -38 15.5t-18 37.5v3q0 23 16.5 40.5t40.5 17.5q30 -1 46.5 -25.5t16.5 -55.5q0 -56 -44 -93q-21 -17 -44 -24z" />
    <glyph glyph-name="quotesinglbase" unicode="&#x201a;" horiz-adv-x="200" 
d="M72 -86l-1 5q25 9 39.5 30.5t14.5 45.5l-1 10q-13 -7 -28 -7q-22 1 -38.5 16t-17.5 37v4q0 23 16.5 40t40.5 17q30 -1 46.5 -25t16.5 -56q0 -54 -44 -93q-19 -16 -44 -24z" />
    <glyph glyph-name="quotedblleft" unicode="&#x201c;" horiz-adv-x="339" 
d="M244 562h-2q-29 0 -46 24.5t-17 55.5q0 56 45 94q16 14 43 24l1 -6q-24 -8 -38.5 -29t-14.5 -45l1 -12q11 7 27 7q22 0 38 -15t18 -38v-3q0 -23 -16 -40t-39 -17zM105 562h-2q-29 0 -46 24.5t-17 55.5q0 56 45 94q16 14 43 24l1 -6q-24 -8 -38.5 -29t-14.5 -45l1 -12
q11 7 27 7q22 0 38 -15t18 -38v-3q0 -23 -16 -40t-39 -17z" />
    <glyph glyph-name="quotedblright" unicode="&#x201d;" horiz-adv-x="339" 
d="M72 562l-1 5q25 8 39.5 29.5t14.5 45.5l-1 11q-13 -7 -27 -7q-22 0 -38.5 15.5t-18.5 37.5v3q0 23 16.5 40.5t40.5 17.5q30 -1 46.5 -25t16.5 -56q0 -56 -44 -93q-21 -18 -44 -24zM211 562l-1 5q25 8 39.5 29.5t14.5 45.5l-1 11q-13 -7 -27 -7q-22 0 -38.5 15.5
t-18.5 37.5v3q0 23 16.5 40.5t41.5 17.5q29 -1 45.5 -25.5t16.5 -55.5q0 -56 -44 -93q-21 -18 -44 -24z" />
    <glyph glyph-name="quotedblbase" unicode="&#x201e;" horiz-adv-x="339" 
d="M72 -88l-1 5q24 8 38.5 29t14.5 45l-1 12q-11 -7 -27 -7q-22 0 -38 15.5t-18 37.5v5q0 22 16.5 39t40.5 17q29 -1 45.5 -25t17.5 -56q0 -57 -45 -93q-18 -17 -43 -24zM211 -88l-1 5q24 8 38.5 29t14.5 45l-1 12q-11 -7 -27 -7q-22 0 -38 15.5t-18 37.5v5q0 22 16.5 39
t40.5 17q29 -1 45.5 -25t17.5 -56q0 -57 -45 -93q-18 -17 -43 -24z" />
    <glyph glyph-name="dagger" unicode="&#x2020;" horiz-adv-x="481" 
d="M243 -4h-4l-45 439q18 8 27.5 30.5t10.5 39.5t1 46q-35 -2 -70 -18t-46 -43l-77 69l77 70q11 -27 46 -43t69 -18q-2 34 -18 69t-43 46l70 77l69 -77q-27 -11 -43 -46t-18 -69q34 2 69 18t47 43l76 -70l-76 -69q-12 27 -47 43t-69 18v-6q0 -94 38 -110z" />
    <glyph glyph-name="daggerdbl" unicode="&#x2021;" horiz-adv-x="482" 
d="M241 -14l-70 77q27 11 43 46t18 69q-34 -2 -69 -18t-46 -43l-77 70l77 69q11 -27 46 -43t70 -18q-3 92 -16.5 139.5t-45.5 67.5q28 16 44 65t18 97q-35 -2 -70 -18t-46 -43l-77 70l77 69q11 -27 46 -43t69 -18q-2 34 -18 69t-43 47l70 76l69 -76q-27 -12 -42.5 -46.5
t-18.5 -69.5q34 2 69 18t47 43l77 -69l-77 -70q-12 27 -47 43t-69 18q2 -48 18 -97t43 -65q-31 -20 -44.5 -68t-16.5 -139q34 2 69 18t47 43l77 -69l-77 -70q-12 27 -47 43t-69 18q3 -35 18.5 -69.5t42.5 -45.5z" />
    <glyph glyph-name="bullet" unicode="&#x2022;" horiz-adv-x="258" 
d="M129 289q-37 0 -63 26t-26 63t26 63t63 26t63 -26t26 -63t-26 -63t-63 -26z" />
    <glyph glyph-name="ellipsis" unicode="&#x2026;" horiz-adv-x="739" 
d="M157 -5q-23 0 -40 16.5t-17 39.5q0 24 17 40.5t40 16.5t40 -16.5t17 -40.5q0 -23 -17 -39.5t-40 -16.5zM361 -5q-23 0 -40 16.5t-17 39.5q0 24 17 40.5t40 16.5t40 -16.5t17 -40.5q0 -23 -17 -39.5t-40 -16.5zM582 -5q-23 0 -40 16.5t-17 39.5q0 24 17 40.5t40 16.5
t40 -16.5t17 -40.5q0 -23 -17 -39.5t-40 -16.5z" />
    <glyph glyph-name="guilsinglleft" unicode="&#x2039;" horiz-adv-x="272" 
d="M227 228l-187 175l187 175l5 -4l-120 -171l119 -171z" />
    <glyph glyph-name="guilsinglright" unicode="&#x203a;" horiz-adv-x="272" 
d="M45 228l-4 4l119 171l-120 171l5 4l187 -175z" />
    <glyph glyph-name="fraction" unicode="&#x2044;" horiz-adv-x="668" 
d="M68 -1h-68l590 761h68z" />
    <glyph glyph-name="fraction" unicode="&#x2215;" horiz-adv-x="668" 
d="M68 -1h-68l590 761h68z" />
    <glyph glyph-name="frenchfrancsign" unicode="&#x20a3;" horiz-adv-x="574" 
d="M233 -4h-212v2q7 0 15 2t23 8.5t25 24t10 43.5v144h-70v42h70v417q0 26 -9.5 43t-24 23.5t-23 8.5t-15.5 2h-1v4h518l25 -120l-10 -4q-1 4 -3.5 11t-12 25t-21 32t-31.5 25t-43 11h-201q-48 -2 -65 -18t-17 -43v-228h211q25 0 42 17.5t21 35.5l5 17h7v-160h-7
q0 3 -1.5 7.5t-6.5 16.5t-11.5 21.5t-19.5 17t-29 7.5h-115q-56 0 -76 -16t-20 -45v-108h70v-42h-70v-144q0 -26 10 -43.5t25 -24t23 -8.5t15 -2v-2z" />
    <glyph glyph-name="lirasign" unicode="&#x20a4;" horiz-adv-x="532" 
d="M500 -4h-460q19 29 54 78.5t52 74.5t31.5 60t14.5 64v18h-151v42h139q-15 32 -48 70h-91v42h53q-36 49 -42 103q-2 18 -2 28q0 84 64.5 145t168.5 62h4q61 0 121 -21.5t92 -63.5l-24 -100l-7 1l1 13q0 62 -56 106.5t-119 44.5q-86 0 -134.5 -54.5t-48.5 -132.5v-13
q5 -66 41 -118h232v-42h-200q26 -35 39 -70h161v-42h-151l1 -10l-1 -11q-2 -28 -17 -62.5t-30.5 -60t-54.5 -84.5h232q69 1 96.5 13t47.5 47l14 -4z" />
    <glyph glyph-name="euro" unicode="&#x20ac;" horiz-adv-x="738" 
d="M440 -19q-143 0 -249 87.5t-135 222.5h-46v42h39q-3 23 -3 45l1 24h-37v42h42q23 143 131.5 237t256.5 94q184 0 265 -81l-18 -100h-8v6q0 69 -73 113.5t-166 44.5q-86 0 -154.5 -46t-107 -115.5t-50.5 -152.5h226v-42h-230q-1 -8 -1 -24q0 -15 2 -45h229v-42h-222
q24 -123 105.5 -208t202.5 -85q78 0 154 44.5t88 115.5q2 14 2 20q0 5 -2 17l8 2l37 -96q-37 -53 -125.5 -86.5t-161.5 -33.5z" />
    <glyph glyph-name="numerosign" unicode="&#x2116;" horiz-adv-x="1430" 
d="M633 -4h-26v1q-8 12 -105 149t-214.5 303.5t-176.5 251.5q-2 -14 -2 -22v-603q0 -26 10 -43.5t25 -24t23 -8.5t15 -2v-2h-172v2q7 0 15 2t23 8.5t25 24t10 43.5v603q0 26 -10 43.5t-25 24t-23 8.5t-15 2v3h157l440 -623v542q0 26 -10 43.5t-25 24t-23 8.5t-15 2v3h172v-3
q-7 0 -15 -2t-23 -8.5t-25 -24t-10 -43.5v-683zM1081 68q-141 0 -240.5 104t-99.5 250t99.5 250t240.5 104q140 0 239.5 -104t99.5 -250t-99.5 -250t-239.5 -104zM1102 85q20 0 47 5q91 20 148 105t57 197q0 42 -9 85q-25 121 -106.5 199t-179.5 78q-20 0 -47 -5
q-91 -20 -148 -105.5t-57 -197.5q0 -42 9 -85q25 -121 106.5 -198.5t179.5 -77.5zM1368 -4h-575v42h575v-42z" />
    <glyph glyph-name="trademark" unicode="&#x2122;" horiz-adv-x="826" 
d="M816 399h-118v1q5 0 11 1.5t15 10.5t9 25v282q-132 -278 -150 -320q-38 76 -152 321v-283q0 -16 9 -25t15 -10.5t11 -1.5v-1h-97v1q5 0 11 1.5t15 10.5t9 25v285q0 16 -9 25t-15 10.5t-11 1.5v1h100l127 -269l125 269h95v-1q-5 0 -11 -1.5t-14.5 -10.5t-8.5 -25v-285
q0 -16 8.5 -25t14.5 -10.5t11 -1.5v-1zM244 399h-127v1q5 0 11 1.5t15 10.5t9 25v268q0 16 -7.5 22t-25.5 6h-30q-19 0 -31 -2.5t-24.5 -13.5t-19.5 -31h-4l14 74h313l14 -74h-5q-10 29 -27.5 38t-46.5 9h-30q-18 0 -25.5 -6t-7.5 -22v-268q0 -16 9 -25t15 -10.5t11 -1.5v-1
z" />
    <glyph glyph-name="minus" unicode="&#x2212;" horiz-adv-x="305" 
d="M319 357h-380v43h380v-43z" />
    <glyph glyph-name="almostequalto" unicode="&#x2248;" horiz-adv-x="547" 
d="M382 227h-9q-60 0 -133.5 44t-114.5 44h-4q-53 0 -121 -46q76 87 146 87h3q50 -1 128.5 -43t122.5 -42h2q62 0 135 59q-71 -98 -155 -103zM382 323h-9q-60 0 -133.5 44t-114.5 44h-4q-53 0 -121 -46q76 87 146 87h3q50 -1 128.5 -43t122.5 -42h2q62 0 135 59
q-71 -98 -155 -103z" />
    <glyph glyph-name="lessthanorequalto" unicode="&#x2264;" horiz-adv-x="224" 
d="M199 119l-245 229l245 230l7 -5l-157 -225l156 -225zM227 13h-228v43h228v-43z" />
    <glyph glyph-name="greaterthanorequalto" unicode="&#x2265;" horiz-adv-x="224" 
d="M-19 119l-6 4l157 225l-157 225l6 5l246 -230zM-46 13v43h227v-43h-227z" />
    <glyph glyph-name="&.ALT" unicode="&#xe001;" horiz-adv-x="1011" 
d="M775 587l20 -38q-27 -14 -76.5 -26.5t-104 -22t-119 -24.5t-123.5 -31.5t-115 -45.5t-97 -65t-66 -90.5t-25 -121.5q0 -3 0.5 -9.5t0.5 -10.5q8 -137 108 -229.5t238 -92.5q4 0 11 0.5t10 0.5q80 4 145 36.5t105.5 82.5t62 109.5t21.5 120.5v8q-2 62 -26 116.5t-68 88.5
q-123 -39 -165 -61q-116 -62 -116 -182v-14q2 -38 20 -71.5t49 -47.5q3 -2 9 -2q11 0 32.5 14.5t32.5 15.5h5q16 0 26 -11t10 -27q0 -19 -15 -34q-18 -18 -50 -18q-27 0 -66 15q-41 22 -74.5 74.5t-37.5 100.5q-1 6 -1 18q0 35 12.5 67.5t31 57.5t48.5 50t58 42t67 36
t66.5 30.5t66 27.5t57.5 24q79 35 152 105.5t73 141.5v1q-1 32 -19 55.5t-44 24.5q-25 0 -50 -24q8 2 12 2q14 0 24.5 -11t10.5 -25v-3q-1 -20 -12.5 -33.5t-33.5 -13.5h-4q-20 2 -32 16.5t-12 35.5v5q2 30 29 51.5t58 22.5h3q42 0 72.5 -33t30.5 -81q-1 -99 -87 -194
t-187 -131q103 -71 111 -207q0 -3 0.5 -10t0.5 -11q0 -66 -25 -129t-72.5 -116.5t-126 -88.5t-176.5 -40q-9 -1 -27 -1q-165 0 -284 99.5t-127 245.5q0 4 -0.5 10.5t-0.5 9.5q0 115 75.5 209t195.5 136q-83 20 -129.5 76t-46.5 125q0 13 1 20q10 104 106 163.5t225 65.5h21
q77 0 142.5 -19.5t108 -61.5t43.5 -99v-3q0 -60 -25 -87.5t-62 -30.5h-7q-22 0 -39 7.5t-19 16.5q6 7 15 18t24.5 42.5t15.5 58.5v2q-1 55 -61.5 93.5t-139.5 38.5q-3 0 -9 -0.5t-9 -0.5q-50 -3 -92.5 -14.5t-81 -34.5t-60.5 -63t-22 -94q0 -15 1 -23q13 -166 240 -166
q104 0 217.5 32t146.5 58z" />
    <glyph glyph-name="A.ALT" unicode="&#xe002;" horiz-adv-x="907" 
d="M1040 -310q9 -22 21.5 -38.5t23.5 -24.5t23 -12.5t17.5 -5t9.5 -0.5v-3h-206l-1 2q7 0 16 1.5t22.5 13t13.5 31.5q0 17 -8 36l-88 227q-33 -137 -154.5 -226.5t-280.5 -89.5q-184 0 -314 118t-130 284q0 157 117.5 272t289.5 128l138 355q23 5 34.5 11.5t23.5 25.5h8
q357 -930 424 -1105zM665 487l-95 249l-130 -332q5 0 36 0.5t43.5 1.5t40.5 3t42 7.5t31 13.5t24.5 21t7.5 30v6zM429 373l-32 -79h1l-12 -29l-45 -116l-25 -66q-8 -20 -8 -37q0 -20 13.5 -31t22 -12.5t15.5 -1.5v-2h-166v2h1q10 0 22.5 3t35 22.5t35.5 53.5l112 290
q-138 -20 -230.5 -126t-92.5 -248q0 -113 60 -205.5t158 -138.5q54 -25 110 -31q17 -4 40 -4h4q109 2 185.5 82t76.5 192q0 108 -71 186.5t-175 86.5q0 -13 -13 -13t-13 13t13 13t13 -13q110 -5 186 -86.5t76 -194.5q0 -71 -32 -132t-86 -100q100 46 160.5 138.5t60.5 206.5
q0 48 -12 95l-27 71l-101 262l-8 23q-19 -49 -73 -62q-26 -5 -56.5 -7.5t-69 -3t-53.5 -1.5z" />
    <glyph glyph-name="B.ALT" unicode="&#xe003;" horiz-adv-x="940" 
d="M514 398q82 0 127.5 54t45.5 127q0 67 -37.5 115.5t-102.5 48.5h-188q-87 0 -96 -46v-299h251zM453 -368q154 0 263.5 109t109.5 262q0 150 -106 258t-258 113h-102q-56 0 -76.5 -16t-20.5 -45v-11q23 3 42 3q117 0 184.5 -73t70.5 -166v-5q0 -88 -62.5 -154t-149.5 -75
v-1q0 -13 -13 -13t-13 13t13 13q11 0 13 -11q81 12 138 76.5t57 146.5v6q-3 86 -68 153.5t-160 67.5q-25 0 -52 -6v-198q0 -26 9.5 -43t24 -23.5t23 -8.5t15.5 -2h1v-4h-208v4h1q7 0 15.5 2t22.5 8t23.5 22.5t10.5 40.5v176q-58 -35 -89.5 -99t-31.5 -141v-14q3 -93 48 -178
t125 -135q-60 65 -60 142q0 50 30 86t90 46v-3q-94 -23 -94 -106q0 -75 70.5 -146t161.5 -71h2zM451 -393q-107 0 -194.5 35t-141 92t-82 126t-28.5 142q0 98 50.5 176t145.5 110v398q-1 20 -8 35t-16 22t-21 11.5t-17.5 5t-9.5 0.5h-1v3h440q93 0 144.5 -53t51.5 -128
q0 -70 -46.5 -128t-129.5 -74q138 -39 225.5 -142.5t87.5 -234.5q0 -164 -132 -280t-318 -116z" />
    <glyph glyph-name="C.ALT" unicode="&#xe005;" horiz-adv-x="808" 
 />
    <glyph glyph-name="D.ALT" unicode="&#xe006;" horiz-adv-x="913" 
d="M470 -163q-79 0 -142 45t-63 105v8h50v4h-1q-26 0 -45 14q8 30 35 57l-3 2q-25 -22 -40 -52q-19 19 -19 56v196q26 6 51 6q97 0 164.5 -75.5t67.5 -174.5q0 -79 -47 -145l1 -1q53 67 58 147v12q0 60 -28 118t-89 100t-141 42q-24 0 -37 -2v380q0 27 16.5 42.5t62.5 17.5
h146q79 0 141 -32.5t100.5 -88.5t58.5 -127t20 -151v-9q-1 -67 -18 -143.5t-49 -151.5t-88 -129.5t-125 -66.5q-18 -3 -37 -3zM337 -220h-8q-114 2 -192 71t-78 189v4q1 56 32.5 112.5t88.5 90.5v-175q-1 -24 -10.5 -40.5t-23.5 -22.5t-22.5 -8t-15.5 -2h-1v-4h145
q-3 -14 -3 -26q0 -65 61 -116q34 -28 65 -38.5t75 -16.5q-57 -18 -113 -18zM157 -460l2 2q-47 31 -47 76q0 35 29 70q45 55 117 66q46 -10 97 -12h8q92 0 179.5 35t161 102t118.5 178.5t45 250.5v21q-2 87 -28 163t-74 137t-125 96t-174 35h-360v-3q7 0 15.5 -2t23.5 -8
t25 -24t10 -44v-393q-85 -28 -130 -96.5t-45 -140.5q0 -98 55.5 -170.5t146.5 -108.5q-49 -18 -80 -56t-31 -80q0 -60 61 -94zM479 -131q-13 0 -13 13t13 13t13 -13t-13 -13z" />
    <glyph glyph-name="E.ALT" unicode="&#xe007;" horiz-adv-x="804" 
 />
    <glyph glyph-name="F.ALT" unicode="&#xe008;" horiz-adv-x="646" 
 />
    <glyph glyph-name="G.ALT" unicode="&#xe009;" horiz-adv-x="923" 
 />
    <glyph glyph-name="H.ALT" unicode="&#xe00a;" horiz-adv-x="1288" 
 />
    <glyph glyph-name="I.ALT" unicode="&#xe00b;" horiz-adv-x="808" 
 />
    <glyph glyph-name="J.ALT" unicode="&#xe00c;" horiz-adv-x="836" 
 />
    <glyph glyph-name="K.ALT" unicode="&#xe00d;" horiz-adv-x="661" 
 />
    <glyph glyph-name="L.ALT" unicode="&#xe00e;" horiz-adv-x="721" 
 />
    <glyph glyph-name="M.ALT" unicode="&#xe00f;" horiz-adv-x="1066" 
 />
    <glyph glyph-name="N.ALT" unicode="&#xe011;" horiz-adv-x="1055" 
 />
    <glyph glyph-name="O.ALT" unicode="&#xe012;" horiz-adv-x="897" 
 />
    <glyph glyph-name="P.ALT" unicode="&#xe013;" horiz-adv-x="780" 
 />
    <glyph glyph-name="Q.ALT" unicode="&#xe014;" horiz-adv-x="824" 
d="M791 -379h-8q-44 0 -103.5 28t-109 61.5t-116.5 61.5t-124 28h-5q-128 -4 -180 -42q-1 -3 -6 -5q-45 -36 -54 -112h-6q3 96 70 160q29 34 88 67.5t140 72t122 62.5l1 1q-50 -14 -101 -14q-163 0 -278.5 116.5t-115.5 281.5q0 164 115.5 280.5t278.5 116.5t278.5 -116.5
t115.5 -280.5q0 -118 -62.5 -215t-165.5 -146q-10 -8 -22 -17t-21.5 -15.5t-27 -16.5t-25.5 -14.5t-29.5 -15.5t-27 -14t-30.5 -15.5t-28 -13.5l-71 -35q38 9 80 9h4q51 0 124 -31t134.5 -67.5t129 -67.5t107.5 -31h9q37 4 57 34.5t20 73.5q0 54 -31.5 97.5t-87.5 44.5
q-54 0 -91 -19q1 -2 1 -5q0 -12 -11 -12q-12 0 -12 12q0 11 12 11q6 0 9 -5q50 25 92 25h1q58 0 95 -47.5t37 -109.5q0 -64 -42.5 -110.5t-128.5 -50.5zM399 11q138 0 228 110.5t90 268.5t-90 266t-228 108q-92 0 -166 -51q32 8 65 8h4q103 0 178 -67t78 -171v-4
q0 -88 -62 -154.5t-150 -76.5v-1q0 -13 -13 -13t-13 13t13 13q11 0 13 -11q81 13 137.5 76.5t56.5 145.5v7q-3 92 -73 156t-160 64q-21 0 -46 -5q-74 -19 -119 -74q-56 -86 -65 -198v-1q-1 -11 -1 -32q0 -43 8 -86q11 59 48.5 98t88.5 39q39 0 79 -23l-2 -2q-30 15 -60 15
q-54 0 -87.5 -49.5t-33.5 -118.5q0 -52 19 -96q44 -71 112.5 -112.5t150.5 -41.5z" />
    <glyph glyph-name="R.ALT" unicode="&#xe015;" horiz-adv-x="812" 
d="M470 -397h-3q-108 0 -197 36t-145.5 95t-87.5 131.5t-32 149.5v3q0 106 55 194.5t161 134.5v337q-1 24 -10.5 40.5t-23 22.5t-22 8t-15.5 2h-1v4h440q93 0 144.5 -53t51.5 -128q0 -83 -62 -145.5t-172 -63.5h-48q58 -22 111 -73q22 5 57 5q128 -1 211.5 -87.5
t84.5 -215.5q0 -98 -43.5 -176t-116 -125t-159 -71.5t-178.5 -24.5zM465 -370q74 2 132 25q61 26 101 82.5t40 111.5q0 40 -23 69t-70 40l1 4q59 -10 89.5 -46.5t30.5 -86.5q0 -46 -25 -92t-68 -78q101 43 158 136.5t61 199.5l-72 -1q-49 0 -71.5 17t-81.5 95
q-99 135 -112 150q-56 -28 -90 -82t-36 -114v-7q0 -82 56.5 -145.5t137.5 -76.5q2 11 13 11q13 0 13 -13t-13 -13t-13 13v1q-88 9 -150 75.5t-62 154.5v4q2 62 35.5 119.5t93.5 89.5q-57 64 -110 85q-21 3 -42 3q-57 0 -104 -19v-266q0 -26 9.5 -43t24 -23.5t23 -8.5
t15.5 -2h1v-4h-208v4h1q7 0 15.5 2t22 8t23 22.5t10.5 40.5l1 240q-75 -43 -113 -119t-38 -167v-7q2 -73 28.5 -141.5t74.5 -124t122.5 -89.5t164.5 -34h4zM284 370q84 26 217 26h33q83 0 128.5 54t45.5 128q0 66 -37.5 114.5t-102.5 48.5h-188q-56 0 -76 -16t-20 -45v-310z
M892 -2v9q0 97 -47.5 170.5t-136.5 97.5q-25 6 -49 6l-27 -2q34 -36 73 -91.5t64 -93.5t58 -67t64 -29h1z" />
    <glyph glyph-name="S.ALT" unicode="&#xe016;" horiz-adv-x="880" 
d="M451 -393q-107 0 -194.5 35t-141 92.5t-82 126.5t-28.5 141q0 129 84 215.5t212 87.5h4q117 0 185 -73.5t70 -165.5v-5q0 -88 -62.5 -154t-149.5 -75v-1q0 -13 -12 -13q-13 0 -13 13t13 13q10 0 12 -11q82 13 138.5 77t56.5 146v6q-2 86 -67.5 153.5t-159.5 67.5
q-25 0 -52 -6q-90 -24 -137 -97.5t-47 -170.5v-12q4 -106 61 -199.5t158 -136.5q-44 33 -68.5 78.5t-24.5 91.5q0 50 30.5 86.5t89.5 46.5v-4q-93 -21 -93 -108q0 -56 40.5 -112.5t101.5 -82.5q53 -22 108 -22q135 0 239 112.5t104 255.5q0 76 -26 138.5t-67.5 104.5
t-92 77.5t-101 65t-92.5 58.5t-68.5 66t-26.5 80v2q0 88 64.5 134t159.5 46h4q66 0 124.5 -22t89.5 -62l-24 -99l-8 1l1 15q0 63 -56 102t-131 43h-13q-69 0 -117.5 -30.5t-48.5 -89.5v-1q0 -36 28 -69.5t72.5 -63t98 -61.5t107.5 -73t98.5 -89.5t72 -119t27.5 -153.5
q0 -164 -131.5 -280t-318.5 -116z" />
    <glyph glyph-name="T.ALT" unicode="&#xe017;" horiz-adv-x="988" 
d="M545 321q-89 0 -151.5 57.5t-62.5 139.5q0 84 63 140.5t154 56.5h123q14 -13 14 -45l2 -299q-61 -50 -142 -50zM420 913q5 0 9 4q3 3 3 9q-2 10 -12 12q-5 0 -8 -3q-4 -4 -4 -9v-3q-21 -10 -33 -27q-13 -19 -13 -40q0 -52 57 -92l33 -18q0 -2 -4 -3q-1 0 -5 -1.5t-6 -2.5
t-7 -3t-7 -3q-10 -4 -13 -7q-50 -32 -80 -81t-30 -112q0 -33 9 -62q-7 -43 -34 -74q-27 -32 -60 -32q-26 0 -52 29l-2 -1q30 -38 65 -38q29 0 57 23q26 23 39 58q28 -58 84 -93q56 -36 123 -36q87 0 148 54l10 8l1 -293q0 -29 -10 -43q-10 -16 -23 -23q-13 -8 -24 -9
q-3 0 -6.5 -0.5t-5.5 -1t-3 -0.5h-1v-4h209v4h-1q-1 0 -3 0.5t-5.5 1t-6.5 0.5q-11 1 -25 9q-13 7 -23 23q-10 14 -10 43v155q50 -54 72 -118q23 -66 23 -130q0 -90 -39 -173q-40 -82 -112 -133q-71 -52 -169 -52q-69 0 -150 32q-63 29 -102 84q-40 55 -40 110q0 38 22 67
q23 29 71 41v4q-63 -12 -91 -48q-29 -38 -29 -84q0 -45 24 -91q23 -45 69 -80q-106 48 -160 141q-54 90 -59 195v12q0 92 45 167q45 74 138 101q27 6 52 6q64 0 116 -32q51 -33 81 -83q30 -51 31 -106v-6q0 -83 -56 -145q-55 -63 -139 -78q-2 6 -4 8q-4 3 -9 3t-9 -4t-4 -9
t4 -9t9 -4t9 4t4 9v1q89 11 151 76q61 64 61 153v5q-1 56 -30 112q-28 52 -85 91q-57 36 -141 36h-4q-130 -4 -212 -89q-83 -86 -83 -214q0 -99 42 -172q41 -75 110 -125q66 -50 153 -76q86 -26 172 -26h12q191 7 296 112q102 104 102 243q0 78 -35 160q-34 80 -107 153
q-1 139 -1 418q5 24 21 33q18 8 47 8l61 1q34 0 66 -6q31 -8 54 -28q24 -22 40 -67h10l-12 56q-5 24 -20 92h-11q-1 0 -1 -1q-1 0 -2 -1l-5 -2q-6 -4 -22 -9q-15 -5 -32 -5h-445q-5 0 -13 2q-45 7 -78 40q-32 32 -32 66q0 18 10 32q7 11 24 22q3 -8 11 -8z" />
    <glyph glyph-name="U.ALT" unicode="&#xe018;" horiz-adv-x="923" 
d="M410 -390q-134 0 -240.5 69.5t-149.5 205.5q-15 49 -15 98q0 96 55 172t151 107q42 15 93 15v402q0 26 -10 43.5t-25 24t-23 8.5t-15 2v3h213v-3q-7 0 -15.5 -2t-23.5 -8t-25 -24t-10 -44v-412q56 -16 98 -55.5t63 -98.5q11 -32 11 -72q0 -21 -2 -32q14 -4 45 -6h4
q96 0 169.5 73t73.5 195v408q0 26 -10 43.5t-25 24t-23 8.5t-15 2v3h180v-3q-7 0 -15.5 -2t-23.5 -8t-25 -24t-10 -44v-408q0 -80 -31 -142q39 -39 51 -85q8 -31 8 -69q0 -99 -65.5 -183t-176.5 -133t-241 -49zM403 -352q-64 22 -105.5 72.5t-41.5 104.5q0 77 82 119l1 -3
q-61 -37 -61 -95q0 -61 60.5 -116.5t138.5 -62.5l22 -1q87 0 174 48t143.5 127t56.5 161q0 34 -10 64q-10 32 -30 61q-36 -70 -103.5 -108t-144.5 -39q-17 0 -51 4q-14 -52 -49.5 -94.5t-85.5 -63.5q0 -1 1 -1l1 -4q0 -10 -10 -13l-4 -1q-9 0 -12 10l-1 4q0 9 9 12l4 1
q9 0 12 -7q47 23 79.5 65.5t43.5 94.5q-90 19 -151.5 88t-66.5 180h-5q-62 0 -115 -31q-110 -69 -110 -207q0 -58 19 -112l1 1l1 -3h-2l1 -1q35 -100 117 -171.5t192 -82.5zM526 3l1 23q0 37 -11 69q-38 104 -145 139q6 -94 48.5 -152.5t106.5 -78.5z" />
    <glyph glyph-name="V.ALT" unicode="&#xe019;" horiz-adv-x="1368" 
d="M1057 -47h-7q-31 32 -72 33l-186 485q-71 184 -174 269.5t-217 85.5q-68 0 -133 -29t-113 -76t-77 -108t-29 -123q0 -20 3 -40q13 -75 69 -130t116 -55q66 0 100 69l3 -1q-38 -91 -123 -91q-52 0 -102 36.5t-76 95.5q19 -108 97.5 -184.5t180.5 -103.5q45 -12 91 -12
q72 0 131 32t92 96q23 49 23 100q0 78 -49.5 140.5t-120.5 80.5q-30 7 -52 7q-69 0 -129.5 -40.5t-85.5 -105.5q9 -4 9 -11l-1 -4q-2 -10 -11 -10l-4 1q-10 2 -10 12v3q2 10 13 10h3q25 71 87.5 115.5t136.5 44.5q26 0 52 -6q76 -20 130 -83t54 -154q0 -32 -9 -70
q-25 -105 -104 -167t-182 -62q-36 0 -75 9q-125 29 -213 135t-88 262q0 59 15 125q36 155 148 255t249 105h11q80 0 150.5 -35t123 -96t90.5 -127t68 -143l184 -480l256 663q8 20 8 37q0 20 -13.5 31t-22 12.5t-15.5 1.5l1 2h186v-2h-2q-13 0 -28 -3t-40 -22.5t-38 -53.5z
" />
    <glyph glyph-name="W.ALT" unicode="&#xe01a;" horiz-adv-x="1664" 
d="M1330 -47h-7q-25 32 -65 33l-89 271q-25 -62 -118 -304h-7q-24 31 -65 32l-102 266l-1 -1l-84 221q-71 184 -174 269.5t-217 85.5q-68 0 -133 -29t-113 -76t-77 -108t-29 -123q0 -20 3 -40q13 -75 69 -130t116 -55q65 0 99 69l3 -1q-37 -91 -122 -91q-52 0 -102 36.5
t-76 95.5q19 -108 97.5 -184.5t180.5 -103.5q45 -12 90 -12q72 0 131 32t93 96q23 49 23 99q0 78 -49.5 141t-120.5 81q-32 7 -53 7q-69 0 -129 -40.5t-85 -105.5q8 -3 8 -12v-3q-3 -10 -12 -10l-4 1q-10 2 -10 11l1 4q2 10 13 10h3q24 70 87 115t137 45q26 0 52 -6
q75 -20 129.5 -83.5t54.5 -153.5q0 -34 -9 -70q-26 -105 -104.5 -167t-181.5 -62q-37 0 -76 9q-125 29 -212.5 135t-87.5 261q0 60 15 126q36 155 147.5 255t249.5 105h11q80 0 150.5 -35t123 -96t90.5 -127t68 -143l185 -481l111 284l-121 370q-14 36 -32 56.5t-25.5 23
t-12.5 2.5v2h190v-2q-7 0 -15.5 -1.5t-22 -13t-13.5 -31.5q0 -16 8 -36l85 -263l102 262q8 20 8 36q0 20 -13.5 31.5t-22 13t-15.5 1.5v2h165v-2h-2q-10 0 -22.5 -3t-34 -22.5t-34.5 -53.5l-118 -304l113 -348q50 120 134.5 348.5t116.5 311.5q8 20 8 38q0 19 -12 30
t-20 12.5t-15 1.5v2h159v-2h-1q-9 0 -20 -3t-32 -22.5t-34 -53.5z" />
    <glyph glyph-name="X.ALT" unicode="&#xe01b;" horiz-adv-x="1221" 
d="M396 -26l-20 1q-70 4 -135 34t-118.5 82.5t-85.5 135t-32 181.5l1 34q9 158 102 269.5t229 139.5q35 7 72 7q90 0 176 -48t145.5 -114.5t111.5 -152.5l78 -132l190 281q10 20 10 34q0 31 -39 31h-1v3h161v-3h-3q-48 0 -97 -77q-41 -63 -115.5 -172.5t-86.5 -127.5
l194 -301q22 -35 49.5 -55t39.5 -22.5t20 -2.5v-3h-207v3q41 0 41 32q0 19 -18 48q-53 73 -158 244l-179 -259q-10 -20 -10 -33q0 -32 40 -32h1l-1 -3h-175l-1 3q4 0 9 0.5t18.5 4.5t26.5 11.5t29.5 23t30.5 37.5l192 277l-100 162q-88 149 -189 218t-203 69q-94 0 -176 -53
t-128.5 -135t-46.5 -167q0 -41 14 -83q23 -65 80 -109t114 -44q80 0 106 87l3 -1q-13 -56 -48 -84t-82 -28t-94.5 27.5t-78.5 75.5q37 -104 127 -166t196 -72q11 -1 32 -1q91 0 161 43t97 126q9 33 9 64q0 90 -62.5 155t-145.5 72l-17 1q-79 0 -142.5 -52.5t-80.5 -130.5
q10 -2 10 -11v-2q0 -12 -11 -12h-2q-13 0 -13 13q2 12 12 12h3q14 84 80 142t150 58l16 -1q89 -7 157 -74t68 -176l-1 -23q-8 -115 -92.5 -193t-206.5 -86z" />
    <glyph glyph-name="Y.ALT" unicode="&#xe01c;" horiz-adv-x="1162" 
d="M990 -4h-209v2q7 0 15.5 2t23.5 8t25 24t10 44v280q-22 35 -57 98t-60.5 108.5t-65 100.5t-78.5 90t-93.5 60.5t-116.5 27.5h-12q-118 0 -209 -88.5t-114 -230.5q-3 -18 -3 -37t3 -37q13 -75 69 -130t116 -55q65 0 99 69l3 -1q-37 -91 -123 -91q-52 0 -102 36.5t-76 95.5
q19 -108 97.5 -184.5t181.5 -103.5q45 -12 90 -12q72 0 131 32t93 96q23 49 23 99q0 78 -49.5 140.5t-120.5 81.5q-31 7 -53 7q-69 0 -129 -40.5t-85 -105.5q8 -3 8 -13v-2q-3 -10 -14 -10h-2q-10 3 -10 14v2q3 10 14 10h3q24 70 86 115t136 45q29 0 54 -7q75 -19 129 -82
t54 -153q0 -34 -9 -71q-25 -105 -103.5 -167t-181.5 -62q-37 0 -76 9q-147 34 -222 143.5t-75 253.5v14q4 203 117 335t269 133h1q44 0 85.5 -10.5t75.5 -26t68.5 -44t60 -53t55 -65t48 -68t44.5 -75t38.5 -72.5t36.5 -72l169 284q8 19 8 29q0 17 -12.5 27.5t-25.5 12.5
l-13 1v3h155v-3h-2q-43 0 -88 -77l-178 -299v-305q0 -26 10 -43.5t25 -24t23 -8.5t15 -2v-2z" />
    <glyph glyph-name="Z.ALT" unicode="&#xe01d;" horiz-adv-x="973" 
d="M450 -396q-86 0 -159.5 23t-125.5 61.5t-88.5 89t-54 106.5t-17.5 113v2q0 129 84 215.5t211 87.5h4q124 0 197 -85l363 523h-216q-234 0 -277 -156l-14 5l57 170h540l-417 -599q21 -44 23 -97q0 -27 -4 -48h155q33 0 64 4.5t75 18t78.5 47.5t48.5 85l14 -4l-37 -109
q-5 -19 -21 -62q-70 -181 -196 -286t-287 -105zM540 15q3 21 3 44q-1 41 -19 82l-87 -126h103zM465 -364q56 0 113.5 27t103.5 67.5t87 90.5t67.5 94t40.5 80h-326q-20 -66 -76.5 -112.5t-126.5 -53.5v-1q0 -13 -13 -13t-13 13t13 13q11 0 13 -11q66 10 117.5 55.5
t69.5 109.5h-187l13 20l127 183q-69 82 -173 82q-25 0 -52 -6q-89 -24 -136 -97.5t-47 -170.5v-12q3 -106 60 -199.5t159 -136.5q-44 33 -68.5 78.5t-24.5 91.5q0 50 30 86t90 46v-3q-47 -11 -70 -40t-23 -68q0 -56 40.5 -113t101.5 -82q42 -18 90 -18z" />
    <glyph glyph-name="a.salt" unicode="&#xe01f;" horiz-adv-x="598" 
d="M60 204q0 -95 60.5 -148.5t144.5 -55.5h2q40 0 82 15t73 46t31 70v113q0 78 -50.5 120.5t-132.5 43.5h-5q-84 0 -144.5 -54t-60.5 -150zM793 -133q-4 0 -6 4q-37 -9 -77 -9q-94 0 -167.5 50t-87.5 139q0 -1 -0.5 -2.5t-1.5 -2.5q-78 -66 -190 -66q-106 1 -184.5 64.5
t-78.5 159.5q0 98 79.5 161.5t187.5 63.5h4q108 -3 182 -67v41q0 74 -50.5 110t-124.5 36h-10q-61 -3 -118.5 -32.5t-57.5 -81.5h-6l-14 75q27 27 84 43t122 16h6q93 -1 159.5 -35t68.5 -100q0 -59 -0.5 -176.5t-0.5 -176.5q4 -93 70 -154t153 -61q22 0 53 7q0 6 6 6t6 -6
t-6 -6z" />
    <glyph glyph-name="b.salt" unicode="&#xe020;" horiz-adv-x="675" 
d="M83 691q0 27 -15.5 42.5t-26 17.5t-19.5 2h-1v3q97 0 122 16v-268q80 65 188 65q124 0 211.5 -86t87.5 -209t-87 -208.5t-212 -85.5q-48 0 -103 19t-66 19h-1q-16 0 -32 -8q-26 -70 -94.5 -109t-149.5 -39q-40 0 -76 9q-2 -4 -6 -4q-6 0 -6 6t6 6t6 -6v-1q23 -4 49 -4
q94 0 157.5 58.5t67.5 154.5v610zM331 549q-97 0 -142.5 -53t-45.5 -143v-188q0 -81 51 -122.5t138 -41.5q107 0 170.5 82t63.5 191q0 108 -64 191.5t-171 83.5z" />
    <glyph glyph-name="c.salt" unicode="&#xe021;" horiz-adv-x="547" 
d="M65 275q0 -109 63 -192.5t169 -83.5q60 0 116.5 29.5t65.5 82.5q2 8 2 13q0 4 -2 14l6 1l27 -71q-27 -40 -92.5 -65t-120.5 -25q-124 0 -211.5 87t-87.5 210t87.5 209.5t211.5 86.5q102 0 160 -33q89 95 89 137v2q-1 10 -12 18t-27 8q-14 0 -33 -8l-1 1q19 10 40 10
q30 -1 48.5 -20t18.5 -57q0 -74 -90 -137v-2l-24 -15v1q-18 -12 -46.5 -27.5t-46.5 -26t-36.5 -23.5t-27.5 -25.5t-9 -25.5q0 -12 7 -23l-1 -2q-13 10 -13 26q0 23 23 50t47 46q14 9 71 68q-53 38 -137 38q-106 0 -170 -84t-64 -192z" />
    <glyph glyph-name="d.salt" unicode="&#xe022;" horiz-adv-x="646" 
d="M488 696q0 27 -15.5 42.5t-26 17.5t-19.5 2h-1v2h22q77 2 99 16v-695q4 -96 67.5 -154.5t157.5 -58.5q26 0 49 4v1q0 6 6 6t6 -6t-6 -6q-4 0 -6 4q-38 -9 -76 -9q-93 0 -166.5 49.5t-87.5 137.5l-3 -2q-82 -67 -189 -67q-124 0 -211.5 86.5t-87.5 209.5t87.5 210
t211.5 87q105 0 189 -67v190zM488 357q0 86 -45 140.5t-144 54.5q-72 0 -127 -41.5t-81.5 -103.5t-26.5 -131t26.5 -131t81.5 -103.5t127 -41.5q83 0 136 46t53 120v191z" />
    <glyph glyph-name="e.salt" unicode="&#xe023;" horiz-adv-x="571" 
d="M94 275q0 -114 64 -193q7 58 44 105.5t85.5 79t95.5 60t79.5 62.5t32.5 72q0 1 -0.5 5t-0.5 5q-3 28 -30.5 46.5t-62 26t-72.5 7.5q-72 0 -127 -41.5t-81.5 -103.5t-26.5 -131zM329 571q90 0 145.5 -30t55.5 -86q0 -34 -13.5 -62t-41 -49.5t-53 -37t-64.5 -36t-62 -35.5
q-38 -27 -81 -73.5t-43 -82.5q0 -9 3 -17q63 -63 152 -63q60 0 116.5 30t65.5 82q1 4 1 13t-1 14l6 1l27 -71q-28 -40 -93.5 -65t-119.5 -25q-124 0 -211.5 87t-87.5 210t87.5 209.5t211.5 86.5z" />
    <glyph glyph-name="f.salt" unicode="&#xe024;" horiz-adv-x="311" 
d="M83 568v27q0 75 55.5 129t125.5 56h4q57 0 98 -41l-14 -75h-6v6q0 41 -26 66t-62 25q-46 0 -81 -41.5t-35 -122.5v-26h113v-18h-78q-29 0 -35 -39v-434q-1 -102 -77.5 -160t-179.5 -58q-39 0 -76 9q-2 -4 -6 -4q-6 0 -6 6t6 6t6 -6v-1q23 -4 49 -4q94 0 157.5 58.5
t67.5 154.5v468h-70v19h70z" />
    <glyph glyph-name="g.salt" unicode="&#xe025;" horiz-adv-x="620" 
d="M294 -315q90 0 160.5 56t70.5 144t-70 144t-161 56q-39 0 -72 -10q-74 -21 -116 -74.5t-42 -115.5q0 -88 70 -144t160 -56zM330 398q-12 9 -12 26q0 23 23 51t46 45q1 0 1 1l2 1q-44 34 -100 34h-5q-81 0 -143 -62q-61 -63 -61 -148q0 -74 52 -127q53 -53 126 -53
q84 0 144 62q61 63 61 148q0 75 -52 127l-1 1q-43 -24 -65 -42.5t-22 -38.5q0 -10 8 -23zM410 540q56 52 108 114t52 95v3q-1 10 -11.5 18t-27.5 8q-14 0 -33 -8v1q17 10 35 10h4q30 0 49 -19t19 -57q0 -32 -14 -59.5t-41.5 -51t-51 -39t-60.5 -35.5q87 -66 87 -159
q0 -91 -78 -150.5t-174 -59.5q-46 0 -85 13q-7 -8 -7 -17q0 -18 22 -31t53 -13q12 2 38 2q67 0 133 -23.5t114 -75.5t48 -121t-48 -121t-114 -75.5t-133 -23.5t-132.5 23.5t-113.5 75.5t-48 121q0 71 50.5 123.5t124.5 77.5q-13 2 -24.5 16.5t-11.5 32.5q0 23 20 40
q-59 26 -98 76t-39 110q0 93 77 152t177 61h6q73 0 128 -34z" />
    <glyph glyph-name="h.salt" unicode="&#xe026;" horiz-adv-x="680" 
d="M138 490q36 40 90 61.5t113 21.5q101 -1 176.5 -59.5t77.5 -160.5v-272q4 -96 67.5 -154.5t156.5 -58.5q26 0 49 4v1q0 6 7 6q6 0 6 -6t-6 -6q-4 0 -6 4q-37 -9 -77 -9q-103 0 -179.5 58t-78.5 160v271q-4 95 -63.5 147.5t-141.5 53.5h-2q-80 0 -134.5 -50t-54.5 -147
v-296q0 -27 16.5 -44t43.5 -17h2v-2h-184v2q8 0 19 2t27 16.5t16 40.5v639q0 27 -15.5 42.5t-26 17.5t-19.5 2h-1v3h26q75 0 96 14v-285z" />
    <glyph glyph-name="i.salt" unicode="&#xe027;" horiz-adv-x="268" 
d="M136 613q-18 0 -30 12.5t-12 29.5t12 29.5t30 12.5q22 0 32.5 -15.5t10.5 -37.5q0 -4 -6 -45t-6 -68v-473q0 -26 15.5 -40.5t26 -16.5t19.5 -2h1v-3h-183v3h1q9 0 19.5 2t26 16.5t15.5 40.5v452q0 27 -15.5 42.5t-26 17.5t-19.5 2h-1v3h48q56 13 72 51q-11 -13 -30 -13z
" />
    <glyph glyph-name="j.salt" unicode="&#xe028;" horiz-adv-x="290" 
d="M187 532v-684q0 -87 -53.5 -132t-133.5 -50v9q56 5 92 46.5t36 128.5v658q0 27 -15.5 42.5t-26.5 17.5t-20 2h-1v3q33 0 50 1q25 5 44 20t27 33q-11 -13 -30 -13q-17 0 -29.5 12.5t-12.5 29.5t12.5 29.5t29.5 12.5q22 0 32.5 -15.5t10.5 -37.5q0 -4 -6 -45t-6 -68z" />
    <glyph glyph-name="k.salt" unicode="&#xe029;" horiz-adv-x="552" 
d="M-115 -138q-39 0 -76 9q-2 -4 -6 -4q-6 0 -6 6t6 6t6 -7q23 -4 49 -4q94 0 157.5 58.5t67.5 154.5v615q0 27 -15.5 42.5t-26 17.5t-19.5 2h-1v2q101 0 122 15v-515l210 233q31 35 31 54q0 21 -37 25v2h174v-2q-7 0 -18.5 -1.5t-41.5 -16.5t-54 -42l-180 -200l229 -253
q24 -27 54.5 -42.5t48.5 -16.5l18 -2v-2h-188v2q25 3 25 18q0 14 -23 40l-198 219l-50 -56v-139q-1 -68 -39.5 -119t-95.5 -75t-123 -24z" />
    <glyph glyph-name="l.salt" unicode="&#xe02a;" horiz-adv-x="205" 
d="M319 -138q-103 0 -179 58t-78 160v613q0 27 -15.5 42.5t-26 17.5t-19.5 2h-1v3h11q86 0 111 16v-693q4 -96 67 -154.5t156 -58.5q26 0 49 4q0 7 6 7t6 -6t-6 -6q-5 0 -5 4q-37 -9 -76 -9z" />
    <glyph glyph-name="m.alt" unicode="&#xe02b;" horiz-adv-x="1119" 
d="M1232 -138q-103 0 -179 58t-78 160v274q-4 95 -64.5 147t-143.5 52q-80 -1 -134 -49t-54 -144l-1 -301q0 -20 7.5 -34t19 -19t18.5 -6.5t12 -1.5h1v-2h-174v3h2q6 0 13 1.5t18 6.5t18 18.5t7 32.5v296q-4 95 -65.5 147t-144.5 52q-79 0 -133.5 -48.5t-54.5 -145.5v-300
q0 -27 16 -44t44 -17h2v-2h-184v2h1q10 0 21 2t25.5 16t14.5 39v452q0 27 -15.5 42.5t-26 17.5t-19.5 2h-1v3q96 0 122 16v-96q71 79 202 81q71 0 132 -29.5t94 -84.5q18 23 39 44q73 70 191 70q102 0 177.5 -57.5t77.5 -160.5v-274q4 -96 67.5 -154.5t156.5 -58.5
q26 0 49 4q0 7 6 7t6 -6t-6 -6q-4 0 -6 4q-38 -9 -76 -9z" />
    <glyph glyph-name="n.salt" unicode="&#xe02c;" horiz-adv-x="661" 
d="M774 -138q-103 0 -179 58t-77 160l1 273q-4 95 -65 147.5t-144 52.5q-80 0 -134.5 -48.5t-54.5 -145.5v-300q0 -27 16 -44t44 -17h2v-2l-183 -1v3q7 0 17.5 1.5t27.5 16.5t17 42v452q0 26 -13.5 41t-24.5 18t-22 3h-2v3q100 0 121 13v-96q72 81 200 81q102 0 178 -58
t79 -160v-274q3 -96 66.5 -154.5t156.5 -58.5q26 0 49 4q0 7 6 7t6 -6t-6 -6q-4 0 -6 4q-38 -9 -76 -9z" />
    <glyph glyph-name="o.salt" unicode="&#xe02d;" horiz-adv-x="688" 
d="M332 3q95 0 164 83t69 192q0 110 -69.5 193t-178.5 83t-179 -83t-70 -193q0 -76 32.5 -139.5t93.5 -101.5q-61 64 -61 141q0 50 30.5 86.5t89.5 46.5l1 -4q-51 -12 -76 -44t-25 -75q0 -68 53 -126.5t126 -58.5zM317 -19q-128 0 -222.5 85.5t-94.5 211.5q0 125 94.5 210.5
t222.5 85.5t222.5 -85.5t94.5 -210.5q0 -126 -94.5 -211.5t-222.5 -85.5z" />
    <glyph glyph-name="p.salt" unicode="&#xe02e;" horiz-adv-x="635" 
d="M-115 -331q-39 0 -76 9q-1 -4 -6 -4q-6 0 -6 6t6 6t6 -7q23 -4 49 -4q93 0 156 58.5t67 154.5v621q0 27 -15.5 42.5t-26 17.5t-19.5 2h-1v4h19q83 0 103 14v-77q81 64 185 64q123 0 211 -86t88 -210q0 -127 -90 -213.5t-209 -86.5q-100 0 -185 67v-160
q-2 -102 -77.5 -160t-178.5 -58zM326 0q106 0 170.5 85.5t64.5 194.5q0 69 -26.5 131t-81.5 103.5t-127 41.5q-70 0 -127.5 -36.5t-57.5 -100.5v-261q0 -76 52.5 -117t132.5 -41z" />
    <glyph glyph-name="q.salt" unicode="&#xe02f;" horiz-adv-x="632" 
d="M745 -331q-103 0 -179 58t-78 160v162q-87 -69 -188 -69q-122 0 -211 87t-89 212t88 209.5t211 84.5q49 0 104 -19t66 -19q34 0 79 38v-685q4 -96 67.5 -154.5t156.5 -58.5q26 0 49 4q0 7 6 7t6 -6t-6 -6q-5 0 -6 4q-38 -9 -76 -9zM301 0q97 0 142 54.5t45 144.5v189
q0 81 -51 122.5t-138 41.5q-107 0 -170.5 -82t-63.5 -191t64.5 -194t171.5 -85z" />
    <glyph glyph-name="r.salt" unicode="&#xe030;" horiz-adv-x="425" 
d="M-115 -138q-39 0 -76 9q-2 -4 -6 -4q-6 0 -6 6t6 6t6 -7q23 -4 49 -4q94 0 157.5 58.5t67.5 154.5v426q0 41 -31 55q-7 3 -14.5 5t-11.5 2h-5v3h9q84 0 112 17v-96q30 33 76.5 56t88.5 24q67 0 108 -41l-14 -75h-6v4q0 36 -29.5 67.5t-63.5 31.5q-73 -1 -116.5 -63.5
t-43.5 -139.5v-277q-2 -102 -78 -160t-179 -58z" />
    <glyph glyph-name="s.salt" unicode="&#xe031;" horiz-adv-x="500" 
d="M230 -102h-4q-162 4 -226 122l38 80l12 -6q-6 -21 -6 -39q0 -60 55 -96.5t126 -36.5q77 0 129 35.5t56 110.5q0 64 -97 126q-13 8 -54 30q50 -55 50 -117q0 -43 -28.5 -75.5t-85.5 -43.5l-1 3q95 26 95 107q0 65 -56 118q-50 41 -95 70q-57 38 -83.5 69.5t-26.5 81.5
q0 76 60 116t148 41q62 0 117.5 -19.5t83.5 -53.5l-22 -86l-9 1l1 14q0 56 -54 89.5t-128 35.5q-64 0 -109.5 -26.5t-45.5 -78.5q0 -25 9.5 -45t32 -37.5t39 -28t55 -29t55.5 -28.5q40 -22 61 -34.5t51.5 -35t45.5 -42t27 -48.5t12 -62q0 -9 -2 -29q-10 -76 -74 -114.5
t-152 -38.5z" />
    <glyph glyph-name="t.salt" unicode="&#xe032;" horiz-adv-x="297" 
d="M276 -39q-69 0 -120 49t-51 117v332l-1 -1v91h-97v22h97q0 95 -66.5 155t-155.5 60q-22 0 -50 -5q0 -6 -6 -6t-6 6t6 6q4 0 6 -4q36 9 75 9q103 0 180 -59t77 -162h98v-22h-98v-449q0 -53 35.5 -92.5t87.5 -45.5q-4 -1 -11 -1z" />
    <glyph glyph-name="u.alt" unicode="&#xe033;" horiz-adv-x="664" 
d="M776 -138q-101 0 -176.5 57t-79.5 157q-82 -93 -223 -97q-95 0 -164 51t-71 146v333q0 28 -16 43.5t-27 17.5t-19 2v2q101 0 123 14v-410q4 -87 59 -132t133 -45q89 2 146.5 51.5t58.5 153.5v302q0 27 -15.5 42.5t-26 17.5t-19.5 2h-1v3h13q86 0 109 16v-508
q4 -96 67 -154.5t156 -58.5q26 0 49 4q0 7 6 7q7 0 7 -6t-7 -6q-3 0 -5 4q-37 -9 -77 -9z" />
    <glyph glyph-name="v.salt" unicode="&#xe034;" horiz-adv-x="620" 
d="M316 -4h-48q-140 347 -219 537q-29 63 -81 97t-114 34q-70 0 -136 -42l1 -3q0 -4 -7 -6q-5 0 -5 6t5 6q3 0 5 -2q84 62 183 62q66 0 120 -32t83 -96q71 -171 207 -507q16 39 86.5 209t106.5 262q2 6 2 17q0 33 -37 33h-1v3h143v-3h-3q-55 0 -79 -59z" />
    <glyph glyph-name="w.salt" unicode="&#xe035;" horiz-adv-x="893" 
d="M588 -4h-51l-108 268l-109 -268h-53q-123 305 -224 549q-29 63 -81.5 97t-114.5 34q-69 0 -135 -42v-3q0 -6 -5 -6t-7 6q0 6 6 6q3 0 5 -2q84 62 183 62q66 0 120 -32t82 -96q88 -211 215 -527l104 256l-86 212q-6 17 -17 29.5t-20.5 18.5t-20 9.5t-15 4t-7.5 0.5l-1 2
h173v-2q-5 0 -12 -1t-17 -10t-10 -24q0 -11 6 -27l56 -139l62 152q4 9 4 17q0 17 -13.5 24t-24.5 7h-1v3h139v-3q-2 0 -6 -0.5t-15.5 -4t-21.5 -9.5t-21.5 -19t-18.5 -31l-69 -171l120 -294l196 479q2 6 2 17q0 33 -37 33h-1v3h145v-3h-8q-52 0 -74 -56z" />
    <glyph glyph-name="x.salt" unicode="&#xe036;" horiz-adv-x="529" 
d="M510 -4h-171v3h1q26 0 26 22q0 15 -15 38q-23 35 -58.5 96.5t-54.5 90.5l-136 -198q-8 -15 -8 -26q0 -23 30 -23h1v-3h-145v3q59 0 97 57l142 208l-197 307q-67 95 -175 97q-93 0 -167 -70l1 -3q0 -4 -6 -7q-5 0 -6 6q0 4 7 7l3 -2q88 96 219 99q112 0 174 -92l185 -288
l140 204q8 16 8 25q0 24 -31 24v3h145l-1 -3h-3q-57 0 -94 -58l-150 -218l151 -236q17 -26 38.5 -41t31.5 -17t17 -2h1v-3z" />
    <glyph glyph-name="y.salt" unicode="&#xe037;" horiz-adv-x="549" 
d="M77 -208q40 0 72 24.5t50 68.5l258 627q23 59 78 59h4v3h-145v-3h1q37 0 37 -33q0 -11 -2 -17l-196 -479l-219 530q-29 64 -83.5 96t-120.5 32q-101 0 -184 -62l-4 2q-7 -2 -7 -7t6 -5t6 8l-1 1v-1q66 42 137 42q62 0 114 -33.5t81 -96.5q239 -576 239 -593
q-18 -43 -26.5 -62t-22.5 -40t-29 -28t-36 -7q-27 0 -50 18.5t-33 48.5l-6 -2l14 -74q37 -17 68 -17z" />
    <glyph glyph-name="z.salt" unicode="&#xe038;" horiz-adv-x="479" 
d="M-154 -193q-57 0 -114.5 25.5t-99.5 69.5q-1 -1 -3 -1q-7 2 -7 6q2 6 7 6q6 -1 6 -6l-2 -4q76 -67 163 -67q112 0 179 100q89 142 361 577q4 5 4 12q0 28 -69 28h-55q-37 0 -61.5 -3.5t-51.5 -14.5t-45.5 -35t-30.5 -63l-11 3l47 134h379l-316 -508l1 -1q-2 -2 -5 -5.5
t-3.5 -6t-0.5 -7.5q0 -13 14.5 -21.5t39.5 -8.5q15 0 47 -1t49 -1q73 0 121.5 20.5t68.5 79.5l11 -2l-43 -117h-343l-58 -92q-63 -96 -179 -96z" />
    <glyph glyph-name="A.SS01" unicode="&#xe03a;" horiz-adv-x="835" 
 />
    <glyph glyph-name="B.SS01" unicode="&#xe03b;" horiz-adv-x="1021" 
 />
    <glyph glyph-name="C.SS01" unicode="&#xe03c;" horiz-adv-x="1000" 
 />
    <glyph glyph-name="D.SS01" unicode="&#xe03d;" horiz-adv-x="1088" 
 />
    <glyph glyph-name="E.SS01" unicode="&#xe03e;" horiz-adv-x="882" 
 />
    <glyph glyph-name="F.SS01" unicode="&#xe03f;" horiz-adv-x="815" 
 />
    <glyph glyph-name="G.SS01" unicode="&#xe040;" horiz-adv-x="1088" 
 />
    <glyph glyph-name="H.SS01" unicode="&#xe041;" horiz-adv-x="1068" 
 />
    <glyph glyph-name="I.SS01" unicode="&#xe042;" horiz-adv-x="543" 
 />
    <glyph glyph-name="J.SS01" unicode="&#xe043;" horiz-adv-x="536" 
 />
    <glyph glyph-name="K.SS01" unicode="&#xe044;" horiz-adv-x="942" 
 />
    <glyph glyph-name="L.SS01" unicode="&#xe045;" horiz-adv-x="734" 
 />
    <glyph glyph-name="M.SS01" unicode="&#xe046;" horiz-adv-x="1203" 
 />
    <glyph glyph-name="N.SS01" unicode="&#xe047;" horiz-adv-x="1017" 
 />
    <glyph glyph-name="O.SS01" unicode="&#xe048;" horiz-adv-x="1116" 
 />
    <glyph glyph-name="P.SS01" unicode="&#xe049;" horiz-adv-x="949" 
 />
    <glyph glyph-name="Q.SS01" unicode="&#xe04a;" horiz-adv-x="1153" 
 />
    <glyph glyph-name="R.SS01" unicode="&#xe04b;" horiz-adv-x="1024" 
 />
    <glyph glyph-name="S.SS01" unicode="&#xe04c;" horiz-adv-x="808" 
 />
    <glyph glyph-name="T.SS01" unicode="&#xe04d;" horiz-adv-x="778" 
 />
    <glyph glyph-name="U.SS01" unicode="&#xe04e;" horiz-adv-x="1019" 
 />
    <glyph glyph-name="V.SS01" unicode="&#xe04f;" horiz-adv-x="1024" 
 />
    <glyph glyph-name="W.SS01" unicode="&#xe050;" horiz-adv-x="1292" 
 />
    <glyph glyph-name="X.SS01" unicode="&#xe051;" horiz-adv-x="937" 
 />
    <glyph glyph-name="Y.SS01" unicode="&#xe052;" horiz-adv-x="817" 
 />
    <glyph glyph-name="Z.SS01" unicode="&#xe053;" horiz-adv-x="808" 
 />
    <glyph glyph-name="A.SS02" unicode="&#xe055;" horiz-adv-x="843" 
 />
    <glyph glyph-name="B.SS02" unicode="&#xe056;" horiz-adv-x="998" 
 />
    <glyph glyph-name="C.SS02" unicode="&#xe057;" horiz-adv-x="1040" 
 />
    <glyph glyph-name="D.SS02" unicode="&#xe058;" horiz-adv-x="1093" 
 />
    <glyph glyph-name="E.SS02" unicode="&#xe059;" horiz-adv-x="793" 
 />
    <glyph glyph-name="F.SS02" unicode="&#xe05a;" horiz-adv-x="794" 
 />
    <glyph glyph-name="G.SS02" unicode="&#xe05b;" horiz-adv-x="1040" 
 />
    <glyph glyph-name="H.SS02" unicode="&#xe05c;" horiz-adv-x="1060" 
 />
    <glyph glyph-name="I.SS02" unicode="&#xe05d;" horiz-adv-x="545" 
 />
    <glyph glyph-name="J.SS02" unicode="&#xe05e;" horiz-adv-x="530" 
 />
    <glyph glyph-name="K.SS02" unicode="&#xe05f;" horiz-adv-x="852" 
 />
    <glyph glyph-name="L.SS02" unicode="&#xe060;" horiz-adv-x="529" 
 />
    <glyph glyph-name="M.SS02" unicode="&#xe061;" horiz-adv-x="1194" 
 />
    <glyph glyph-name="N.SS02" unicode="&#xe062;" horiz-adv-x="1018" 
 />
    <glyph glyph-name="O.SS02" unicode="&#xe063;" horiz-adv-x="1081" 
 />
    <glyph glyph-name="P.SS02" unicode="&#xe064;" horiz-adv-x="992" 
 />
    <glyph glyph-name="Q.SS02" unicode="&#xe065;" horiz-adv-x="1081" 
 />
    <glyph glyph-name="R.SS02" unicode="&#xe066;" horiz-adv-x="1010" 
 />
    <glyph glyph-name="S.SS02" unicode="&#xe067;" horiz-adv-x="851" 
 />
    <glyph glyph-name="T.SS02" unicode="&#xe068;" horiz-adv-x="843" 
 />
    <glyph glyph-name="U.SS02" unicode="&#xe069;" horiz-adv-x="1026" 
 />
    <glyph glyph-name="V.SS02" unicode="&#xe06a;" horiz-adv-x="1036" 
 />
    <glyph glyph-name="W.SS02" unicode="&#xe06b;" horiz-adv-x="1313" 
 />
    <glyph glyph-name="X.SS02" unicode="&#xe06c;" horiz-adv-x="888" 
 />
    <glyph glyph-name="Y.SS02" unicode="&#xe06d;" horiz-adv-x="837" 
 />
    <glyph glyph-name="Z.SS02" unicode="&#xe06e;" horiz-adv-x="874" 
 />
    <glyph glyph-name="a.ss01" unicode="&#xe070;" horiz-adv-x="925" 
 />
    <glyph glyph-name="b.ss01" unicode="&#xe071;" horiz-adv-x="928" 
 />
    <glyph glyph-name="c.ss01" unicode="&#xe072;" horiz-adv-x="855" 
 />
    <glyph glyph-name="d.ss01" unicode="&#xe073;" horiz-adv-x="968" 
 />
    <glyph glyph-name="e.ss01" unicode="&#xe074;" horiz-adv-x="898" 
 />
    <glyph glyph-name="f.ss01" unicode="&#xe075;" horiz-adv-x="580" 
 />
    <glyph glyph-name="g.ss01" unicode="&#xe076;" horiz-adv-x="912" 
 />
    <glyph glyph-name="h.ss01" unicode="&#xe077;" horiz-adv-x="968" 
 />
    <glyph glyph-name="i.ss01" unicode="&#xe078;" horiz-adv-x="527" 
 />
    <glyph glyph-name="j.ss01" unicode="&#xe079;" horiz-adv-x="529" 
 />
    <glyph glyph-name="k.ss01" unicode="&#xe07a;" horiz-adv-x="855" 
 />
    <glyph glyph-name="l.ss01" unicode="&#xe07b;" horiz-adv-x="531" 
 />
    <glyph glyph-name="m.ss01" unicode="&#xe07c;" horiz-adv-x="1431" 
 />
    <glyph glyph-name="n.ss01" unicode="&#xe07d;" horiz-adv-x="972" 
 />
    <glyph glyph-name="o.ss01" unicode="&#xe07e;" horiz-adv-x="991" 
 />
    <glyph glyph-name="p.ss01" unicode="&#xe07f;" horiz-adv-x="948" 
 />
    <glyph glyph-name="q.ss01" unicode="&#xe080;" horiz-adv-x="972" 
 />
    <glyph glyph-name="r.ss01" unicode="&#xe081;" horiz-adv-x="717" 
 />
    <glyph glyph-name="s.ss01" unicode="&#xe082;" horiz-adv-x="787" 
 />
    <glyph glyph-name="t.ss01" unicode="&#xe083;" horiz-adv-x="562" 
 />
    <glyph glyph-name="u.ss01" unicode="&#xe084;" horiz-adv-x="984" 
 />
    <glyph glyph-name="v.ss01" unicode="&#xe085;" horiz-adv-x="866" 
 />
    <glyph glyph-name="w.ss01" unicode="&#xe086;" horiz-adv-x="1162" 
 />
    <glyph glyph-name="x.ss01" unicode="&#xe087;" horiz-adv-x="835" 
 />
    <glyph glyph-name="y.ss01" unicode="&#xe088;" horiz-adv-x="913" 
 />
    <glyph glyph-name="z.ss01" unicode="&#xe089;" horiz-adv-x="756" 
 />
    <glyph glyph-name="a.ss02" unicode="&#xe08b;" horiz-adv-x="890" 
 />
    <glyph glyph-name="b.ss02" unicode="&#xe08c;" horiz-adv-x="939" 
 />
    <glyph glyph-name="c.ss02" unicode="&#xe08d;" horiz-adv-x="890" 
 />
    <glyph glyph-name="d.ss02" unicode="&#xe08e;" horiz-adv-x="919" 
 />
    <glyph glyph-name="e.ss02" unicode="&#xe08f;" horiz-adv-x="890" 
 />
    <glyph glyph-name="f.ss02" unicode="&#xe090;" horiz-adv-x="551" 
 />
    <glyph glyph-name="g.ss02" unicode="&#xe091;" horiz-adv-x="898" 
 />
    <glyph glyph-name="h.ss02" unicode="&#xe092;" horiz-adv-x="921" 
 />
    <glyph glyph-name="i.ss02" unicode="&#xe093;" horiz-adv-x="492" 
 />
    <glyph glyph-name="j.ss02" unicode="&#xe094;" horiz-adv-x="508" 
 />
    <glyph glyph-name="k.ss02" unicode="&#xe095;" horiz-adv-x="730" 
 />
    <glyph glyph-name="l.ss02" unicode="&#xe096;" horiz-adv-x="494" 
 />
    <glyph glyph-name="m.ss02" unicode="&#xe097;" horiz-adv-x="1409" 
 />
    <glyph glyph-name="n.ss02" unicode="&#xe098;" horiz-adv-x="965" 
 />
    <glyph glyph-name="o.ss02" unicode="&#xe099;" horiz-adv-x="992" 
 />
    <glyph glyph-name="p.ss02" unicode="&#xe09a;" horiz-adv-x="969" 
 />
    <glyph glyph-name="q.ss02" unicode="&#xe09b;" horiz-adv-x="912" 
 />
    <glyph glyph-name="r.ss02" unicode="&#xe09c;" horiz-adv-x="741" 
 />
    <glyph glyph-name="s.ss02" unicode="&#xe09d;" horiz-adv-x="772" 
 />
    <glyph glyph-name="t.ss02" unicode="&#xe09e;" horiz-adv-x="523" 
 />
    <glyph glyph-name="u.ss02" unicode="&#xe09f;" horiz-adv-x="938" 
 />
    <glyph glyph-name="v.ss02" unicode="&#xe0a0;" horiz-adv-x="890" 
 />
    <glyph glyph-name="w.ss02" unicode="&#xe0a1;" horiz-adv-x="1121" 
 />
    <glyph glyph-name="x.ss02" unicode="&#xe0a2;" horiz-adv-x="822" 
 />
    <glyph glyph-name="y.ss02" unicode="&#xe0a3;" horiz-adv-x="890" 
 />
    <glyph glyph-name="z.ss02" unicode="&#xe0a4;" horiz-adv-x="760" 
 />
    <glyph glyph-name="I.ALT.1" unicode="&#xe0a6;" horiz-adv-x="0" 
 />
    <glyph glyph-name="Ishort-cyrl.ALT" unicode="&#xe0a7;" horiz-adv-x="835" 
 />
    <glyph glyph-name="eit.alt" unicode="&#xe0a8;" horiz-adv-x="0" 
 />
    <glyph glyph-name="glyph459" unicode="&#xe0a9;" horiz-adv-x="0" 
 />
    <glyph glyph-name="M.SS03" unicode="&#xe0ac;" horiz-adv-x="1209" 
 />
    <glyph glyph-name="T.SS03" unicode="&#xe0ad;" horiz-adv-x="849" 
 />
    <glyph glyph-name="B.SS03" unicode="&#xe0ae;" horiz-adv-x="927" 
 />
    <glyph glyph-name="G.SS03" unicode="&#xe0af;" horiz-adv-x="800" 
 />
    <glyph glyph-name="H.SS03" unicode="&#xe0b0;" horiz-adv-x="811" 
 />
    <glyph glyph-name="K.SS03" unicode="&#xe0b1;" horiz-adv-x="685" 
 />
    <glyph glyph-name="L.SS03" unicode="&#xe0b2;" horiz-adv-x="477" 
 />
    <glyph glyph-name="M.SS04" unicode="&#xe0b3;" horiz-adv-x="946" 
 />
    <glyph glyph-name="N.SS03" unicode="&#xe0b4;" horiz-adv-x="761" 
 />
    <glyph glyph-name="Q.SSO3" unicode="&#xe0b5;" horiz-adv-x="859" 
 />
    <glyph glyph-name="R.SSO3" unicode="&#xe0b6;" horiz-adv-x="768" 
 />
    <glyph glyph-name="T.SS04" unicode="&#xe0b7;" horiz-adv-x="608" 
 />
    <glyph glyph-name="Z.SS03" unicode="&#xe0b8;" horiz-adv-x="684" 
 />
    <glyph glyph-name="K.SS04" unicode="&#xe0ba;" horiz-adv-x="685" 
 />
    <glyph glyph-name="N.SS04" unicode="&#xe0bc;" horiz-adv-x="761" 
 />
    <glyph glyph-name="R.SS04" unicode="&#xe0bd;" horiz-adv-x="768" 
 />
    <glyph glyph-name="b.ss03" unicode="&#xe0bf;" horiz-adv-x="664" 
 />
    <glyph glyph-name="d.ss03" unicode="&#xe0c0;" horiz-adv-x="664" 
 />
    <glyph glyph-name="k.ss03" unicode="&#xe0c1;" horiz-adv-x="565" 
 />
    <glyph glyph-name="l.ss03" unicode="&#xe0c2;" horiz-adv-x="239" 
 />
    <glyph glyph-name="t.ss03" unicode="&#xe0c3;" horiz-adv-x="292" 
 />
    <glyph glyph-name="a.ss03" unicode="&#xe0c4;" horiz-adv-x="621" 
 />
    <glyph glyph-name="b.ss04" unicode="&#xe0c5;" horiz-adv-x="664" 
 />
    <glyph glyph-name="d.ss04" unicode="&#xe0c6;" horiz-adv-x="664" 
 />
    <glyph glyph-name="h.ss03" unicode="&#xe0c7;" horiz-adv-x="684" 
 />
    <glyph glyph-name="k.ss04" unicode="&#xe0c8;" horiz-adv-x="565" 
 />
    <glyph glyph-name="l.ss04" unicode="&#xe0c9;" horiz-adv-x="239" 
 />
    <glyph glyph-name="m.ss03" unicode="&#xe0ca;" horiz-adv-x="1148" 
 />
    <glyph glyph-name="n.ss03" unicode="&#xe0cb;" horiz-adv-x="688" 
 />
    <glyph glyph-name="p.ss03" unicode="&#xe0cc;" horiz-adv-x="672" 
 />
    <glyph glyph-name="q.ss03" unicode="&#xe0cd;" horiz-adv-x="668" 
 />
    </font>
</defs>
</svg>
